<svg width="327" height="276" viewBox="0 0 327 276" fill="none" xmlns="http://www.w3.org/2000/svg">
<g filter="url(#filter0_f_1443_4043)">
<path d="M285.399 122.181C292.026 149.476 250.527 182.951 192.708 196.947C134.89 210.944 82.6471 200.164 76.0203 172.868C69.3935 145.573 110.892 112.099 168.711 98.1017C226.529 84.1048 278.772 94.8854 285.399 122.181Z" fill="url(#paint0_radial_1443_4043)"/>
</g>
<g filter="url(#filter1_f_1443_4043)">
<path d="M174.352 106.63C167.415 130.07 132.065 140.3 95.3954 129.478C58.7259 118.657 34.6231 90.8825 41.5603 67.4423C48.4974 44.002 83.8476 33.7724 120.517 44.5938C157.187 55.4151 181.289 83.1896 174.352 106.63Z" fill="url(#paint1_radial_1443_4043)"/>
</g>
<path d="M105.492 151.24C105.492 122.227 129.012 98.7066 158.025 98.7066C187.039 98.7066 210.559 122.227 210.559 151.24C210.559 180.253 187.039 203.773 158.025 203.773C129.012 203.773 105.492 180.253 105.492 151.24Z" fill="white"/>
<path d="M115.839 93.4C115.839 70.1014 134.726 51.2141 158.025 51.2141C181.324 51.2141 200.211 70.1014 200.211 93.4C200.211 116.699 181.324 135.586 158.025 135.586C134.726 135.586 115.839 116.699 115.839 93.4Z" fill="white"/>
<path d="M144.358 85.9022C144.358 92.0207 139.398 96.9802 133.277 96.9802C127.159 96.9802 122.199 92.0207 122.199 85.9022C122.199 79.7837 127.159 74.8242 133.277 74.8242C139.398 74.8219 144.358 79.7813 144.358 85.9022Z" fill="#FFBC70"/>
<path d="M133.279 97.2397C127.026 97.2397 121.941 92.1528 121.941 85.9021C121.941 79.649 127.028 74.5645 133.279 74.5645C139.532 74.5645 144.617 79.6514 144.617 85.9021C144.619 92.1528 139.532 97.2397 133.279 97.2397ZM133.279 75.0814C127.314 75.0814 122.461 79.9347 122.461 85.8997C122.461 91.8648 127.314 96.7181 133.279 96.7181C139.244 96.7181 144.1 91.8648 144.1 85.8997C144.1 79.9347 139.246 75.0814 133.279 75.0814Z" fill="white"/>
<path d="M159.459 135.526C159.459 136.352 158.79 137.022 157.964 137.022C157.138 137.022 156.469 136.352 156.469 135.526C156.469 134.701 157.138 134.031 157.964 134.031C158.79 134.031 159.459 134.7 159.459 135.526Z" fill="#002E6E"/>
<path d="M157.964 137.057C157.12 137.057 156.434 136.37 156.434 135.526C156.434 134.682 157.12 133.996 157.964 133.996C158.808 133.996 159.494 134.683 159.494 135.526C159.494 136.37 158.808 137.057 157.964 137.057ZM157.964 134.066C157.159 134.066 156.504 134.721 156.504 135.526C156.504 136.331 157.159 136.986 157.964 136.986C158.769 136.986 159.424 136.331 159.424 135.526C159.424 134.721 158.769 134.066 157.964 134.066Z" fill="white"/>
<path d="M159.459 145.872C159.459 146.698 158.79 147.367 157.964 147.367C157.138 147.367 156.469 146.698 156.469 145.872C156.469 145.046 157.138 144.377 157.964 144.377C158.79 144.377 159.459 145.046 159.459 145.872Z" fill="#002E6E"/>
<path d="M157.964 147.402C157.12 147.402 156.434 146.716 156.434 145.872C156.434 145.028 157.12 144.342 157.964 144.342C158.808 144.342 159.494 145.028 159.494 145.872C159.494 146.716 158.808 147.402 157.964 147.402ZM157.964 144.412C157.159 144.412 156.504 145.067 156.504 145.872C156.504 146.677 157.159 147.332 157.964 147.332C158.769 147.332 159.424 146.677 159.424 145.872C159.424 145.067 158.769 144.412 157.964 144.412Z" fill="white"/>
<path d="M159.725 156.22C159.725 157.046 159.056 157.715 158.23 157.715C157.404 157.715 156.734 157.046 156.734 156.22C156.734 155.394 157.404 154.725 158.23 154.725C159.056 154.724 159.725 155.394 159.725 156.22Z" fill="#002E6E"/>
<path d="M158.229 157.75C157.385 157.75 156.699 157.063 156.699 156.22C156.699 155.376 157.386 154.689 158.229 154.689C159.073 154.689 159.76 155.376 159.76 156.22C159.76 157.063 159.073 157.75 158.229 157.75ZM158.229 154.759C157.424 154.759 156.769 155.414 156.769 156.219C156.769 157.025 157.424 157.68 158.229 157.68C159.035 157.68 159.69 157.025 159.69 156.219C159.69 155.414 159.035 154.759 158.229 154.759Z" fill="white"/>
<path d="M188.666 85.6366C188.666 91.7551 183.704 96.7146 177.586 96.7146C171.467 96.7146 166.508 91.7551 166.508 85.6366C166.508 79.5181 171.467 74.5586 177.586 74.5586C183.704 74.5562 188.666 79.5157 188.666 85.6366Z" fill="#FFBC70"/>
<path d="M177.588 96.9741C171.337 96.9741 166.25 91.8872 166.25 85.6365C166.25 79.3834 171.337 74.2988 177.588 74.2988C183.841 74.2988 188.928 79.3858 188.928 85.6365C188.928 91.8872 183.841 96.9741 177.588 96.9741ZM177.588 74.8158C171.623 74.8158 166.769 79.669 166.769 85.6341C166.769 91.5992 171.623 96.4524 177.588 96.4524C183.553 96.4524 188.408 91.5992 188.408 85.6341C188.408 79.669 183.555 74.8158 177.588 74.8158Z" fill="white"/>
<path d="M149.376 75.3634C149.225 75.6538 149.06 75.9211 148.937 76.2279C148.772 76.6425 148.808 77.1157 148.902 77.5412C149.072 78.3116 150.124 78.2012 150.349 77.5412C150.533 77.0011 150.764 76.4802 150.949 75.9416C150.466 75.8093 149.984 75.6757 149.502 75.5434C149.32 76.1257 149.275 76.7352 149.275 77.3421C149.275 77.6762 149.504 77.9762 149.826 78.0648C150.121 78.1453 150.542 78.0239 150.673 77.7198C150.931 77.1211 151.029 76.0861 150.41 75.662C150.098 75.4479 149.545 75.5761 149.383 75.9307C149.311 76.0888 149.286 76.1652 149.275 76.3411C149.249 76.7502 149.635 77.0911 150.025 77.0911C150.454 77.0911 150.749 76.7489 150.775 76.3411C150.775 76.3329 150.777 76.3261 150.777 76.3179C150.743 76.4448 150.709 76.5702 150.674 76.697C150.676 76.6943 150.677 76.6916 150.679 76.6889C150.336 76.7789 149.994 76.8689 149.652 76.9575C149.654 76.9589 149.656 76.9602 149.657 76.9616C149.567 76.8716 149.477 76.7816 149.389 76.6929C149.277 76.4611 149.331 76.5566 149.349 76.6384C149.389 76.8198 149.334 76.4611 149.356 76.6861C149.363 76.7611 149.363 76.8361 149.363 76.9111C149.356 77.0039 149.357 77.0134 149.367 76.9398C149.339 77.027 149.344 77.0352 149.378 76.963C149.844 77.0898 150.309 77.2152 150.775 77.3421C150.775 76.8593 150.804 76.4052 150.949 75.9416C151.07 75.5516 150.808 75.1247 150.425 75.0184C150.013 74.9052 149.634 75.1561 149.502 75.542C149.318 76.082 149.086 76.6029 148.902 77.1416C149.384 77.1416 149.866 77.1416 150.349 77.1416C150.324 77.0325 150.32 76.9452 150.324 76.832C150.321 76.907 150.419 76.5525 150.369 76.6657C150.455 76.4761 150.578 76.3043 150.673 76.1202C151.119 75.2638 149.825 74.5056 149.376 75.3634Z" fill="#002E6E"/>
<path d="M157.074 75.3447C157.074 75.3842 157.073 75.4237 157.07 75.4633C157.059 75.6542 157.1 75.2996 157.067 75.4756C157.051 75.5642 157.025 75.6515 157 75.7374C156.933 75.9747 156.91 76.1969 156.954 76.4397C157.062 77.0424 157.722 77.2961 158.225 77.4679C158.691 77.6274 159.174 77.2101 159.174 76.7451C159.174 76.2788 159.174 75.8124 159.174 75.3447C158.683 75.4115 158.192 75.4769 157.701 75.5437C157.768 76.0101 157.835 76.4765 157.902 76.9442C157.948 77.2688 158.323 77.4952 158.624 77.4952C158.964 77.4952 159.252 77.2647 159.347 76.9442C159.439 76.6415 159.478 76.3251 159.454 76.0101C159.443 75.8656 159.418 75.721 159.396 75.5778C159.388 75.5287 159.381 75.4797 159.373 75.4306C159.398 75.5887 159.374 75.361 159.374 75.3447C159.368 75.106 159.242 74.7978 159.003 74.6969C158.642 74.5442 158.337 74.5005 157.978 74.6901C157.878 74.7419 157.788 74.8265 157.719 74.9151C157.671 74.9737 157.625 75.0351 157.58 75.0965C157.573 75.106 157.566 75.1156 157.559 75.1251C157.636 74.9956 157.75 74.9083 157.904 74.8633C158.038 74.8633 158.17 74.8633 158.303 74.8633C158.387 74.9137 158.47 74.9642 158.555 75.0146C158.244 74.7501 157.801 74.7078 157.494 75.0146C157.223 75.286 157.182 75.811 157.494 76.0756C157.797 76.3319 158.161 76.4219 158.525 76.2174C158.675 76.1329 158.753 76.0142 158.855 75.8819C158.939 75.7715 158.732 76.0265 158.829 75.9174C158.682 76.0851 158.432 76.0715 158.247 75.9924C158.123 75.7769 157.998 75.5601 157.876 75.3447C157.883 75.5819 157.926 75.8178 157.962 76.0524C157.944 75.9392 157.963 76.231 157.963 76.2624C157.962 76.3606 157.936 76.4342 157.902 76.546C158.384 76.546 158.866 76.546 159.348 76.546C159.282 76.0797 159.215 75.6133 159.148 75.1456C159.102 74.821 158.727 74.5946 158.425 74.5946C158.016 74.5946 157.675 74.9356 157.675 75.3447C157.675 75.811 157.675 76.2774 157.675 76.7451C157.992 76.5038 158.308 76.2624 158.624 76.0224C158.597 76.0128 158.298 75.8956 158.425 75.9528C158.357 75.9228 158.293 75.8847 158.23 75.8438C158.328 75.9092 158.343 75.9242 158.414 76.1001C158.395 76.0265 158.398 76.0633 158.425 76.2119C158.42 76.1492 158.455 76.0347 158.41 76.2829C158.468 75.9665 158.568 75.6747 158.574 75.346C158.593 74.3778 157.093 74.3792 157.074 75.3447Z" fill="#002E6E"/>
<path d="M196.551 108.109C173.243 115.544 136.145 110.593 121.46 107.834C118.491 107.277 115.309 109.766 115.309 112.787V116.672C115.309 117.615 115.606 118.543 116.254 119.227C129.797 133.521 175.382 126.53 199.716 120.482C201.584 120.017 202.864 118.333 202.864 116.408V112.412C202.864 109.272 199.543 107.155 196.551 108.109Z" fill="#FF8800"/>
<path d="M169.241 165.015C172.181 153.615 174.44 131.972 173.587 119.789C173.488 118.381 174.341 117.071 175.69 116.655L187.695 112.95C189.033 112.537 190.474 113.127 190.9 114.461C194.041 124.304 194.328 149.7 194.008 164.239C193.973 165.816 192.683 167.084 191.116 167.267C186.491 167.807 179.383 169.332 173.941 170.545C171.299 171.134 168.565 167.637 169.241 165.015Z" fill="#FF8800"/>
<path d="M155.247 78.4984L155.6 80.8486C155.718 81.6406 155.111 82.3552 154.31 82.3652L153.384 82.3768C152.522 82.3875 151.881 81.5826 152.084 80.7447L152.657 78.3829C152.999 76.9743 155.032 77.065 155.247 78.4984Z" fill="#FF8800"/>
<path fill-rule="evenodd" clip-rule="evenodd" d="M193.564 47.1344C193.767 47.3461 193.759 47.682 193.548 47.8847L178.026 62.7426C177.815 62.9453 177.479 62.9379 177.276 62.7262C177.074 62.5145 177.081 62.1786 177.293 61.976L192.814 47.118C193.026 46.9154 193.361 46.9227 193.564 47.1344Z" fill="#744108"/>
<path fill-rule="evenodd" clip-rule="evenodd" d="M189.195 45.1252C188.908 45.1884 188.728 45.4716 188.791 45.7578L189.815 50.3922C189.878 50.6784 190.161 50.8592 190.447 50.7959C190.733 50.7327 190.914 50.4495 190.851 50.1633L189.827 45.5289C189.764 45.2427 189.481 45.062 189.195 45.1252Z" fill="#744108"/>
<path fill-rule="evenodd" clip-rule="evenodd" d="M195.545 49.0323C195.609 49.3184 195.429 49.6019 195.143 49.6656L190.51 50.6962C190.224 50.7599 189.94 50.5796 189.877 50.2935C189.813 50.0074 189.993 49.7239 190.279 49.6603L194.912 48.6296C195.198 48.566 195.482 48.7463 195.545 49.0323Z" fill="#744108"/>
<path fill-rule="evenodd" clip-rule="evenodd" d="M123.405 47.1344C123.202 47.3461 123.209 47.682 123.421 47.8847L138.942 62.7426C139.154 62.9453 139.49 62.9379 139.693 62.7262C139.895 62.5145 139.888 62.1786 139.676 61.976L124.155 47.118C123.943 46.9154 123.607 46.9227 123.405 47.1344Z" fill="#744108"/>
<path fill-rule="evenodd" clip-rule="evenodd" d="M127.774 45.1252C128.06 45.1884 128.241 45.4716 128.178 45.7578L127.154 50.3922C127.091 50.6784 126.808 50.8592 126.522 50.7959C126.235 50.7327 126.055 50.4495 126.118 50.1633L127.142 45.5289C127.205 45.2427 127.488 45.062 127.774 45.1252Z" fill="#744108"/>
<path fill-rule="evenodd" clip-rule="evenodd" d="M121.423 49.0323C121.36 49.3184 121.54 49.6019 121.826 49.6656L126.459 50.6962C126.745 50.7599 127.029 50.5796 127.092 50.2935C127.156 50.0074 126.976 49.7239 126.689 49.6603L122.057 48.6296C121.77 48.566 121.487 48.7463 121.423 49.0323Z" fill="#744108"/>
<path d="M242.661 190.66C242.661 197.254 233.752 202.6 222.762 202.6C211.772 202.6 202.863 197.254 202.863 190.66C202.863 184.066 211.772 178.721 222.762 178.721C233.752 178.721 242.661 184.066 242.661 190.66Z" fill="white"/>
<path d="M257.255 197.161C257.255 200.751 252.444 203.661 246.509 203.661C240.575 203.661 235.764 200.751 235.764 197.161C235.764 193.57 240.575 190.66 246.509 190.66C252.444 190.66 257.255 193.57 257.255 197.161Z" fill="white"/>
<path d="M105.491 197.161C105.491 200.751 100.68 203.661 94.7455 203.661C88.8109 203.661 84 200.751 84 197.161C84 193.57 88.8109 190.66 94.7455 190.66C100.68 190.66 105.491 193.57 105.491 197.161Z" fill="white"/>
<path d="M68.0195 253.594V255.961H53.207V248.391H56.207V253.594H68.0195ZM50.6992 260.227V257.883H70.1992V260.227H62.1602V264H59.1836V260.227H50.6992ZM52.9961 268.781V262.359H55.9727V266.391H68.1836V268.781H52.9961ZM89.418 247.828V260.625H86.4414V255.445H81.2617V253.102H86.4414V247.828H89.418ZM72.5898 259.828V249.305H82.293V251.648H75.5664V257.391C78.6367 257.367 80.8164 257.238 83.2305 256.805L83.4883 259.195C80.6875 259.723 78.1562 259.816 74.2773 259.828H72.5898ZM74.793 265.031C74.793 262.406 77.582 260.859 82.1289 260.883C86.6875 260.859 89.4766 262.406 89.4883 265.031C89.4766 267.668 86.6875 269.156 82.1289 269.156C77.582 269.156 74.793 267.668 74.793 265.031ZM77.7695 265.031C77.7695 266.25 79.3047 266.883 82.1289 266.859C84.9648 266.883 86.5 266.25 86.5117 265.031C86.5 263.812 84.9648 263.203 82.1289 263.203C79.3047 263.203 77.7695 263.812 77.7695 265.031ZM110.043 247.828V269.203H107.02V247.828H110.043ZM92.8164 256.922C92.8047 252.27 95.1836 249.328 98.4648 249.328C101.676 249.328 104.066 252.27 104.066 256.922C104.066 261.609 101.676 264.539 98.4648 264.539C95.1836 264.539 92.8047 261.609 92.8164 256.922ZM95.6992 256.922C95.6875 260.098 96.8008 261.832 98.4648 261.82C100.082 261.832 101.172 260.098 101.184 256.922C101.172 253.758 100.082 252.023 98.4648 252.023C96.8008 252.023 95.6875 253.758 95.6992 256.922ZM132.426 257.391V259.617H112.902V257.391H132.426ZM115.129 262.734V260.672H130.082V265.711H118.129V266.93H130.715V268.969H115.152V263.812H127.129V262.734H115.129ZM115.293 250.242V248.203H130.059V253.219H118.316V254.367H130.434V256.383H115.34V251.32H127.059V250.242H115.293ZM145.082 249.328C147.004 249.328 148.598 250.371 149.57 252.211H154.246V247.828H157.199V269.203H154.246V261.211H149.793C148.844 263.32 147.145 264.539 145.082 264.539C141.848 264.539 139.527 261.609 139.551 256.922C139.527 252.27 141.848 249.328 145.082 249.328ZM142.41 256.922C142.398 260.098 143.488 261.832 145.082 261.82C146.688 261.832 147.754 260.098 147.754 256.922C147.754 253.758 146.688 252.023 145.082 252.023C143.488 252.023 142.398 253.758 142.41 256.922ZM150.402 254.625C150.543 255.328 150.613 256.102 150.613 256.922C150.613 257.59 150.566 258.223 150.473 258.82H154.246V254.625H150.402ZM168.238 252.656C168.227 256.57 170.008 260.496 173.629 262.031L171.871 264.422C169.434 263.32 167.746 261.188 166.773 258.551C165.812 261.434 164.066 263.754 161.465 264.938L159.66 262.453C163.387 260.883 165.203 256.793 165.215 252.656V249.469H168.238V252.656ZM174.777 269.203V247.828H177.801V269.203H174.777ZM190.129 249.305C190.129 250.805 189.941 252.164 189.543 253.406H191.77V248.25H194.582V259.688H191.77V255.773H188.43C187.129 257.789 185.066 259.371 182.16 260.578L180.707 258.375C184.621 256.852 186.566 254.66 187.012 251.695H181.785V249.305H190.129ZM181.645 266.812C184.469 265.863 185.711 263.707 185.723 261.633V260.625H188.559V261.633C188.559 263.344 189.285 265.113 191.008 266.297C192.766 265.031 193.527 263.168 193.527 261.633V260.625H196.48V261.633C196.469 263.824 197.664 265.945 200.512 266.812L199.059 268.992C197.008 268.301 195.672 266.977 194.934 265.312C194.242 266.965 193 268.395 191.066 269.156C189.074 268.441 187.832 267.035 187.141 265.383C186.402 266.977 185.09 268.289 183.145 268.992L181.645 266.812ZM196.176 259.969V247.852H199.012V259.969H196.176ZM206.652 260.625V262.43H215.441V260.625H218.418V268.922H203.699V260.625H206.652ZM201.426 259.547V257.133H220.879V259.547H201.426ZM202.387 253.852C207.145 253.277 209.605 250.957 209.629 248.766V248.039H212.699V248.766C212.699 250.898 215.148 253.312 219.918 253.852L218.863 256.195C215.195 255.727 212.523 254.203 211.152 252.141C209.77 254.203 207.098 255.727 203.465 256.195L202.387 253.852ZM206.652 266.578H215.441V264.703H206.652V266.578ZM240.098 247.828V269.156H237.121V247.828H240.098ZM223.316 263.883V249.867H226.27V261.34C229.152 261.293 232.246 261.023 235.387 260.414L235.762 262.875C232.023 263.66 228.484 263.895 225.191 263.883H223.316ZM259.996 247.828V256.195H262.832V258.656H259.996V269.156H256.996V247.828H259.996ZM242.488 262.969C245.395 259.816 246.238 256.699 246.426 252.445H243.426V250.008H249.285C249.262 255.867 248.652 260.438 244.832 264.633L242.488 262.969ZM248.512 264.352C251.406 260.789 252.203 257.133 252.367 252.445H249.988V250.008H255.191C255.18 256.09 254.652 261.375 250.879 266.016L248.512 264.352ZM267.379 261.656C267.391 258.738 268.176 257.848 269.582 256.969C270.59 256.312 271.375 255.586 271.363 254.508C271.375 253.336 270.461 252.574 269.324 252.562C268.234 252.574 267.215 253.301 267.168 254.672H263.84C263.898 251.379 266.348 249.797 269.348 249.797C272.617 249.797 274.926 251.496 274.926 254.391C274.926 256.324 273.93 257.543 272.395 258.469C271.07 259.254 270.484 260.016 270.473 261.656V261.914H267.379V261.656ZM267.027 265.242C267.004 264.164 267.895 263.285 268.996 263.297C270.039 263.285 270.941 264.164 270.941 265.242C270.941 266.332 270.039 267.211 268.996 267.211C267.895 267.211 267.004 266.332 267.027 265.242Z" fill="black"/>
<defs>
<filter id="filter0_f_1443_4043" x="35.3242" y="51.9707" width="290.77" height="191.107" filterUnits="userSpaceOnUse" color-interpolation-filters="sRGB">
<feFlood flood-opacity="0" result="BackgroundImageFix"/>
<feBlend mode="normal" in="SourceGraphic" in2="BackgroundImageFix" result="shape"/>
<feGaussianBlur stdDeviation="20" result="effect1_foregroundBlur_1443_4043"/>
</filter>
<filter id="filter1_f_1443_4043" x="0.371094" y="0.277344" width="215.172" height="173.518" filterUnits="userSpaceOnUse" color-interpolation-filters="sRGB">
<feFlood flood-opacity="0" result="BackgroundImageFix"/>
<feBlend mode="normal" in="SourceGraphic" in2="BackgroundImageFix" result="shape"/>
<feGaussianBlur stdDeviation="20" result="effect1_foregroundBlur_1443_4043"/>
</filter>
<radialGradient id="paint0_radial_1443_4043" cx="0" cy="0" r="1" gradientUnits="userSpaceOnUse" gradientTransform="translate(180.71 147.525) rotate(-13.6086) scale(107.713 50.8586)">
<stop stop-color="#AEC5E7" stop-opacity="0.6"/>
<stop offset="1" stop-color="#AEC5E7" stop-opacity="0"/>
</radialGradient>
<radialGradient id="paint1_radial_1443_4043" cx="0" cy="0" r="1" gradientUnits="userSpaceOnUse" gradientTransform="translate(107.956 87.036) rotate(16.4416) scale(69.2267 44.2619)">
<stop stop-color="#AEC5E7" stop-opacity="0.6"/>
<stop offset="1" stop-color="#AEC5E7" stop-opacity="0"/>
</radialGradient>
</defs>
</svg>
