<svg width="174" height="159" viewBox="0 0 174 159" fill="none" xmlns="http://www.w3.org/2000/svg">
<g id="Group 675">
<g id="Group 614">
<path id="Ellipse 560" d="M21.4918 106.24C21.4918 77.2266 45.0118 53.7066 74.0252 53.7066C103.039 53.7066 126.559 77.2266 126.559 106.24C126.559 135.253 103.039 158.773 74.0252 158.773C45.0118 158.773 21.4918 135.253 21.4918 106.24Z" fill="white"/>
<path id="Ellipse 561" d="M31.8391 48.4C31.8391 25.1014 50.7264 6.2141 74.025 6.2141C97.3237 6.2141 116.211 25.1014 116.211 48.4C116.211 71.6987 97.3237 90.5859 74.025 90.5859C50.7264 90.5859 31.8391 71.6987 31.8391 48.4Z" fill="white"/>
<g id="Group">
<path id="Vector" d="M60.3576 40.9022C60.3576 47.0207 55.3981 51.9802 49.2772 51.9802C43.1587 51.9802 38.1992 47.0207 38.1992 40.9022C38.1992 34.7837 43.1587 29.8242 49.2772 29.8242C55.3981 29.8219 60.3576 34.7813 60.3576 40.9022Z" fill="#AEC5E7"/>
<path id="Vector_2" d="M49.2791 52.2397C43.026 52.2397 37.9414 47.1528 37.9414 40.9021C37.9414 34.649 43.0284 29.5645 49.2791 29.5645C55.5321 29.5645 60.6167 34.6514 60.6167 40.9021C60.6191 47.1528 55.5321 52.2397 49.2791 52.2397ZM49.2791 30.0814C43.314 30.0814 38.4607 34.9347 38.4607 40.8997C38.4607 46.8648 43.314 51.7181 49.2791 51.7181C55.2441 51.7181 60.0997 46.8648 60.0997 40.8997C60.0997 34.9347 55.2465 30.0814 49.2791 30.0814Z" fill="white"/>
</g>
<g id="Group_2">
<path id="Vector_3" d="M75.4595 90.5265C75.4595 91.3523 74.7901 92.0217 73.964 92.0217C73.1381 92.0217 72.4688 91.3523 72.4688 90.5265C72.4688 89.7006 73.1381 89.0313 73.964 89.0313C74.7901 89.0309 75.4595 89.7003 75.4595 90.5265Z" fill="#002E6E"/>
<path id="Vector_4" d="M73.9638 92.0566C73.1199 92.0566 72.4336 91.37 72.4336 90.5263C72.4336 89.6824 73.1202 88.9961 73.9638 88.9961C74.8078 88.9961 75.4941 89.6827 75.4941 90.5263C75.4944 91.37 74.8078 92.0566 73.9638 92.0566ZM73.9638 89.0659C73.1587 89.0659 72.5037 89.7209 72.5037 90.526C72.5037 91.3311 73.1587 91.9862 73.9638 91.9862C74.769 91.9862 75.4243 91.3311 75.4243 90.526C75.4243 89.7209 74.7693 89.0659 73.9638 89.0659Z" fill="white"/>
</g>
<g id="Group_3">
<path id="Vector_5" d="M75.4595 100.872C75.4595 101.698 74.7901 102.367 73.964 102.367C73.1381 102.367 72.4688 101.698 72.4688 100.872C72.4688 100.046 73.1381 99.377 73.964 99.377C74.7901 99.3766 75.4595 100.046 75.4595 100.872Z" fill="#002E6E"/>
<path id="Vector_6" d="M73.9638 102.402C73.1199 102.402 72.4336 101.716 72.4336 100.872C72.4336 100.028 73.1202 99.3418 73.9638 99.3418C74.8078 99.3418 75.4941 100.028 75.4941 100.872C75.4944 101.716 74.8078 102.402 73.9638 102.402ZM73.9638 99.4116C73.1587 99.4116 72.5037 100.067 72.5037 100.872C72.5037 101.677 73.1587 102.332 73.9638 102.332C74.769 102.332 75.4243 101.677 75.4243 100.872C75.4243 100.067 74.7693 99.4116 73.9638 99.4116Z" fill="white"/>
</g>
<g id="Group_4">
<path id="Vector_7" d="M75.7251 111.22C75.7251 112.046 75.0557 112.715 74.2296 112.715C73.4038 112.715 72.7344 112.046 72.7344 111.22C72.7344 110.394 73.4038 109.725 74.2296 109.725C75.0557 109.724 75.7251 110.394 75.7251 111.22Z" fill="#002E6E"/>
<path id="Vector_8" d="M74.2295 112.75C73.3855 112.75 72.6992 112.063 72.6992 111.22C72.6992 110.376 73.3858 109.689 74.2295 109.689C75.0735 109.689 75.7597 110.376 75.7597 111.22C75.76 112.063 75.0735 112.75 74.2295 112.75ZM74.2295 109.759C73.4244 109.759 72.7693 110.414 72.7693 111.219C72.7693 112.025 73.4244 112.68 74.2295 112.68C75.0346 112.68 75.69 112.025 75.69 111.219C75.69 110.414 75.0349 109.759 74.2295 109.759Z" fill="white"/>
</g>
<g id="Group_5">
<path id="Vector_9" d="M104.666 40.6366C104.666 46.7551 99.7043 51.7146 93.5858 51.7146C87.4673 51.7146 82.5078 46.7551 82.5078 40.6366C82.5078 34.5181 87.4673 29.5586 93.5858 29.5586C99.7043 29.5562 104.666 34.5157 104.666 40.6366Z" fill="#AEC5E7"/>
<path id="Vector_10" d="M93.5877 51.9741C87.337 51.9741 82.25 46.8872 82.25 40.6365C82.25 34.3834 87.337 29.2988 93.5877 29.2988C99.8407 29.2988 104.928 34.3858 104.928 40.6365C104.928 46.8872 99.8407 51.9741 93.5877 51.9741ZM93.5877 29.8158C87.6226 29.8158 82.7693 34.669 82.7693 40.6341C82.7693 46.5992 87.6226 51.4524 93.5877 51.4524C99.5527 51.4524 104.408 46.5992 104.408 40.6341C104.408 34.669 99.5551 29.8158 93.5877 29.8158Z" fill="white"/>
</g>
<g id="Group_6">
<g id="Group_7">
<path id="Vector_11" d="M65.3763 30.3634C65.2249 30.6538 65.0599 30.9211 64.9372 31.2279C64.7722 31.6425 64.8076 32.1157 64.9017 32.5412C65.0722 33.3116 66.1235 33.2012 66.3486 32.5412C66.5326 32.0011 66.7645 31.4802 66.9486 30.9416C66.4658 30.8093 65.9845 30.6757 65.5017 30.5434C65.3203 31.1257 65.2753 31.7352 65.2753 32.3421C65.2753 32.6762 65.5044 32.9762 65.8263 33.0648C66.1208 33.1453 66.5422 33.0239 66.6731 32.7198C66.9308 32.1211 67.029 31.0861 66.4099 30.662C66.0976 30.4479 65.5454 30.5761 65.3831 30.9307C65.3108 31.0888 65.2863 31.1652 65.2753 31.3411C65.2494 31.7502 65.6354 32.0911 66.0254 32.0911C66.4536 32.0911 66.7495 31.7489 66.7754 31.3411C66.7754 31.3329 66.7767 31.3261 66.7767 31.3179C66.7427 31.4448 66.7086 31.5702 66.6745 31.697C66.6758 31.6943 66.6772 31.6916 66.6786 31.6889C66.3363 31.7789 65.994 31.8689 65.6517 31.9575C65.6544 31.9589 65.6558 31.9602 65.6572 31.9616C65.5672 31.8716 65.4772 31.7816 65.3885 31.6929C65.2767 31.4611 65.3313 31.5566 65.349 31.6384C65.3885 31.8198 65.334 31.4611 65.3558 31.6861C65.3626 31.7611 65.3626 31.8361 65.3626 31.9111C65.3558 32.0039 65.3572 32.0134 65.3667 31.9398C65.3394 32.027 65.3435 32.0352 65.3776 31.963C65.844 32.0898 66.309 32.2152 66.7754 32.3421C66.7754 31.8593 66.804 31.4052 66.9486 30.9416C67.0699 30.5516 66.8081 30.1247 66.4249 30.0184C66.0131 29.9052 65.634 30.1561 65.5017 30.542C65.3176 31.082 65.0858 31.6029 64.9017 32.1416C65.3844 32.1416 65.8658 32.1416 66.3486 32.1416C66.324 32.0325 66.3199 31.9452 66.324 31.832C66.3213 31.907 66.4195 31.5525 66.369 31.6657C66.4549 31.4761 66.5776 31.3043 66.6731 31.1202C67.119 30.2638 65.8249 29.5056 65.3763 30.3634Z" fill="#002E6E"/>
</g>
</g>
<g id="Group_8">
<g id="Group_9">
<path id="Vector_12" d="M73.0739 30.3447C73.0739 30.3842 73.0725 30.4237 73.0698 30.4633C73.0589 30.6542 73.0998 30.2996 73.0671 30.4756C73.0507 30.5642 73.0248 30.6515 73.0003 30.7374C72.9334 30.9747 72.9103 31.1969 72.9539 31.4397C73.0616 32.0424 73.7216 32.2961 74.2248 32.4679C74.6912 32.6274 75.174 32.2101 75.174 31.7451C75.174 31.2788 75.174 30.8124 75.174 30.3447C74.683 30.4115 74.1921 30.4769 73.7012 30.5437C73.768 31.0101 73.8348 31.4765 73.9016 31.9442C73.948 32.2688 74.323 32.4952 74.6244 32.4952C74.9639 32.4952 75.2517 32.2647 75.3471 31.9442C75.4385 31.6415 75.478 31.3251 75.4535 31.0101C75.4426 30.8656 75.418 30.721 75.3962 30.5778C75.388 30.5287 75.3812 30.4797 75.373 30.4306C75.3976 30.5887 75.3744 30.361 75.3744 30.3447C75.3676 30.106 75.2421 29.7978 75.0035 29.6969C74.6421 29.5442 74.3367 29.5005 73.978 29.6901C73.8785 29.7419 73.7885 29.8265 73.7189 29.9151C73.6712 29.9737 73.6248 30.0351 73.5798 30.0965C73.573 30.106 73.5662 30.1156 73.5594 30.1251C73.6357 29.9956 73.7503 29.9083 73.9044 29.8633C74.038 29.8633 74.1703 29.8633 74.3026 29.8633C74.3871 29.9137 74.4703 29.9642 74.5548 30.0146C74.2439 29.7501 73.8007 29.7078 73.4939 30.0146C73.2225 30.286 73.1816 30.811 73.4939 31.0756C73.7966 31.3319 74.1607 31.4219 74.5248 31.2174C74.6748 31.1329 74.7526 31.0142 74.8549 30.8819C74.9394 30.7715 74.7321 31.0265 74.8289 30.9174C74.6817 31.0851 74.4321 31.0715 74.2467 30.9924C74.1226 30.7769 73.9985 30.5601 73.8757 30.3447C73.8826 30.5819 73.9262 30.8178 73.9616 31.0524C73.9439 30.9392 73.963 31.231 73.963 31.2624C73.9616 31.3606 73.9357 31.4342 73.9016 31.546C74.3844 31.546 74.8658 31.546 75.3485 31.546C75.2817 31.0797 75.2149 30.6133 75.148 30.1456C75.1017 29.821 74.7267 29.5946 74.4253 29.5946C74.0162 29.5946 73.6753 29.9356 73.6753 30.3447C73.6753 30.811 73.6753 31.2774 73.6753 31.7451C73.9916 31.5038 74.308 31.2624 74.6244 31.0224C74.5971 31.0128 74.2985 30.8956 74.4253 30.9528C74.3571 30.9228 74.293 30.8847 74.2303 30.8438C74.3285 30.9092 74.3435 30.9242 74.4144 31.1001C74.3953 31.0265 74.398 31.0633 74.4253 31.2119C74.4198 31.1492 74.4553 31.0347 74.4103 31.2829C74.4676 30.9665 74.5685 30.6747 74.5739 30.346C74.593 29.3778 73.093 29.3792 73.0739 30.3447Z" fill="#002E6E"/>
</g>
</g>
<path id="Vector 49" d="M112.551 63.109C89.2433 70.5441 52.1447 65.5931 37.46 62.8345C34.4908 62.2767 31.3086 64.7657 31.3086 67.7869V71.672C31.3086 72.6146 31.6059 73.5425 32.2543 74.2268C45.7971 88.5208 91.3824 81.5297 115.716 75.4818C117.584 75.0174 118.864 73.3332 118.864 71.4078V67.4124C118.864 64.2717 115.543 62.1545 112.551 63.109Z" fill="#002E6E"/>
<path id="Vector 50" d="M85.2409 120.015C88.1806 108.615 90.4403 86.9717 89.5865 74.7886C89.4878 73.3806 90.3413 72.0712 91.69 71.655L103.695 67.9503C105.033 67.5373 106.474 68.1268 106.9 69.461C110.041 79.3036 110.328 104.7 110.008 119.239C109.973 120.816 108.683 122.084 107.116 122.267C102.491 122.807 95.3829 124.332 89.9413 125.545C87.2987 126.134 84.5649 122.637 85.2409 120.015Z" fill="#002E6E"/>
<path id="Vector 51" d="M71.2471 33.4984L71.5996 35.8486C71.7185 36.6406 71.1107 37.3552 70.3099 37.3652L69.3844 37.3768C68.5222 37.3875 67.881 36.5826 68.0843 35.7447L68.6574 33.3829C68.9992 31.9743 71.0321 32.065 71.2471 33.4984Z" fill="#FF8800"/>
<g id="Group 612">
<path id="Vector 49 (Stroke)" fill-rule="evenodd" clip-rule="evenodd" d="M109.564 2.1344C109.767 2.34611 109.759 2.68201 109.548 2.88467L94.0265 17.7426C93.8148 17.9453 93.4789 17.9379 93.2762 17.7262C93.0736 17.5145 93.0809 17.1786 93.2926 16.976L108.814 2.11802C109.026 1.91537 109.361 1.9227 109.564 2.1344Z" fill="#744108"/>
<path id="Vector 50 (Stroke)" fill-rule="evenodd" clip-rule="evenodd" d="M105.195 0.125158C104.908 0.188365 104.728 0.471589 104.791 0.757757L105.815 5.39224C105.878 5.67841 106.161 5.85916 106.447 5.79595C106.733 5.73274 106.914 5.44952 106.851 5.16335L105.827 0.528862C105.764 0.242694 105.481 0.06195 105.195 0.125158Z" fill="#744108"/>
<path id="Vector 51 (Stroke)" fill-rule="evenodd" clip-rule="evenodd" d="M111.545 4.03234C111.609 4.31841 111.429 4.60191 111.143 4.66556L106.51 5.69624C106.224 5.75988 105.94 5.57957 105.877 5.2935C105.813 5.00743 105.993 4.72393 106.279 4.66029L110.912 3.6296C111.198 3.56596 111.482 3.74627 111.545 4.03234Z" fill="#744108"/>
</g>
<g id="Group 613">
<path id="Vector 49 (Stroke)_2" fill-rule="evenodd" clip-rule="evenodd" d="M39.4046 2.1344C39.202 2.34611 39.2093 2.68201 39.421 2.88467L54.9423 17.7426C55.154 17.9453 55.4899 17.9379 55.6925 17.7262C55.8952 17.5145 55.8878 17.1786 55.6761 16.976L40.1549 2.11802C39.9432 1.91537 39.6073 1.9227 39.4046 2.1344Z" fill="#744108"/>
<path id="Vector 50 (Stroke)_2" fill-rule="evenodd" clip-rule="evenodd" d="M43.7741 0.125158C44.0603 0.188365 44.241 0.471589 44.1778 0.757757L43.1542 5.39224C43.091 5.67841 42.8078 5.85916 42.5216 5.79595C42.2354 5.73274 42.0547 5.44952 42.1179 5.16335L43.1415 0.528862C43.2047 0.242694 43.488 0.06195 43.7741 0.125158Z" fill="#744108"/>
<path id="Vector 51 (Stroke)_2" fill-rule="evenodd" clip-rule="evenodd" d="M37.4233 4.03234C37.3597 4.31841 37.54 4.60191 37.8261 4.66556L42.459 5.69624C42.7451 5.75988 43.0286 5.57957 43.0922 5.2935C43.1559 5.00743 42.9756 4.72393 42.6895 4.66029L38.0566 3.6296C37.7705 3.56596 37.487 3.74627 37.4233 4.03234Z" fill="#744108"/>
</g>
</g>
<path id="Ellipse 562" d="M158.661 145.66C158.661 152.254 149.752 157.6 138.762 157.6C127.772 157.6 118.863 152.254 118.863 145.66C118.863 139.066 127.772 133.721 138.762 133.721C149.752 133.721 158.661 139.066 158.661 145.66Z" fill="white"/>
<path id="Ellipse 563" d="M173.255 152.161C173.255 155.751 168.444 158.661 162.509 158.661C156.575 158.661 151.764 155.751 151.764 152.161C151.764 148.57 156.575 145.66 162.509 145.66C168.444 145.66 173.255 148.57 173.255 152.161Z" fill="white"/>
<path id="Ellipse 564" d="M21.4909 152.161C21.4909 155.751 16.68 158.661 10.7455 158.661C4.81091 158.661 0 155.751 0 152.161C0 148.57 4.81091 145.66 10.7455 145.66C16.68 145.66 21.4909 148.57 21.4909 152.161Z" fill="white"/>
</g>
</svg>
