<svg width="295" height="348" viewBox="0 0 295 348" fill="none" xmlns="http://www.w3.org/2000/svg">
<g filter="url(#filter0_f_1369_3970)">
<path d="M253.084 84.8001C261.773 120.588 221.503 161.053 163.14 175.182C104.777 189.311 50.4203 171.753 41.7319 135.965C33.0434 100.178 73.3129 59.7123 131.676 45.5834C190.04 31.4546 244.396 49.0125 253.084 84.8001Z" fill="url(#paint0_radial_1369_3970)"/>
</g>
<path d="M51 252.699C51 204.927 89.7274 166.199 137.5 166.199C185.273 166.199 224 204.927 224 252.699C224 300.472 185.273 339.199 137.5 339.199C89.7274 339.199 51 300.472 51 252.699Z" fill="white"/>
<path d="M68.0328 157.462C68.0328 119.099 99.1321 87.9996 137.495 87.9996C175.858 87.9996 206.957 119.099 206.957 157.462C206.957 195.825 175.858 226.924 137.495 226.924C99.132 226.924 68.0328 195.825 68.0328 157.462Z" fill="white"/>
<path d="M114.989 145.112C114.989 155.186 106.823 163.353 96.7446 163.353C86.6701 163.353 78.5039 155.186 78.5039 145.112C78.5039 135.037 86.6701 126.871 96.7446 126.871C106.823 126.867 114.989 135.033 114.989 145.112Z" fill="#AEC5E7"/>
<path d="M96.7522 163.78C86.4561 163.78 78.084 155.404 78.084 145.112C78.084 134.816 86.46 126.443 96.7522 126.443C107.048 126.443 115.42 134.819 115.42 145.112C115.424 155.404 107.048 163.78 96.7522 163.78ZM96.7522 127.295C86.9303 127.295 78.9391 135.286 78.9391 145.108C78.9391 154.93 86.9303 162.921 96.7522 162.921C106.574 162.921 114.569 154.93 114.569 145.108C114.569 135.286 106.578 127.295 96.7522 127.295Z" fill="white"/>
<path d="M187.946 144.674C187.946 154.749 179.776 162.915 169.702 162.915C159.627 162.915 151.461 154.749 151.461 144.674C151.461 134.6 159.627 126.434 169.702 126.434C179.776 126.43 187.946 134.596 187.946 144.674Z" fill="#AEC5E7"/>
<path d="M169.709 163.342C159.417 163.342 151.041 154.966 151.041 144.674C151.041 134.378 159.417 126.006 169.709 126.006C180.005 126.006 188.381 134.382 188.381 144.674C188.381 154.966 180.005 163.342 169.709 163.342ZM169.709 126.857C159.887 126.857 151.896 134.848 151.896 144.67C151.896 154.492 159.887 162.483 169.709 162.483C179.531 162.483 187.526 154.492 187.526 144.67C187.526 134.848 179.535 126.857 169.709 126.857Z" fill="white"/>
<path d="M118.67 124.416C118.275 125.174 117.845 125.871 117.524 126.672C117.094 127.754 117.186 128.989 117.432 130.099C117.877 132.11 120.621 131.822 121.208 130.099C121.688 128.69 122.293 127.33 122.774 125.925C121.514 125.579 120.258 125.231 118.998 124.885C118.525 126.405 118.407 127.996 118.407 129.58C118.407 130.452 119.005 131.235 119.845 131.466C120.614 131.676 121.713 131.359 122.055 130.566C122.728 129.003 122.984 126.302 121.368 125.195C120.553 124.636 119.112 124.971 118.688 125.896C118.5 126.309 118.436 126.508 118.407 126.967C118.339 128.035 119.347 128.925 120.365 128.925C121.482 128.925 122.254 128.032 122.322 126.967C122.322 126.946 122.326 126.928 122.326 126.907C122.237 127.238 122.148 127.565 122.059 127.896C122.062 127.889 122.066 127.882 122.069 127.875C121.176 128.11 120.283 128.345 119.389 128.576C119.396 128.58 119.4 128.583 119.404 128.587C119.169 128.352 118.934 128.117 118.702 127.886C118.411 127.281 118.553 127.53 118.599 127.743C118.702 128.217 118.56 127.281 118.617 127.868C118.635 128.064 118.635 128.259 118.635 128.455C118.617 128.697 118.621 128.722 118.646 128.53C118.574 128.758 118.585 128.779 118.674 128.59C119.891 128.921 121.105 129.249 122.322 129.58C122.322 128.32 122.397 127.135 122.774 125.925C123.091 124.907 122.407 123.793 121.407 123.515C120.332 123.22 119.343 123.875 118.998 124.882C118.517 126.291 117.912 127.651 117.432 129.057C118.692 129.057 119.948 129.057 121.208 129.057C121.144 128.772 121.133 128.544 121.144 128.249C121.137 128.444 121.393 127.519 121.261 127.814C121.486 127.32 121.806 126.871 122.055 126.391C123.219 124.156 119.841 122.177 118.67 124.416Z" fill="#002E6E"/>
<path d="M138.75 124.36C138.75 124.464 138.747 124.567 138.74 124.67C138.711 125.168 138.818 124.243 138.732 124.702C138.69 124.933 138.622 125.161 138.558 125.385C138.384 126.005 138.323 126.585 138.437 127.218C138.718 128.791 140.441 129.453 141.754 129.902C142.971 130.318 144.231 129.229 144.231 128.016C144.231 126.798 144.231 125.581 144.231 124.36C142.95 124.535 141.669 124.706 140.387 124.88C140.562 126.097 140.736 127.314 140.91 128.535C141.031 129.382 142.01 129.973 142.797 129.973C143.683 129.973 144.434 129.371 144.683 128.535C144.921 127.745 145.025 126.919 144.961 126.097C144.932 125.72 144.868 125.343 144.811 124.969C144.79 124.841 144.772 124.713 144.751 124.585C144.815 124.997 144.754 124.403 144.754 124.36C144.736 123.738 144.409 122.933 143.786 122.67C142.843 122.271 142.046 122.157 141.11 122.652C140.85 122.787 140.615 123.008 140.434 123.239C140.309 123.392 140.188 123.553 140.071 123.713C140.053 123.738 140.035 123.763 140.017 123.787C140.216 123.449 140.515 123.222 140.918 123.104C141.266 123.104 141.612 123.104 141.957 123.104C142.177 123.236 142.395 123.367 142.615 123.499C141.804 122.809 140.647 122.698 139.846 123.499C139.138 124.207 139.031 125.578 139.846 126.268C140.636 126.937 141.587 127.172 142.537 126.638C142.928 126.418 143.131 126.108 143.398 125.763C143.619 125.474 143.078 126.14 143.331 125.855C142.946 126.293 142.295 126.257 141.811 126.051C141.487 125.489 141.163 124.923 140.843 124.36C140.861 124.98 140.975 125.595 141.067 126.208C141.021 125.912 141.071 126.674 141.071 126.756C141.067 127.012 140.999 127.204 140.91 127.496C142.17 127.496 143.427 127.496 144.687 127.496C144.512 126.279 144.338 125.062 144.163 123.841C144.042 122.994 143.064 122.403 142.277 122.403C141.209 122.403 140.32 123.293 140.32 124.36C140.32 125.578 140.32 126.795 140.32 128.016C141.145 127.386 141.971 126.756 142.797 126.129C142.726 126.104 141.946 125.798 142.277 125.948C142.099 125.869 141.932 125.77 141.768 125.663C142.024 125.834 142.064 125.873 142.249 126.332C142.199 126.14 142.206 126.236 142.277 126.624C142.263 126.46 142.355 126.161 142.238 126.809C142.387 125.983 142.651 125.222 142.665 124.364C142.715 121.837 138.8 121.841 138.75 124.36Z" fill="#002E6E"/>
<path d="M133.099 129.726L133.627 133.246C133.805 134.432 132.895 135.502 131.695 135.517L130.309 135.535C129.017 135.551 128.057 134.345 128.362 133.09L129.22 129.553C129.732 127.443 132.777 127.579 133.099 129.726Z" fill="#FF8800"/>
<path d="M123.879 242.828V264.203H120.855V242.828H123.879ZM106.652 251.922C106.641 247.27 109.02 244.328 112.301 244.328C115.512 244.328 117.902 247.27 117.902 251.922C117.902 256.609 115.512 259.539 112.301 259.539C109.02 259.539 106.641 256.609 106.652 251.922ZM109.535 251.922C109.523 255.098 110.637 256.832 112.301 256.82C113.918 256.832 115.008 255.098 115.02 251.922C115.008 248.758 113.918 247.023 112.301 247.023C110.637 247.023 109.523 248.758 109.535 251.922ZM144.621 242.828V264.203H141.598V242.828H144.621ZM127.395 251.922C127.383 247.27 129.762 244.328 133.043 244.328C136.254 244.328 138.645 247.27 138.645 251.922C138.645 256.609 136.254 259.539 133.043 259.539C129.762 259.539 127.383 256.609 127.395 251.922ZM130.277 251.922C130.266 255.098 131.379 256.832 133.043 256.82C134.66 256.832 135.75 255.098 135.762 251.922C135.75 248.758 134.66 247.023 133.043 247.023C131.379 247.023 130.266 248.758 130.277 251.922ZM167.004 253.586V255.953H147.48V253.586H167.004ZM149.871 245.523V243.227H164.637V248.922H152.895V250.164H165.035V252.438H149.918V246.766H161.637V245.523H149.871ZM149.988 263.922V257.266H164.73V263.922H149.988ZM152.918 261.531H161.754V259.633H152.918V261.531Z" fill="#002E6E"/>
<defs>
<filter id="filter0_f_1369_3970" x="0.552734" y="0.697266" width="293.711" height="219.37" filterUnits="userSpaceOnUse" color-interpolation-filters="sRGB">
<feFlood flood-opacity="0" result="BackgroundImageFix"/>
<feBlend mode="normal" in="SourceGraphic" in2="BackgroundImageFix" result="shape"/>
<feGaussianBlur stdDeviation="20" result="effect1_foregroundBlur_1369_3970"/>
</filter>
<radialGradient id="paint0_radial_1369_3970" cx="0" cy="0" r="1" gradientUnits="userSpaceOnUse" gradientTransform="translate(147.408 110.383) rotate(-13.6086) scale(108.729 66.6816)">
<stop stop-color="#AEC5E7" stop-opacity="0.6"/>
<stop offset="1" stop-color="#AEC5E7" stop-opacity="0"/>
</radialGradient>
</defs>
</svg>
