<svg width="33" height="33" viewBox="0 0 33 33" fill="none" xmlns="http://www.w3.org/2000/svg">
<g id="ic_addball_32">
<path id="Vector" d="M16.5 3.5C13.9288 3.5 11.4154 4.26244 9.27759 5.6909C7.13975 7.11935 5.47351 9.14968 4.48957 11.5251C3.50563 13.9006 3.24819 16.5144 3.7498 19.0362C4.25141 21.5579 5.48953 23.8743 7.30762 25.6924C9.1257 27.5105 11.4421 28.7486 13.9638 29.2502C16.4856 29.7518 19.0995 29.4944 21.4749 28.5104C23.8503 27.5265 25.8807 25.8603 27.3091 23.7224C28.7376 21.5846 29.5 19.0712 29.5 16.5C29.4957 13.0535 28.1247 9.7494 25.6876 7.31236C23.2506 4.87532 19.9465 3.5043 16.5 3.5ZM21.5 17.5H17.5V21.5C17.5 21.7652 17.3946 22.0196 17.2071 22.2071C17.0196 22.3946 16.7652 22.5 16.5 22.5C16.2348 22.5 15.9804 22.3946 15.7929 22.2071C15.6054 22.0196 15.5 21.7652 15.5 21.5V17.5H11.5C11.2348 17.5 10.9804 17.3946 10.7929 17.2071C10.6054 17.0196 10.5 16.7652 10.5 16.5C10.5 16.2348 10.6054 15.9804 10.7929 15.7929C10.9804 15.6054 11.2348 15.5 11.5 15.5H15.5V11.5C15.5 11.2348 15.6054 10.9804 15.7929 10.7929C15.9804 10.6054 16.2348 10.5 16.5 10.5C16.7652 10.5 17.0196 10.6054 17.2071 10.7929C17.3946 10.9804 17.5 11.2348 17.5 11.5V15.5H21.5C21.7652 15.5 22.0196 15.6054 22.2071 15.7929C22.3946 15.9804 22.5 16.2348 22.5 16.5C22.5 16.7652 22.3946 17.0196 22.2071 17.2071C22.0196 17.3946 21.7652 17.5 21.5 17.5Z" fill="white"/>
</g>
</svg>
