<svg width="64" height="64" viewBox="0 0 64 64" fill="none" xmlns="http://www.w3.org/2000/svg">
<path fill-rule="evenodd" clip-rule="evenodd" d="M54 30.0801C54 36.6243 51.2061 42.516 46.746 46.6274C46.7622 46.6567 46.7771 46.6869 46.7905 46.7181L50.5757 55.5232C50.8621 56.1893 50.3735 56.9311 49.6485 56.9311H14.0988C13.3974 56.9311 12.9098 56.2333 13.1511 55.5747L16.3761 46.7696L16.3847 46.7469C11.8486 42.6306 9 36.688 9 30.0801C9 17.6537 19.0736 7.58008 31.5 7.58008C43.9264 7.58008 54 17.6537 54 30.0801ZM31.5 50.572C42.8169 50.572 51.991 41.3978 51.991 30.0809C51.991 18.764 42.8169 9.58984 31.5 9.58984C20.1831 9.58984 11.0089 18.764 11.0089 30.0809C11.0089 41.3978 20.1831 50.572 31.5 50.572Z" fill="white"/>
<path d="M51.1875 30.0801C51.1875 40.9532 42.3731 49.7676 31.5 49.7676C20.6269 49.7676 11.8125 40.9532 11.8125 30.0801C11.8125 19.207 20.6269 10.3926 31.5 10.3926C42.3731 10.3926 51.1875 19.207 51.1875 30.0801Z" fill="white" fill-opacity="0.2"/>
</svg>
