<svg width="64" height="64" viewBox="0 0 64 64" fill="none" xmlns="http://www.w3.org/2000/svg">
<g id="ic_people_w">
<path id="Vector" d="M39.8261 46.2945C39.9951 46.5585 40.0909 46.8641 40.1035 47.179C40.1161 47.4939 40.045 47.8065 39.8977 48.0836C39.7503 48.3607 39.5323 48.5922 39.2665 48.7535C39.0008 48.9148 38.6972 49 38.3879 49H6.71706C6.40773 49 6.10415 48.9148 5.8384 48.7535C5.57265 48.5922 5.35459 48.3607 5.20727 48.0836C5.05994 47.8065 4.98883 47.4939 5.00143 47.179C5.01402 46.8641 5.10987 46.5585 5.27885 46.2945C7.69614 42.5033 11.2517 39.6101 15.415 38.0467C13.1135 36.4854 11.3661 34.211 10.4313 31.5596C9.49652 28.9083 9.42396 26.0208 10.2244 23.3242C11.0248 20.6276 12.6556 18.265 14.8758 16.5858C17.0959 14.9066 19.7875 14 22.5525 14C25.3174 14 28.009 14.9066 30.2292 16.5858C32.4493 18.265 34.0802 20.6276 34.8806 23.3242C35.681 26.0208 35.6084 28.9083 34.6736 31.5596C33.7388 34.211 31.9915 36.4854 29.6899 38.0467C33.8532 39.6101 37.4088 42.5033 39.8261 46.2945ZM58.6968 46.2617C56.2788 42.4865 52.7312 39.6057 48.5799 38.0467C51.297 36.1818 53.2145 33.332 53.9422 30.0774C54.6698 26.8228 54.1529 23.4079 52.4966 20.528C50.8403 17.648 48.1691 15.5194 45.0267 14.5754C41.8844 13.6314 38.5071 13.9429 35.5823 15.4467C35.4704 15.5055 35.3727 15.5887 35.2959 15.6903C35.2191 15.7919 35.1651 15.9095 35.1379 16.0347C35.1107 16.1599 35.1108 16.2897 35.1382 16.4148C35.1657 16.54 35.2198 16.6575 35.2968 16.759C37.4716 19.5231 38.7206 22.9242 38.8609 26.4641C39.0011 30.004 38.0251 33.4966 36.076 36.4303C35.95 36.6221 35.9035 36.8567 35.9465 37.0833C35.9895 37.3098 36.1186 37.5098 36.3057 37.6399C38.847 39.4471 41.0226 41.7365 42.7132 44.3829C43.3951 45.4468 43.6736 46.7273 43.4968 47.9852C43.4768 48.1103 43.4839 48.2383 43.5173 48.3604C43.5508 48.4825 43.6099 48.5957 43.6905 48.6922C43.7712 48.7888 43.8714 48.8663 43.9844 48.9194C44.0973 48.9725 44.2202 49 44.3447 49H57.2886C57.6667 49.0001 58.0343 48.8731 58.3344 48.6385C58.6344 48.404 58.8501 48.0752 58.9479 47.703C59.0076 47.4583 59.0161 47.2034 58.9728 46.9551C58.9296 46.7068 58.8355 46.4705 58.6968 46.2617Z" fill="white"/>
</g>
</svg>
