<svg width="1920" height="1080" viewBox="0 0 1920 1080" fill="none" xmlns="http://www.w3.org/2000/svg">
<rect width="1920" height="1080" fill="url(#paint0_linear_1407_3060)"/>
<mask id="mask0_1407_3060" style="mask-type:alpha" maskUnits="userSpaceOnUse" x="0" y="370" width="1920" height="710">
<rect y="370" width="1920" height="710" fill="#D9D9D9"/>
</mask>
<g mask="url(#mask0_1407_3060)">
<path d="M1003.32 524.91C1003.32 530.824 998.527 535.618 992.614 535.618C986.701 535.618 981.907 530.824 981.907 524.91C981.907 518.997 986.701 514.203 992.614 514.203C998.527 514.203 1003.32 518.997 1003.32 524.91Z" fill="white"/>
<path d="M587.881 637.123C587.881 643.037 583.087 647.83 577.174 647.83C571.26 647.83 566.467 643.037 566.467 637.123C566.467 631.21 571.26 626.416 577.174 626.416C583.087 626.416 587.881 631.21 587.881 637.123Z" fill="white"/>
<path d="M739.495 766.465C739.495 772.378 734.701 777.172 728.788 777.172C722.874 777.172 718.08 772.378 718.08 766.465C718.08 760.552 722.874 755.758 728.788 755.758C734.701 755.758 739.495 760.552 739.495 766.465Z" fill="white"/>
<path d="M1063.28 400.707C1063.28 406.621 1058.49 411.414 1052.57 411.414C1046.66 411.414 1041.87 406.621 1041.87 400.707C1041.87 394.794 1046.66 390 1052.57 390C1058.49 390 1063.28 394.794 1063.28 400.707Z" fill="white"/>
<path d="M1361.37 578.875C1361.37 584.789 1356.58 589.582 1350.66 589.582C1344.75 589.582 1339.95 584.789 1339.95 578.875C1339.95 572.962 1344.75 568.168 1350.66 568.168C1356.58 568.168 1361.37 572.962 1361.37 578.875Z" fill="white"/>
<path d="M1220.03 494.074C1220.03 499.988 1215.24 504.782 1209.33 504.782C1203.41 504.782 1198.62 499.988 1198.62 494.074C1198.62 488.161 1203.41 483.367 1209.33 483.367C1215.24 483.367 1220.03 488.161 1220.03 494.074Z" fill="white"/>
<path d="M1423.9 658.539C1423.9 664.453 1419.11 669.246 1413.19 669.246C1407.28 669.246 1402.49 664.453 1402.49 658.539C1402.49 652.626 1407.28 647.832 1413.19 647.832C1419.11 647.832 1423.9 652.626 1423.9 658.539Z" fill="white"/>
<path d="M808.021 410.987C808.021 416.9 803.228 421.694 797.314 421.694C791.401 421.694 786.607 416.9 786.607 410.987C786.607 405.073 791.401 400.279 797.314 400.279C803.228 400.279 808.021 405.073 808.021 410.987Z" fill="white"/>
<path d="M703.519 472.658C703.519 478.572 698.725 483.366 692.812 483.366C686.898 483.366 682.104 478.572 682.104 472.658C682.104 466.745 686.898 461.951 692.812 461.951C698.725 461.951 703.519 466.745 703.519 472.658Z" fill="white"/>
<path d="M843.998 557.459C843.998 563.373 839.204 568.166 833.29 568.166C827.377 568.166 822.583 563.373 822.583 557.459C822.583 551.546 827.377 546.752 833.29 546.752C839.204 546.752 843.998 551.546 843.998 557.459Z" fill="white"/>
<path d="M475.67 804.154C475.67 810.068 470.876 814.862 464.963 814.862C459.049 814.862 454.256 810.068 454.256 804.154C454.256 798.241 459.049 793.447 464.963 793.447C470.876 793.447 475.67 798.241 475.67 804.154Z" fill="white"/>
<path fill-rule="evenodd" clip-rule="evenodd" d="M-185 1246.93C56.9 978.519 476.466 801 953.542 801C1438.74 801 1864.45 984.612 2104.28 1260.71C1862.65 1634.56 1442.23 1882 964.035 1882C479.985 1882 55.14 1628.47 -185 1246.93Z" fill="#6CB257"/>
<path d="M1118.53 768.432C1118.53 760.972 1124.58 754.924 1132.04 754.924H1147.2C1154.66 754.924 1160.71 760.972 1160.71 768.432V811.39C1160.71 818.851 1154.66 824.899 1147.2 824.899H1132.04C1124.58 824.899 1118.53 818.851 1118.53 811.39V768.432Z" fill="#744108"/>
<path fill-rule="evenodd" clip-rule="evenodd" d="M1128.05 557.849C1134.58 551.384 1145.1 551.384 1151.63 557.849L1196.22 602.014C1206.85 612.543 1199.4 630.666 1184.44 630.666H1171.9L1210.98 669.533C1221.58 680.071 1214.11 698.16 1199.17 698.16H1195.25L1238.12 740.883C1248.71 751.427 1241.24 769.499 1226.3 769.499H1053.38C1038.44 769.499 1030.98 751.427 1041.56 740.883L1084.43 698.16H1080.51C1065.57 698.16 1058.1 680.071 1068.7 669.533L1107.78 630.666H1095.25C1080.28 630.666 1072.83 612.543 1083.46 602.014L1128.05 557.849Z" fill="#509D38"/>
<path d="M1174.12 576.621C1171.58 581.21 1163.32 581.503 1155.68 577.274C1148.03 573.046 1143.88 565.898 1146.42 561.309C1148.96 556.72 1157.22 556.428 1164.86 560.656C1172.51 564.884 1176.66 572.032 1174.12 576.621Z" fill="white"/>
<path d="M1183.82 587.89C1182.44 590.388 1177.97 590.563 1173.84 588.28C1169.71 585.996 1167.48 582.12 1168.86 579.622C1170.24 577.123 1174.71 576.949 1178.84 579.232C1182.97 581.515 1185.2 585.391 1183.82 587.89Z" fill="white"/>
<path d="M1103.31 641.033C1104.83 644.293 1101.65 648.978 1096.21 651.496C1090.78 654.015 1085.15 653.414 1083.64 650.155C1082.13 646.895 1085.31 642.21 1090.74 639.691C1096.17 637.172 1101.8 637.773 1103.31 641.033Z" fill="white"/>
<path d="M1082.32 658.435C1083.03 659.965 1082 661.949 1080.03 662.865C1078.05 663.781 1075.87 663.283 1075.16 661.752C1074.45 660.221 1075.48 658.238 1077.46 657.322C1079.43 656.406 1081.61 656.904 1082.32 658.435Z" fill="white"/>
<path d="M746.452 810.583C746.452 803.122 752.5 797.074 759.96 797.074H764.645C772.105 797.074 778.153 803.122 778.153 810.583V836.153C778.153 843.613 772.105 849.661 764.645 849.661H759.96C752.5 849.661 746.452 843.613 746.452 836.153V810.583Z" fill="#744108"/>
<path fill-rule="evenodd" clip-rule="evenodd" d="M750.681 651.868C757.209 645.403 767.727 645.403 774.255 651.868L797.651 675.039C808.118 685.406 801.051 703.136 786.549 703.679L808.779 725.787C817.823 734.782 813.711 749.276 803.02 753.33L829.194 779.411C839.775 789.954 832.308 808.026 817.371 808.026H707.565C692.627 808.026 685.161 789.954 695.742 779.411L721.916 753.33C711.224 749.276 707.112 734.782 716.157 725.787L738.386 703.679C723.884 703.136 716.817 685.406 727.285 675.039L750.681 651.868Z" fill="#448E2D"/>
<path d="M732.114 712.952C734.311 715.795 732.251 721.069 727.513 724.731C722.774 728.393 717.152 729.057 714.955 726.214C712.757 723.371 714.817 718.098 719.556 714.435C724.294 710.773 729.916 710.109 732.114 712.952Z" fill="white"/>
<path d="M711.42 765.394C712.604 766.595 712.307 768.809 710.756 770.338C709.205 771.867 706.987 772.133 705.803 770.931C704.618 769.73 704.915 767.516 706.466 765.987C708.017 764.458 710.235 764.192 711.42 765.394Z" fill="white"/>
<path d="M1183.23 809.838C1183.23 802.134 1189.28 795.889 1196.74 795.889H1209.96C1217.42 795.889 1223.47 802.134 1223.47 809.838V850.868C1223.47 858.572 1217.42 864.817 1209.96 864.817H1196.74C1189.28 864.817 1183.23 858.572 1183.23 850.868V809.838Z" fill="#86643C"/>
<path fill-rule="evenodd" clip-rule="evenodd" d="M1190.82 602.318C1197.35 595.641 1207.87 595.641 1214.4 602.318L1255.06 643.904C1265.69 654.776 1258.23 673.491 1243.27 673.491H1233.19L1269.14 710.413C1279.74 721.296 1272.28 739.975 1257.33 739.975H1255.46L1295.04 780.697C1305.62 791.585 1298.15 810.247 1283.22 810.247H1122C1107.06 810.247 1099.6 791.585 1110.18 780.697L1149.75 739.975H1147.88C1132.94 739.975 1125.48 721.296 1136.07 710.413L1172.03 673.491H1161.95C1146.98 673.491 1139.53 654.776 1150.16 643.904L1190.82 602.318Z" fill="#6CB257"/>
<path d="M1277.91 786.115C1277.91 791.515 1273.67 795.892 1268.44 795.892C1263.21 795.892 1258.97 791.515 1258.97 786.115C1258.97 780.715 1263.21 776.338 1268.44 776.338C1273.67 776.338 1277.91 780.715 1277.91 786.115Z" fill="#FF8800"/>
<path d="M1245.24 703.5C1245.24 708.899 1241 713.277 1235.77 713.277C1230.55 713.277 1226.31 708.899 1226.31 703.5C1226.31 698.1 1230.55 693.723 1235.77 693.723C1241 693.723 1245.24 698.1 1245.24 703.5Z" fill="#FF8800"/>
<path d="M1239.56 655.592C1239.56 660.991 1235.32 665.369 1230.09 665.369C1224.86 665.369 1220.63 660.991 1220.63 655.592C1220.63 650.192 1224.86 645.814 1230.09 645.814C1235.32 645.814 1239.56 650.192 1239.56 655.592Z" fill="#FFAE00"/>
<path d="M1187.01 708.875C1187.01 714.274 1182.77 718.652 1177.54 718.652C1172.31 718.652 1168.08 714.274 1168.08 708.875C1168.08 703.475 1172.31 699.098 1177.54 699.098C1182.77 699.098 1187.01 703.475 1187.01 708.875Z" fill="#FFAE00"/>
<path d="M1157.66 780.738C1157.66 786.138 1153.42 790.515 1148.19 790.515C1142.97 790.515 1138.73 786.138 1138.73 780.738C1138.73 775.338 1142.97 770.961 1148.19 770.961C1153.42 770.961 1157.66 775.338 1157.66 780.738Z" fill="#FFAE00"/>
<path d="M1226.31 761.181C1226.31 766.581 1222.07 770.958 1216.84 770.958C1211.61 770.958 1207.37 766.581 1207.37 761.181C1207.37 755.782 1211.61 751.404 1216.84 751.404C1222.07 751.404 1226.31 755.782 1226.31 761.181Z" fill="#E76E23"/>
<path d="M1196.48 633.103C1196.48 638.503 1192.24 642.88 1187.01 642.88C1181.78 642.88 1177.54 638.503 1177.54 633.103C1177.54 627.704 1181.78 623.326 1187.01 623.326C1192.24 623.326 1196.48 627.704 1196.48 633.103Z" fill="#E76E23"/>
<path d="M1275.7 753.939C1273.17 758.678 1264.91 758.98 1257.26 754.613C1249.61 750.247 1245.47 742.866 1248.01 738.127C1250.54 733.388 1258.8 733.086 1266.45 737.453C1274.1 741.819 1278.24 749.2 1275.7 753.939Z" fill="white"/>
<path d="M1285.4 765.577C1284.02 768.157 1279.55 768.337 1275.42 765.979C1271.29 763.622 1269.07 759.619 1270.45 757.039C1271.83 754.459 1276.3 754.279 1280.43 756.636C1284.56 758.994 1286.78 762.997 1285.4 765.577Z" fill="white"/>
<path d="M1114.94 866.127C1114.94 873.438 1095.59 879.365 1071.72 879.365C1047.84 879.365 1028.49 873.438 1028.49 866.127C1028.49 858.816 1047.84 852.889 1071.72 852.889C1095.59 852.889 1114.94 858.816 1114.94 866.127Z" fill="#436F35" fill-opacity="0.5"/>
<path d="M1192.75 891.522C1192.75 897.042 1178.48 901.518 1160.87 901.518C1143.27 901.518 1128.99 897.042 1128.99 891.522C1128.99 886.001 1143.27 881.525 1160.87 881.525C1178.48 881.525 1192.75 886.001 1192.75 891.522Z" fill="#436F35" fill-opacity="0.5"/>
<path d="M912.318 875.311C912.318 888.292 878.692 898.816 837.212 898.816C795.731 898.816 762.105 888.292 762.105 875.311C762.105 862.33 795.731 851.807 837.212 851.807C878.692 851.807 912.318 862.33 912.318 875.311Z" fill="#436F35" fill-opacity="0.5"/>
<path d="M927.415 804.972C904.258 821.232 883.943 764.835 899.989 745.442C899.989 745.442 1021.72 738.76 927.415 804.972Z" fill="#AEC5E7"/>
<path d="M925.715 802.066C909.369 812.963 899.876 783.799 898.128 772.59C897.452 768.257 897.388 763.634 897.989 759.29C898.257 757.327 898.761 755.407 899.361 753.52C899.651 752.608 900.048 751.739 900.466 750.881C901.389 748.982 902.933 748.65 900.005 748.811C901.914 748.704 903.834 748.671 905.743 748.639C915.676 748.489 925.705 748.897 935.508 750.505C942.716 751.685 956.049 753.745 959.256 761.693C961.401 766.981 957.561 772.708 954.536 776.784C947.017 786.952 935.916 794.858 925.715 802.066C922.197 804.554 925.554 810.41 929.115 807.89C938.447 801.293 947.661 794.321 955.523 785.987C959.974 781.268 964.179 775.787 965.981 769.458C968.748 759.676 961.98 752.275 953.56 748.564C937.439 741.453 917.51 741.227 900.144 742.075C894.041 742.375 891.735 754.86 891.22 759.419C890.159 768.868 891.746 778.533 894.942 787.435C899.876 801.143 913.198 818.508 929.115 807.89C932.719 805.487 929.341 799.641 925.715 802.066Z" fill="#002E6E"/>
<path d="M920.056 821.028C916.151 827.41 892.629 827.045 893.305 817.016C893.305 812.329 910.027 804.982 913.373 800.96C913.363 800.96 934.772 796.948 920.056 821.028Z" fill="white"/>
<path d="M917.137 819.321C913.823 823.944 902.389 822.142 898.345 819.857C894.945 817.927 897.723 815.878 899.761 814.355C903.322 811.684 907.259 809.539 910.98 807.115C912.289 806.257 913.533 805.324 914.745 804.337C916.054 803.275 914.209 804.219 914.037 804.24C915.432 804.058 916.933 803.983 918.328 804.198C925.932 805.388 919.197 815.857 917.137 819.321C914.906 823.075 920.741 826.465 922.961 822.721C927.423 815.213 933.119 802.256 921.663 798.062C919.315 797.204 916.504 797.193 914.037 797.483C910.251 797.923 906.776 801.827 903.569 803.822C899.117 806.589 893.358 809.464 890.655 814.183C888.198 818.495 891.416 823.3 894.934 825.682C902.185 830.594 917.545 830.283 922.951 822.732C925.503 819.182 919.647 815.824 917.137 819.321Z" fill="#002E6E"/>
<path d="M994.301 800.293C999.653 812.327 1003 833.736 986.943 839.089C967.55 845.106 958.187 819.696 955.505 806.321C953.499 818.355 952.834 847.787 933.431 841.105C921.386 836.418 919.38 812.349 921.386 800.968C921.386 800.968 958.841 827.054 988.938 800.968C998.87 792.366 1009.01 786.252 1009.01 776.223C1009.01 762.172 1003.65 754.825 996.961 743.445C996.961 743.445 939.438 713.348 917.363 749.462C909.877 761.711 901.307 794.94 920.71 801.633" fill="white"/>
<path d="M991.38 801.988C996.411 813.647 999.393 836.429 980.837 836.611C967.032 836.74 960.94 815.964 958.752 805.409C958.097 802.256 952.777 802.106 952.252 805.409C951.276 811.512 950.739 817.669 949.442 823.729C948.305 829.017 946.395 836.729 940.485 838.488C932.269 840.934 927.775 831.248 926.005 825.134C923.892 817.798 923.41 809.399 924.643 801.848C922.991 802.524 921.339 803.189 919.688 803.865C932.43 812.649 949.785 817.594 965.144 815.417C979.442 813.389 989.31 805.045 1000.05 796.099C1004.39 792.474 1009.14 788.173 1011.14 782.702C1013.36 776.621 1012.34 769.734 1010.77 763.588C1009.32 757.893 1006.33 752.627 1003.38 747.596C1001.85 744.979 1000.63 741.471 997.784 740.066C992.925 737.674 987.851 735.669 982.735 733.91C966.12 728.203 946.846 725.254 930.403 732.955C916.566 739.444 909.841 754.203 906.838 768.383C903.963 781.984 904.886 799.199 919.827 804.873C923.903 806.418 925.641 799.896 921.618 798.373C911.847 794.662 911.525 782.541 912.716 773.757C913.949 764.672 917.017 754.922 922.723 747.628C935.251 731.625 957.99 733.759 975.377 738.683C981.437 740.399 987.379 742.619 993.086 745.29C995.338 746.341 994.63 746.137 995.832 748.154C999.414 754.16 1002.89 760.06 1004.64 766.892C1006.6 774.583 1005.79 780.911 1000.3 786.735C994.92 792.452 988.012 797.987 981.512 802.342C970.615 809.646 957.218 810.45 944.765 807.479C937.192 805.677 929.513 802.47 923.077 798.041C921.404 796.882 918.465 797.976 918.122 800.057C915.601 815.556 917.886 844.634 938.694 845.439C956.338 846.114 956.864 818.935 958.741 807.211C956.574 807.211 954.408 807.211 952.241 807.211C955.362 822.292 964.758 845.954 984.076 843.143C1006.11 839.936 1003.82 813.958 997.194 798.598C995.488 794.597 989.675 798.04 991.38 801.988Z" fill="#002E6E"/>
<path d="M938.782 742.318C960.191 741.428 982.04 739.648 1002.55 730.724C1043.12 712.447 1048.03 647.779 1027.97 613.006C1022.62 603.642 1016.37 593.388 1007.46 586.695C998.987 580.002 987.392 577.781 978.028 572.429C963.763 564.406 945.25 563.065 929.643 567.527C910.465 566.637 886.171 589.827 877.697 605.433C866.553 626.842 861.201 651.812 863.871 675.892C866.102 694.169 873.686 715.128 888.842 725.833C900.436 734.306 922.285 742.78 937.001 742.329" fill="#002E6E"/>
<path d="M938.781 745.696C965.36 744.548 997.066 742.822 1018.16 724.534C1033.79 710.987 1040.6 689.642 1042.43 669.67C1044.29 649.162 1040.36 627.796 1030.07 609.894C1023.32 598.149 1015.49 586.855 1003.44 580.086C997.388 576.686 990.62 574.67 984.302 571.849C977.663 568.888 971.742 565.456 964.62 563.611C958.742 562.088 952.575 561.595 946.525 561.648C939.929 561.702 933.654 563.965 927.165 564.169C916.278 564.512 906.195 570.991 897.872 577.426C877.385 593.258 866.466 616.458 861.811 641.525C857.21 666.345 859.977 694.286 874.35 715.62C881.032 725.542 890.814 731.956 901.497 736.901C912.481 741.985 924.784 745.868 936.99 745.718C941.345 745.664 941.345 738.907 936.99 738.96C923.378 739.121 909.574 733.908 897.775 727.494C885.569 720.865 877.611 710.526 872.623 697.697C861.468 669.037 866.434 635.808 879.756 608.811C885.226 597.72 894.601 588.195 904.436 580.869C909.295 577.244 914.647 574.209 920.397 572.289C922.992 571.42 925.674 570.991 928.398 570.905C931.906 570.798 935.338 569.586 938.824 569.028C946.171 567.837 953.873 568.299 961.134 569.768C968.9 571.334 975.346 575.238 982.468 578.413C988.818 581.245 995.425 583.369 1001.51 586.779C1008.39 590.652 1013.65 596.958 1018.07 603.362C1035.87 629.158 1040.9 661.54 1031.22 691.508C1026.7 705.474 1018.02 718.098 1005.23 725.606C985.879 736.954 960.576 738.038 938.77 738.982C934.437 739.132 934.416 745.889 938.781 745.696Z" fill="#002E6E"/>
<path d="M928.831 579.273C915.445 578.039 900.846 592.874 893.789 602.291C880.993 618.895 871.747 634.126 869.226 654.655C866.706 674.295 870.406 691.66 882.13 707.17C894.304 724.021 913.053 726.992 932.252 730.413C961.277 735.54 989.712 721.94 1012.31 704.81C1040.24 683.637 1030.07 639.124 1012.93 614.283C1002.11 598.312 986.858 586.846 968.517 580.292C960.022 577.235 937.68 571.615 930.161 579.252" fill="white"/>
<path d="M928.833 575.895C916.83 575.262 906.458 583.543 898.489 591.619C889.35 600.876 881.574 612.364 875.492 623.808C862.557 648.146 860.937 678.897 875.192 702.977C881.928 714.347 891.421 722.273 903.659 727.089C915.736 731.851 930.163 734.404 943.099 734.865C957.514 735.38 971.716 731.261 984.758 725.469C997.115 719.988 1010.32 712.319 1019.85 702.602C1043.84 678.157 1031.98 635.896 1014.92 611.227C1003.81 595.159 987.644 583.714 969.431 577.043C957.9 572.817 938.079 567.486 927.792 576.871C924.564 579.81 929.358 584.583 932.566 581.655C939.709 575.134 955.026 579.81 963.081 582.095C975.513 585.624 987.086 592.22 996.739 600.769C1014.64 616.622 1025.75 641.174 1026.34 665.018C1026.62 676.484 1023.58 688.036 1016 696.842C1011.69 701.851 1005.86 705.519 1000.39 709.123C993.822 713.446 986.893 717.189 979.717 720.375C965.194 726.821 948.933 729.738 933.166 727.164C920.156 725.04 906.641 722.648 895.378 715.398C883.526 707.761 876.233 693.291 873.24 679.927C870.087 665.865 872.167 650.505 876.94 637.066C881.542 624.119 889.93 612.299 898.521 601.713C905.697 592.864 916.552 582.009 928.844 582.653C933.188 582.888 933.166 576.131 928.833 575.895Z" fill="#002E6E"/>
<path d="M926.94 609.52C922.36 617.8 929.011 626.95 936.508 630.629C940.037 632.356 944.295 632.903 947.749 630.725C952.511 627.701 952.565 621.061 951.964 616.138C949.862 616.706 947.77 617.275 945.668 617.843C950.28 624.783 959.097 629.599 965.157 621.243C969.255 615.602 969.115 605.551 960.631 604.404C956.373 603.824 954.538 610.335 958.84 610.914C962.036 611.343 961.414 614.218 960.18 616.556C957.563 621.501 953.627 617.607 951.503 614.422C949.83 611.912 944.778 612.512 945.207 616.127C945.807 621.072 945.743 627.647 939.265 624.472C935.532 622.638 930.298 617.414 932.775 612.931C934.888 609.112 929.053 605.712 926.94 609.52Z" fill="#002E6E"/>
<path d="M930.491 649.57C930.491 649.742 930.481 649.913 930.47 650.096C930.545 649.163 930.491 649.828 930.448 650.053C930.341 650.589 930.266 651.125 930.213 651.672C930.084 652.938 930.695 654.29 931.403 655.298C932.111 656.295 933.044 656.971 934.321 656.971C935.962 656.971 937.002 655.909 937.581 654.493C937.442 654.804 937.453 654.794 937.592 654.472C937.689 654.257 937.785 654.043 937.882 653.839C938.128 653.303 938.375 652.756 938.547 652.187C938.933 650.889 938.718 649.538 938.472 648.24C937.946 645.494 933.463 644.786 932.293 647.436C931.596 649.002 931.392 650.557 931.382 652.262C931.382 653.764 932.411 655.126 933.859 655.523C935.404 655.952 936.809 655.233 937.678 653.968C939.04 651.994 939.051 649.634 937.56 647.757C935.919 645.698 931.982 646.406 931.5 649.13C931.178 650.943 931.961 652.766 933.859 653.281C935.511 653.732 937.689 652.734 938.01 650.922C938.01 650.9 938.021 650.879 938.021 650.857C937.731 651.351 937.442 651.855 937.152 652.348C937.163 652.337 937.174 652.327 937.184 652.316C936.691 652.606 936.187 652.895 935.694 653.185C934.063 653.775 932.004 652.498 931.972 650.847C931.95 650.546 932.025 650.267 932.175 650.021C932.079 650.203 931.961 650.385 931.832 650.557C933.934 651.125 936.026 651.694 938.128 652.262C938.128 651.833 938.139 651.404 938.161 650.975C938.193 650.578 938.193 650.6 938.139 651.04C938.171 650.868 938.461 650.053 938.107 650.836C936.047 650.568 933.988 650.299 931.929 650.031C931.972 650.224 932.004 650.417 932.036 650.611C931.972 650.128 931.961 650.053 931.982 650.407C931.982 650.535 931.982 650.653 931.972 650.782C932.015 649.806 932.057 650.224 931.961 650.546C931.843 650.868 931.897 650.761 932.1 650.235C932.015 650.439 931.918 650.632 931.832 650.825C931.553 651.436 931.285 652.069 931.028 652.691C933.087 652.423 935.146 652.155 937.206 651.887C937.045 651.662 936.573 650.611 936.895 651.512C936.809 651.147 936.82 651.254 936.927 651.844C936.948 651.479 936.916 651.608 936.852 652.209C936.991 651.329 937.195 650.471 937.217 649.57C937.26 647.725 935.64 646.191 933.838 646.191C931.993 646.191 930.545 647.736 930.491 649.57Z" fill="#002E6E"/>
<path d="M956.933 646.447C956.226 649.429 956.612 652.604 959.143 654.642C961.16 656.261 963.905 655.714 964.785 653.151C965.3 651.66 965.75 650.287 965.793 648.689C965.868 646.286 962.801 644.27 960.709 645.771C960.527 645.9 960.355 646.018 960.162 646.136C959.615 646.447 961.031 645.879 960.387 646.007C962.361 645.6 959.583 646.222 959.261 646.415C957.888 647.273 957.609 648.571 957.373 650.019C958.457 649.193 959.551 648.367 960.634 647.541C960.613 647.541 960.591 647.541 960.58 647.541C958.735 647.541 957.202 649.075 957.202 650.92C957.202 652.765 958.735 654.298 960.58 654.298C961.063 654.298 961.546 654.298 962.028 654.298C963.873 654.298 965.407 652.765 965.407 650.92C965.407 649.075 963.873 647.541 962.028 647.541C962.007 647.541 961.985 647.541 961.975 647.541C962.951 649.236 963.916 650.93 964.892 652.625C965.74 650.694 965.997 648.635 964.839 646.747C964.109 645.557 963.015 644.892 961.621 644.784C960.151 644.677 958.564 645.9 958.264 647.348C957.899 649.15 958.757 650.995 960.623 651.499C962.307 651.96 964.41 650.941 964.774 649.139C964.774 649.118 964.785 649.096 964.785 649.086C964.495 649.579 964.206 650.083 963.916 650.577C963.927 650.566 963.938 650.555 963.948 650.544C963.155 650.877 962.361 651.209 961.556 651.531C961.578 651.531 961.589 651.531 961.61 651.531C961.042 651.381 960.473 651.22 959.905 651.07C959.518 650.845 959.218 650.534 958.993 650.147C959.154 650.437 959.122 650.319 958.886 649.815C958.971 650.158 958.971 650.072 958.886 649.558C958.939 650.137 958.95 649.407 959.047 649.204C958.542 650.341 958.382 651.477 959.047 652.614C959.647 653.644 960.773 654.288 961.964 654.288C961.985 654.288 962.007 654.288 962.018 654.288C963.862 654.288 965.396 652.754 965.396 650.909C965.396 649.064 963.862 647.53 962.018 647.53C961.535 647.53 961.052 647.53 960.57 647.53C958.725 647.53 957.191 649.064 957.191 650.909C957.191 652.754 958.725 654.288 960.57 654.288C960.591 654.288 960.613 654.288 960.623 654.288C962.007 654.288 963.637 653.269 963.884 651.81C963.948 651.435 964.002 651.059 964.066 650.684C964.088 650.576 964.109 650.469 964.141 650.373C963.573 652.378 962.254 652.539 961.202 652.657C962.275 652.539 963.219 652.25 964.109 651.606C962.414 650.63 960.72 649.665 959.025 648.689C958.993 649.118 959.004 649.161 959.057 648.807C959.014 649.118 958.918 649.429 958.821 649.729C958.66 650.276 958.435 650.812 958.253 651.359C960.13 650.866 962.018 650.362 963.895 649.869C963.734 649.74 962.972 648.86 963.401 649.472C963.219 649.128 963.219 649.161 963.401 649.568C963.348 649.407 963.305 649.246 963.273 649.075C963.476 649.944 963.315 648.957 963.326 648.689C963.273 649.59 963.391 648.463 963.433 648.26C963.862 646.468 962.897 644.602 961.074 644.109C959.358 643.605 957.352 644.656 956.933 646.447Z" fill="#002E6E"/>
<path d="M936.78 751.467C936.78 740.762 953.502 734.08 962.866 735.41C979.588 738.081 986.946 751.467 991.622 766.848C995.634 782.229 997.64 800.957 980.253 808.315C967.542 814.332 952.161 813.002 938.786 808.98C904.001 796.945 928.757 763.502 940.792 742.757" fill="#002E6E"/>
<path d="M940.161 751.466C940.654 742.521 953.418 738.67 960.755 738.627C970.945 738.563 978.828 746.736 983.333 754.985C987.892 763.351 990.38 773.315 990.949 782.808C991.635 794.252 986.83 802.211 976.125 806.416C964.541 810.964 951.284 809.097 939.678 805.729C931.591 803.391 924.823 797.417 924.351 788.729C923.922 780.941 927.622 773.079 931.044 766.322C934.852 758.814 939.464 751.745 943.711 744.484C945.91 740.708 940.075 737.319 937.876 741.073C928.942 756.357 914.504 774.763 918.216 793.62C920.146 803.445 929.188 809.087 937.898 812.251C950.801 816.949 966.772 817.324 979.558 812.294C1002.91 803.112 999.755 775.954 991.592 756.765C987.152 746.318 980.416 737.834 969.615 733.651C960.144 729.982 948.592 732.417 940.676 738.574C936.45 741.867 933.704 746.05 933.404 751.477C933.157 755.81 939.914 755.789 940.161 751.466Z" fill="#002E6E"/>
<path d="M926.072 665.178C926.072 674.048 918.886 681.235 910.015 681.235C901.145 681.235 893.958 674.048 893.958 665.178C893.958 656.308 901.145 649.121 910.015 649.121C918.886 649.121 926.072 656.318 926.072 665.178Z" fill="#AEC5E7"/>
<path d="M1004.99 661.83C1004.99 670.701 997.807 677.887 988.936 677.887C980.066 677.887 972.879 670.701 972.879 661.83C972.879 652.96 980.066 645.773 988.936 645.773C997.807 645.784 1004.99 652.971 1004.99 661.83Z" fill="#AEC5E7"/>
<path d="M1043.01 567.84C1040.76 571.509 1039.41 575.523 1038.52 579.707C1038.13 581.503 1038.79 583.346 1040.68 583.963C1042.29 584.49 1044.55 583.598 1044.94 581.802C1045.71 578.185 1046.74 574.667 1048.69 571.489C1050.95 567.791 1045.28 564.113 1043.01 567.84Z" fill="#002E6E"/>
<path d="M1052.05 604.054C1057.6 601.184 1062.89 597.852 1068.44 594.982C1072.3 592.987 1069.26 586.967 1065.39 588.967C1059.83 591.836 1054.55 595.169 1048.99 598.038C1045.13 600.033 1048.19 606.049 1052.05 604.054Z" fill="#002E6E"/>
<path d="M1062.73 627.368C1070.01 627.342 1077.29 627.556 1084.56 627.531C1088.9 627.518 1089.31 620.776 1084.96 620.798C1077.68 620.824 1070.4 620.61 1063.13 620.635C1058.79 620.648 1058.39 627.385 1062.73 627.368Z" fill="#002E6E"/>
<path d="M848.814 569.717C853.577 574.996 856.918 581.385 861.242 586.992C863.896 590.428 869.452 586.614 866.794 583.163C862.098 577.062 858.374 570.327 853.187 564.588C850.285 561.355 845.947 566.535 848.814 569.717Z" fill="#002E6E"/>
<path d="M826.557 606.694C832.269 609.267 838.364 610.847 844.081 613.434C848.041 615.22 850.916 609.117 846.946 607.326C841.229 604.739 835.134 603.159 829.422 600.586C825.462 598.799 822.587 604.903 826.557 606.694Z" fill="#002E6E"/>
<path d="M820.343 647.236C829.417 648.957 838.775 649.769 847.797 647.331C852.001 646.199 849.678 639.861 845.503 640.983C837.667 643.088 829.335 642.059 821.477 640.576C817.21 639.771 816.067 646.426 820.343 647.236Z" fill="#002E6E"/>
<path d="M938.78 739.422C920.718 738.081 908.683 711.995 899.319 699.285C894.632 692.592 890.621 682.563 882.598 691.262C876.58 697.279 876.58 710.654 876.58 718.688C877.245 742.103 891.961 750.791 914.036 753.473C922.059 754.813 941.462 754.813 938.115 742.103" fill="#002E6E"/>
<path d="M938.777 736.045C928.609 734.973 921.305 725.673 915.77 717.961C909.946 709.842 904.561 701.272 899.155 692.862C896.903 689.366 894.414 686.105 890.349 684.732C886.102 683.295 881.951 686.942 879.387 689.784C872.78 697.11 873.209 709.498 873.198 718.68C873.198 727.733 876.094 736.646 882.047 743.5C888.043 750.418 897.375 753.743 906.063 755.588C917.4 757.991 945.556 760.586 941.362 741.194C940.44 736.946 933.94 738.748 934.862 742.985C937.673 755.974 906.771 749.056 901.376 747.436C894.243 745.291 887.904 741.247 883.989 734.812C879.634 727.657 879.752 718.851 880.085 710.785C880.278 706.173 880.825 701.379 882.68 697.11C883.506 695.201 884.815 693.796 886.284 692.358C889.041 689.655 891.1 693.045 892.559 695.104C896.999 701.389 901.097 707.954 905.269 714.422C913.174 726.66 923.042 741.129 938.777 742.781C943.1 743.253 943.057 736.496 938.777 736.045Z" fill="#002E6E"/>
<path d="M976.904 741.43C984.927 725.373 992.285 708.651 1000.32 692.605C1012.35 669.19 1029.75 673.212 1031.76 699.963C1033.1 716.685 1026.4 738.759 1010.35 746.117C1003.65 748.788 972.227 752.81 978.245 736.753C978.91 736.088 979.585 734.747 980.915 734.082" fill="#002E6E"/>
<path d="M979.823 743.136C985.089 732.56 990.045 721.844 995.086 711.161C999.387 702.033 1003.12 691.425 1010.41 684.196C1015.11 679.53 1020.69 679.562 1024.36 685.204C1029.02 692.38 1029 702.559 1028.19 710.754C1026.81 724.483 1019.37 741.14 1004.6 744.154C999.366 745.227 993.895 745.495 988.586 744.98C985.014 744.637 976.787 741.291 982.622 736.979C986.076 734.426 982.719 728.559 979.222 731.154C973.763 735.187 971.939 743.178 977.667 747.951C983.105 752.489 991.74 752.253 998.368 751.759C1005.51 751.223 1011.96 749.893 1017.77 745.506C1026.33 739.06 1031.15 728.795 1033.62 718.616C1036.69 706.013 1036.91 671.325 1016.01 673.996C1005.64 675.326 999.698 686.255 995.569 694.611C988.189 709.563 981.432 724.794 973.999 739.725C972.068 743.607 977.882 747.029 979.823 743.136Z" fill="#002E6E"/>
<path d="M963.38 737.567C960.066 733.963 952.901 733.115 948.878 735.893C945.821 737.996 945.307 744.195 949.147 745.729C952.118 746.909 956.419 743.305 958.725 741.921C960.312 740.967 962.146 739.733 964.045 739.637C966.276 739.519 965.901 744.195 965.879 745.45C966.287 744.914 966.694 744.378 967.102 743.841C962.029 745.225 958.736 741.632 958.521 736.762C958.425 734.617 955.078 734.606 955.175 736.762C955.496 743.841 960.774 749.033 967.992 747.07C968.721 746.866 969.204 746.201 969.215 745.461C969.279 742.136 969.097 737.867 965.472 736.505C962.726 735.464 959.25 737.738 957.03 739.057C956.129 739.594 950.627 743.369 950.048 742.436C948.514 739.969 951.345 737.996 953.448 737.727C955.936 737.416 959.261 738.038 961.02 739.958C962.468 741.524 964.828 739.154 963.38 737.567Z" fill="#002E6E"/>
<path d="M953.938 731.12C949.883 729.876 946.065 727.945 941.903 727.109C941.034 726.937 940.069 727.345 939.844 728.278C938.492 733.898 939.822 740.184 945.689 742.372C951.16 744.42 954.431 736.998 956.995 733.92C957.992 732.729 966.798 728.481 964.417 732.89C962.164 737.062 959 734.402 957.606 731.217C956.952 729.726 955.021 730.455 954.549 731.614C952.575 736.494 949.872 744.656 951.878 749.891C952.64 751.886 955.868 751.017 955.107 749C953.326 744.335 956.008 736.891 957.778 732.504C956.759 732.632 955.74 732.772 954.721 732.901C956.287 736.472 959.633 739.991 963.806 737.899C966.487 736.558 968.997 733.169 968.074 730.037C966.734 725.51 960.223 728.256 957.595 729.468C954.699 730.809 953.294 733.308 951.61 735.872C950.087 738.21 947.566 740.366 944.756 738.113C942.236 736.097 942.396 731.914 943.061 729.146C942.375 729.533 941.689 729.93 941.002 730.316C945.174 731.152 948.993 733.083 953.037 734.327C955.117 734.982 955.997 731.753 953.938 731.12Z" fill="#F1F2F2"/>
<path d="M955.839 735.411C955.979 740.002 957.834 744.614 961.009 747.961C962.5 749.527 964.86 747.156 963.38 745.59C960.816 742.887 959.304 739.101 959.186 735.401C959.121 733.255 955.775 733.255 955.839 735.411Z" fill="#F1F2F2"/>
<path d="M909.557 666.446C915.574 679.563 939.815 675.917 948.31 667.572C946.948 667.743 945.586 667.926 944.213 668.097C954.606 675.831 975.243 671.658 982.719 661.533C985.315 658.026 979.448 654.658 976.884 658.122C971.457 665.459 954.799 667.604 947.613 662.262C946.401 661.361 944.513 661.812 943.515 662.788C937.949 668.258 919.425 671.841 915.381 663.024C913.579 659.077 907.755 662.509 909.557 666.446Z" fill="#002E6E"/>
<path d="M922.703 672.536C925.116 703.877 973.33 694.149 977.481 668.084C978.156 663.826 971.656 662.003 970.981 666.293C969.264 677.041 960.126 683.326 949.958 685.214C940.637 686.941 930.254 683.015 929.449 672.546C929.106 668.224 922.36 668.192 922.703 672.536Z" fill="#002E6E"/>
<path d="M922.886 729.235C928.421 735.617 925.181 747.791 925.074 755.47C925.042 757.358 927.884 757.744 928.356 755.91C930.802 746.45 929.601 737.569 927.016 728.269C926.2 728.902 925.375 729.524 924.559 730.157C927.573 732.42 927.992 738.405 928.356 741.784C928.582 743.886 928.625 745.999 928.571 748.102C928.549 749.078 927.949 751.942 928.303 751.845C926.222 752.392 927.101 755.621 929.193 755.074C933.119 754.044 931.982 745.613 931.799 742.9C931.467 737.74 930.705 730.629 926.243 727.272C925.021 726.349 923.422 727.862 923.787 729.159C926.201 737.858 927.413 746.139 925.128 755.02C926.222 755.17 927.316 755.32 928.41 755.46C928.539 746.525 931.714 734.329 925.246 726.853C923.83 725.234 921.481 727.615 922.886 729.235Z" fill="#F1F2F2"/>
<path d="M982.822 721.854C976.816 729.78 980.977 744.603 987.091 751.307C988.443 752.787 990.502 750.91 989.719 749.28C985.804 741.107 983.562 731.979 986.544 723.141C985.45 722.99 984.356 722.84 983.262 722.701C983.294 730.574 982.393 744.228 989.097 749.966C990.727 751.361 993.109 749.001 991.468 747.596C985.568 742.555 986.63 729.705 986.609 722.69C986.598 720.749 983.916 720.491 983.326 722.25C980.055 731.947 982.543 742.008 986.834 750.964C987.713 750.288 988.582 749.612 989.462 748.937C984.292 743.284 980.645 730.23 985.708 723.537C987.006 721.821 984.099 720.159 982.822 721.854Z" fill="#F1F2F2"/>
<path d="M892.262 765.079C896.091 767.685 899.416 770.946 902.945 773.917C906.249 776.695 911.054 771.954 907.718 769.144C903.739 765.797 899.974 762.193 895.662 759.254C892.058 756.787 888.69 762.644 892.262 765.079Z" fill="#002E6E"/>
<path d="M935.83 765.733C934.403 769.337 930.542 786.209 936.999 787.185C939.112 787.507 940.013 784.278 937.889 783.957C936.527 783.753 937.138 776.942 937.213 775.901C937.428 772.791 937.9 769.53 939.058 766.623C939.841 764.618 936.613 763.749 935.83 765.733Z" fill="#F1F2F2"/>
<path d="M937.004 778.487C939.3 779.195 941.756 779.217 944.137 779.217C946.293 779.217 946.293 775.87 944.137 775.87C942.035 775.87 939.922 775.881 937.895 775.259C935.824 774.637 934.945 777.865 937.004 778.487Z" fill="#F1F2F2"/>
<path d="M944.465 765.509C944.411 771.376 942.202 780.461 946.288 785.416C947.661 787.079 950.01 784.698 948.659 783.046C946.964 780.997 947.458 777.018 947.5 774.551C947.543 771.526 947.79 768.523 947.811 765.498C947.822 763.353 944.486 763.353 944.465 765.509Z" fill="#F1F2F2"/>
<path d="M959.691 766.066C952.676 761.808 950.241 769.917 952.311 775.462C953.105 777.596 955.25 778.004 957.202 778.723C958.393 779.163 959.712 779.624 960.72 780.428C961.214 780.825 961.053 780.761 960.645 781.19C958.951 782.959 956.58 783.431 954.671 781.694C953.083 780.246 950.713 782.606 952.3 784.064C955.668 787.132 959.09 786.875 962.555 783.936C964.517 782.273 965.043 779.956 963.08 778.058C961.214 776.266 958.296 775.601 955.947 774.69C955.186 774.4 955.69 774.99 955.314 774.003C955.003 773.167 954.875 772.276 954.81 771.386C954.628 768.79 955.486 767.428 957.985 768.941C959.852 770.078 961.536 767.192 959.691 766.066Z" fill="#F1F2F2"/>
<path d="M967.274 766.401C966.041 770.359 965.44 775.164 968.036 778.725C970.02 781.45 973.366 782.586 976.638 782.104C979.684 781.653 982.484 779.712 983.749 776.88C985.594 772.761 983.985 768.246 981.701 764.663C980.542 762.851 977.646 764.524 978.815 766.347C980.51 769.007 981.926 772.171 980.8 775.325C980.081 777.341 978 778.478 976.016 778.832C974.096 779.176 971.918 778.393 970.771 776.805C968.786 774.07 969.591 770.241 970.503 767.28C971.135 765.232 967.907 764.352 967.274 766.401Z" fill="#F1F2F2"/>
<path d="M902.906 701.605C902.284 700.178 904.011 699.427 905.041 698.859C903.346 697.893 901.662 696.917 899.967 695.952C900.375 699.191 899.624 701.637 897.747 704.286C899.838 704.855 901.941 705.423 904.032 705.992C903.668 702.42 904.097 696.467 908.248 695.201C906.821 694.118 905.405 693.035 903.979 691.951C904.376 696.799 901.919 701.272 898.948 704.951C900.825 705.445 902.702 705.938 904.59 706.442C903.678 702.613 905.566 699.449 907.593 696.338C905.502 695.77 903.399 695.201 901.308 694.633C901.297 696.402 901.244 698.044 900.761 699.76C899.581 703.954 906.092 705.734 907.261 701.551C907.904 699.277 908.044 696.992 908.055 694.633C908.065 691.157 903.56 690.192 901.769 692.927C898.68 697.668 896.728 702.548 898.09 708.233C898.637 710.539 902.123 711.708 903.732 709.724C907.786 704.715 911.283 698.623 910.736 691.951C910.564 689.849 908.698 688.015 906.467 688.701C899.27 690.911 896.599 699.116 897.307 706.002C897.65 709.392 901.587 710.529 903.593 707.708C906.06 704.222 907.261 700.242 906.725 695.973C906.413 693.474 904.086 691.715 901.651 693.056C896.867 695.695 894.862 699.899 897.093 705.026C898.809 708.984 904.622 705.552 902.906 701.605Z" fill="#002E6E"/>
<path d="M995.628 697.26C991.777 697.174 988.248 695.061 989.514 690.824C988.13 691.607 986.746 692.391 985.363 693.184C988.43 694.364 989.567 699.448 990.361 702.194C992.013 700.928 993.665 699.652 995.317 698.386C993.171 697.035 992.678 695.447 992.184 693.045C990.307 694.139 988.43 695.233 986.543 696.327C988.141 698.011 989.085 699.974 989.685 702.194C990.822 706.388 997.333 704.607 996.185 700.403C995.284 697.067 993.686 694.075 991.305 691.554C988.849 688.958 985.02 691.693 985.663 694.836C986.51 698.966 988.28 701.926 991.895 704.211C994.416 705.798 997.666 703.192 996.85 700.403C995.231 694.825 992.957 688.915 987.143 686.674C985.395 685.998 983.486 687.403 982.992 689.033C980.429 697.625 987.454 703.814 995.606 704.007C999.982 704.103 999.972 697.357 995.628 697.26Z" fill="#002E6E"/>
<path d="M1029.59 815.593C1029.59 786.823 1052.91 763.501 1081.68 763.501C1110.45 763.501 1133.78 786.823 1133.78 815.593C1133.78 844.363 1110.45 867.686 1081.68 867.686C1052.91 867.686 1029.59 844.363 1029.59 815.593Z" fill="white"/>
<path d="M1039.85 758.239C1039.85 735.136 1058.58 716.407 1081.68 716.407C1104.79 716.407 1123.51 735.136 1123.51 758.239C1123.51 781.342 1104.79 800.07 1081.68 800.07C1058.58 800.07 1039.85 781.342 1039.85 758.239Z" fill="white"/>
<path d="M1068.13 750.801C1068.13 756.869 1063.21 761.786 1057.15 761.786C1051.08 761.786 1046.16 756.869 1046.16 750.801C1046.16 744.734 1051.08 739.816 1057.15 739.816C1063.21 739.814 1068.13 744.732 1068.13 750.801Z" fill="#AEC5E7"/>
<path d="M1057.15 762.043C1050.95 762.043 1045.9 756.999 1045.9 750.801C1045.9 744.6 1050.95 739.559 1057.15 739.559C1063.35 739.559 1068.39 744.603 1068.39 750.801C1068.39 756.999 1063.35 762.043 1057.15 762.043ZM1057.15 740.071C1051.23 740.071 1046.42 744.884 1046.42 750.799C1046.42 756.714 1051.23 761.526 1057.15 761.526C1063.06 761.526 1067.88 756.714 1067.88 750.799C1067.88 744.884 1063.06 740.071 1057.15 740.071Z" fill="white"/>
<path d="M1084.97 802.466C1084.97 803.817 1083.88 804.911 1082.53 804.911C1081.18 804.911 1080.08 803.817 1080.08 802.466C1080.08 801.116 1081.18 800.021 1082.53 800.021C1083.88 800.021 1084.97 801.115 1084.97 802.466Z" fill="#002E6E"/>
<path d="M1082.53 804.969C1081.15 804.969 1080.02 803.847 1080.02 802.467C1080.02 801.087 1081.15 799.965 1082.53 799.965C1083.91 799.965 1085.03 801.088 1085.03 802.467C1085.03 803.847 1083.91 804.969 1082.53 804.969ZM1082.53 800.079C1081.21 800.079 1080.14 801.15 1080.14 802.466C1080.14 803.783 1081.21 804.854 1082.53 804.854C1083.84 804.854 1084.91 803.783 1084.91 802.466C1084.91 801.15 1083.84 800.079 1082.53 800.079Z" fill="white"/>
<path d="M1084.97 814.394C1084.97 815.744 1083.88 816.839 1082.53 816.839C1081.18 816.839 1080.08 815.744 1080.08 814.394C1080.08 813.044 1081.18 811.949 1082.53 811.949C1083.88 811.949 1084.97 813.043 1084.97 814.394Z" fill="#002E6E"/>
<path d="M1082.53 816.897C1081.15 816.897 1080.02 815.774 1080.02 814.395C1080.02 813.015 1081.15 811.893 1082.53 811.893C1083.91 811.893 1085.03 813.015 1085.03 814.395C1085.03 815.774 1083.91 816.897 1082.53 816.897ZM1082.53 812.007C1081.21 812.007 1080.14 813.078 1080.14 814.394C1080.14 815.711 1081.21 816.782 1082.53 816.782C1083.84 816.782 1084.91 815.711 1084.91 814.394C1084.91 813.078 1083.84 812.007 1082.53 812.007Z" fill="white"/>
<path d="M1084.97 826.32C1084.97 827.67 1083.88 828.765 1082.53 828.765C1081.18 828.765 1080.08 827.67 1080.08 826.32C1080.08 824.97 1081.18 823.875 1082.53 823.875C1083.88 823.874 1084.97 824.969 1084.97 826.32Z" fill="#002E6E"/>
<path d="M1082.53 828.823C1081.15 828.823 1080.02 827.7 1080.02 826.321C1080.02 824.941 1081.15 823.818 1082.53 823.818C1083.91 823.818 1085.03 824.941 1085.03 826.321C1085.03 827.7 1083.91 828.823 1082.53 828.823ZM1082.53 823.932C1081.21 823.932 1080.14 825.004 1080.14 826.32C1080.14 827.636 1081.21 828.708 1082.53 828.708C1083.84 828.708 1084.91 827.636 1084.91 826.32C1084.91 825.004 1083.84 823.932 1082.53 823.932Z" fill="white"/>
<path d="M1112.07 750.538C1112.07 756.605 1107.15 761.523 1101.08 761.523C1095.01 761.523 1090.09 756.605 1090.09 750.538C1090.09 744.471 1095.01 739.553 1101.08 739.553C1107.15 739.55 1112.07 744.468 1112.07 750.538Z" fill="#AEC5E7"/>
<path d="M1101.08 761.78C1094.88 761.78 1089.84 756.736 1089.84 750.537C1089.84 744.337 1094.88 739.295 1101.08 739.295C1107.28 739.295 1112.33 744.339 1112.33 750.537C1112.33 756.736 1107.28 761.78 1101.08 761.78ZM1101.08 739.808C1095.17 739.808 1090.35 744.62 1090.35 750.535C1090.35 756.45 1095.17 761.263 1101.08 761.263C1107 761.263 1111.81 756.45 1111.81 750.535C1111.81 744.62 1107 739.808 1101.08 739.808Z" fill="white"/>
<path d="M1070.34 738.341C1070.1 738.797 1069.84 739.217 1069.65 739.7C1069.39 740.351 1069.45 741.095 1069.6 741.764C1069.86 742.974 1071.52 742.801 1071.87 741.764C1072.16 740.915 1072.52 740.096 1072.81 739.249C1072.05 739.042 1071.3 738.831 1070.54 738.624C1070.25 739.539 1070.18 740.497 1070.18 741.451C1070.18 741.976 1070.54 742.447 1071.05 742.587C1071.51 742.713 1072.17 742.522 1072.38 742.044C1072.78 741.103 1072.94 739.477 1071.97 738.81C1071.47 738.474 1070.61 738.675 1070.35 739.232C1070.24 739.481 1070.2 739.601 1070.18 739.877C1070.14 740.52 1070.75 741.056 1071.36 741.056C1072.03 741.056 1072.5 740.518 1072.54 739.877C1072.54 739.865 1072.54 739.854 1072.54 739.841C1072.49 740.04 1072.44 740.237 1072.38 740.437C1072.38 740.433 1072.39 740.428 1072.39 740.424C1071.85 740.565 1071.31 740.707 1070.77 740.846C1070.78 740.848 1070.78 740.85 1070.78 740.853C1070.64 740.711 1070.5 740.57 1070.36 740.43C1070.18 740.066 1070.27 740.216 1070.3 740.345C1070.36 740.63 1070.27 740.066 1070.31 740.42C1070.32 740.538 1070.32 740.655 1070.32 740.773C1070.31 740.919 1070.31 740.934 1070.33 740.818C1070.28 740.955 1070.29 740.968 1070.34 740.855C1071.08 741.054 1071.81 741.251 1072.54 741.451C1072.54 740.692 1072.59 739.978 1072.81 739.249C1073 738.636 1072.59 737.966 1071.99 737.798C1071.34 737.621 1070.75 738.015 1070.54 738.621C1070.25 739.47 1069.88 740.289 1069.6 741.136C1070.35 741.136 1071.11 741.136 1071.87 741.136C1071.83 740.964 1071.82 740.827 1071.83 740.649C1071.83 740.767 1071.98 740.21 1071.9 740.388C1072.04 740.09 1072.23 739.82 1072.38 739.53C1073.08 738.184 1071.05 736.993 1070.34 738.341Z" fill="#002E6E"/>
<path d="M1082.44 738.3C1082.44 738.363 1082.44 738.425 1082.44 738.487C1082.42 738.787 1082.48 738.23 1082.43 738.506C1082.41 738.646 1082.37 738.783 1082.33 738.918C1082.22 739.291 1082.19 739.64 1082.25 740.022C1082.42 740.969 1083.46 741.368 1084.25 741.638C1084.98 741.888 1085.74 741.233 1085.74 740.502C1085.74 739.769 1085.74 739.036 1085.74 738.3C1084.97 738.405 1084.2 738.508 1083.43 738.613C1083.53 739.346 1083.64 740.079 1083.74 740.815C1083.82 741.325 1084.41 741.68 1084.88 741.68C1085.41 741.68 1085.87 741.318 1086.02 740.815C1086.16 740.339 1086.22 739.842 1086.18 739.346C1086.17 739.119 1086.13 738.892 1086.09 738.667C1086.08 738.59 1086.07 738.513 1086.06 738.435C1086.1 738.684 1086.06 738.326 1086.06 738.3C1086.05 737.925 1085.85 737.441 1085.48 737.282C1084.91 737.042 1084.43 736.974 1083.86 737.272C1083.71 737.353 1083.57 737.486 1083.46 737.625C1083.38 737.717 1083.31 737.814 1083.24 737.91C1083.23 737.925 1083.22 737.94 1083.21 737.955C1083.33 737.752 1083.51 737.615 1083.75 737.544C1083.96 737.544 1084.17 737.544 1084.37 737.544C1084.51 737.623 1084.64 737.702 1084.77 737.782C1084.28 737.366 1083.59 737.3 1083.1 737.782C1082.68 738.208 1082.61 739.033 1083.1 739.449C1083.58 739.852 1084.15 739.994 1084.72 739.672C1084.96 739.539 1085.08 739.353 1085.24 739.145C1085.37 738.971 1085.05 739.372 1085.2 739.201C1084.97 739.464 1084.58 739.443 1084.29 739.319C1084.09 738.98 1083.9 738.639 1083.7 738.3C1083.71 738.673 1083.78 739.044 1083.84 739.413C1083.81 739.235 1083.84 739.694 1083.84 739.743C1083.84 739.897 1083.8 740.013 1083.74 740.189C1084.5 740.189 1085.26 740.189 1086.02 740.189C1085.91 739.456 1085.81 738.723 1085.7 737.988C1085.63 737.477 1085.04 737.122 1084.57 737.122C1083.92 737.122 1083.39 737.657 1083.39 738.3C1083.39 739.033 1083.39 739.766 1083.39 740.502C1083.89 740.122 1084.38 739.743 1084.88 739.366C1084.84 739.351 1084.37 739.166 1084.57 739.256C1084.46 739.209 1084.36 739.149 1084.26 739.085C1084.41 739.188 1084.44 739.211 1084.55 739.488C1084.52 739.372 1084.52 739.43 1084.57 739.664C1084.56 739.565 1084.61 739.385 1084.54 739.775C1084.63 739.278 1084.79 738.819 1084.8 738.303C1084.83 736.781 1082.47 736.783 1082.44 738.3Z" fill="#002E6E"/>
<path d="M1119.89 772.823C1096.77 780.195 1059.99 775.286 1045.43 772.551C1042.48 771.998 1039.33 774.466 1039.33 777.461V781.314C1039.33 782.249 1039.62 783.169 1040.26 783.847C1053.69 798.021 1098.89 791.089 1123.02 785.092C1124.88 784.631 1126.15 782.961 1126.15 781.052V777.09C1126.15 773.976 1122.85 771.876 1119.89 772.823Z" fill="#002E6E"/>
<path d="M1092.8 829.251C1095.72 817.947 1097.96 796.485 1097.11 784.404C1097.01 783.008 1097.86 781.709 1099.2 781.297L1111.1 777.623C1112.43 777.213 1113.86 777.798 1114.28 779.121C1117.4 788.881 1117.68 814.065 1117.36 828.481C1117.33 830.045 1116.05 831.302 1114.5 831.483C1109.91 832.019 1102.86 833.531 1097.46 834.734C1094.84 835.318 1092.13 831.85 1092.8 829.251Z" fill="#002E6E"/>
<path d="M1079.04 741.534L1079.35 743.654C1079.46 744.369 1078.91 745.013 1078.19 745.022L1077.36 745.033C1076.58 745.042 1076 744.316 1076.18 743.56L1076.7 741.43C1077.01 740.16 1078.84 740.241 1079.04 741.534Z" fill="#FF8800"/>
<path d="M1141.33 862.074C1141.33 844.776 1155.36 830.753 1172.66 830.753C1189.95 830.753 1203.98 844.776 1203.98 862.074C1203.98 879.372 1189.95 893.395 1172.66 893.395C1155.36 893.395 1141.33 879.372 1141.33 862.074Z" fill="white"/>
<path d="M1147.5 827.589C1147.5 813.698 1158.76 802.437 1172.65 802.437C1186.55 802.437 1197.81 813.698 1197.81 827.589C1197.81 841.479 1186.55 852.74 1172.65 852.74C1158.76 852.74 1147.5 841.479 1147.5 827.589Z" fill="white"/>
<path d="M1164.51 823.118C1164.51 826.766 1161.55 829.723 1157.9 829.723C1154.25 829.723 1151.29 826.766 1151.29 823.118C1151.29 819.471 1154.25 816.514 1157.9 816.514C1161.55 816.512 1164.51 819.469 1164.51 823.118Z" fill="#AEC5E7"/>
<path d="M1157.9 829.879C1154.17 829.879 1151.14 826.846 1151.14 823.119C1151.14 819.391 1154.17 816.359 1157.9 816.359C1161.63 816.359 1164.66 819.392 1164.66 823.119C1164.66 826.846 1161.63 829.879 1157.9 829.879ZM1157.9 816.668C1154.35 816.668 1151.45 819.561 1151.45 823.118C1151.45 826.674 1154.35 829.568 1157.9 829.568C1161.46 829.568 1164.35 826.674 1164.35 823.118C1164.35 819.561 1161.46 816.668 1157.9 816.668Z" fill="white"/>
<path d="M1190.92 822.958C1190.92 826.606 1187.96 829.563 1184.32 829.563C1180.67 829.563 1177.71 826.606 1177.71 822.958C1177.71 819.31 1180.67 816.354 1184.32 816.354C1187.96 816.352 1190.92 819.309 1190.92 822.958Z" fill="#AEC5E7"/>
<path d="M1184.32 829.718C1180.59 829.718 1177.56 826.686 1177.56 822.959C1177.56 819.231 1180.59 816.199 1184.32 816.199C1188.05 816.199 1191.08 819.232 1191.08 822.959C1191.08 826.686 1188.05 829.718 1184.32 829.718ZM1184.32 816.507C1180.76 816.507 1177.87 819.401 1177.87 822.957C1177.87 826.514 1180.76 829.407 1184.32 829.407C1187.88 829.407 1190.77 826.514 1190.77 822.957C1190.77 819.401 1187.88 816.507 1184.32 816.507Z" fill="white"/>
<path d="M1165.84 815.624C1165.7 815.898 1165.54 816.151 1165.42 816.441C1165.27 816.833 1165.3 817.28 1165.39 817.682C1165.55 818.41 1166.55 818.306 1166.76 817.682C1166.93 817.172 1167.15 816.679 1167.33 816.17C1166.87 816.045 1166.41 815.919 1165.96 815.794C1165.79 816.344 1165.74 816.92 1165.74 817.494C1165.74 817.809 1165.96 818.093 1166.27 818.177C1166.54 818.253 1166.94 818.138 1167.07 817.851C1167.31 817.285 1167.4 816.307 1166.82 815.906C1166.52 815.704 1166 815.825 1165.85 816.16C1165.78 816.309 1165.75 816.382 1165.74 816.548C1165.72 816.934 1166.08 817.257 1166.45 817.257C1166.86 817.257 1167.14 816.933 1167.16 816.548C1167.16 816.54 1167.16 816.534 1167.16 816.526C1167.13 816.646 1167.1 816.764 1167.07 816.884C1167.07 816.882 1167.07 816.879 1167.07 816.876C1166.75 816.962 1166.42 817.047 1166.1 817.13C1166.1 817.132 1166.1 817.133 1166.11 817.134C1166.02 817.049 1165.94 816.964 1165.85 816.88C1165.75 816.661 1165.8 816.751 1165.81 816.829C1165.85 817 1165.8 816.661 1165.82 816.874C1165.83 816.945 1165.83 817.016 1165.83 817.087C1165.82 817.174 1165.82 817.183 1165.83 817.114C1165.81 817.196 1165.81 817.204 1165.84 817.136C1166.28 817.255 1166.72 817.374 1167.16 817.494C1167.16 817.038 1167.19 816.608 1167.33 816.17C1167.44 815.802 1167.19 815.398 1166.83 815.298C1166.44 815.191 1166.08 815.428 1165.96 815.793C1165.78 816.303 1165.57 816.795 1165.39 817.304C1165.85 817.304 1166.3 817.304 1166.76 817.304C1166.74 817.201 1166.73 817.119 1166.74 817.012C1166.73 817.083 1166.83 816.748 1166.78 816.855C1166.86 816.675 1166.98 816.513 1167.07 816.339C1167.49 815.53 1166.26 814.813 1165.84 815.624Z" fill="#002E6E"/>
<path d="M1173.11 815.604C1173.11 815.642 1173.11 815.679 1173.1 815.717C1173.09 815.897 1173.13 815.562 1173.1 815.728C1173.09 815.812 1173.06 815.894 1173.04 815.976C1172.97 816.2 1172.95 816.41 1172.99 816.639C1173.1 817.209 1173.72 817.449 1174.2 817.611C1174.64 817.762 1175.09 817.367 1175.09 816.928C1175.09 816.487 1175.09 816.046 1175.09 815.604C1174.63 815.668 1174.16 815.729 1173.7 815.793C1173.76 816.233 1173.83 816.674 1173.89 817.116C1173.93 817.423 1174.29 817.637 1174.57 817.637C1174.89 817.637 1175.17 817.419 1175.26 817.116C1175.34 816.83 1175.38 816.531 1175.36 816.233C1175.35 816.097 1175.32 815.96 1175.3 815.825C1175.29 815.778 1175.29 815.732 1175.28 815.686C1175.3 815.835 1175.28 815.62 1175.28 815.604C1175.28 815.379 1175.16 815.088 1174.93 814.992C1174.59 814.848 1174.3 814.807 1173.96 814.986C1173.87 815.035 1173.78 815.115 1173.72 815.199C1173.67 815.254 1173.63 815.312 1173.59 815.37C1173.58 815.379 1173.57 815.388 1173.57 815.397C1173.64 815.275 1173.75 815.192 1173.89 815.15C1174.02 815.15 1174.14 815.15 1174.27 815.15C1174.35 815.197 1174.43 815.245 1174.51 815.293C1174.21 815.043 1173.79 815.003 1173.5 815.293C1173.25 815.549 1173.21 816.045 1173.5 816.295C1173.79 816.537 1174.13 816.623 1174.48 816.429C1174.62 816.349 1174.69 816.237 1174.79 816.112C1174.87 816.008 1174.67 816.249 1174.77 816.146C1174.63 816.304 1174.39 816.291 1174.22 816.217C1174.1 816.013 1173.98 815.808 1173.87 815.604C1173.87 815.829 1173.91 816.052 1173.95 816.273C1173.93 816.166 1173.95 816.442 1173.95 816.472C1173.95 816.565 1173.92 816.634 1173.89 816.74C1174.35 816.74 1174.8 816.74 1175.26 816.74C1175.19 816.299 1175.13 815.858 1175.07 815.416C1175.02 815.11 1174.67 814.896 1174.38 814.896C1174 814.896 1173.68 815.218 1173.68 815.604C1173.68 816.045 1173.68 816.486 1173.68 816.928C1173.97 816.7 1174.27 816.472 1174.57 816.245C1174.55 816.236 1174.26 816.125 1174.38 816.179C1174.32 816.151 1174.26 816.115 1174.2 816.076C1174.29 816.138 1174.31 816.152 1174.37 816.318C1174.36 816.249 1174.36 816.284 1174.38 816.424C1174.38 816.365 1174.41 816.257 1174.37 816.491C1174.42 816.192 1174.52 815.916 1174.53 815.606C1174.54 814.691 1173.13 814.692 1173.11 815.604Z" fill="#002E6E"/>
<path d="M1171.06 817.544L1171.25 818.819C1171.32 819.248 1170.99 819.636 1170.55 819.641L1170.05 819.648C1169.59 819.653 1169.24 819.217 1169.35 818.762L1169.66 817.482C1169.84 816.718 1170.95 816.767 1171.06 817.544Z" fill="#FF8800"/>
<path d="M991.372 875.37C991.372 884.52 979.009 891.939 963.757 891.939C948.506 891.939 936.143 884.52 936.143 875.37C936.143 866.219 948.506 858.801 963.757 858.801C979.009 858.801 991.372 866.219 991.372 875.37Z" fill="white"/>
<path d="M1015.7 884.39C1015.7 889.372 1009.03 893.411 1000.79 893.411C992.555 893.411 985.879 889.372 985.879 884.39C985.879 879.408 992.555 875.369 1000.79 875.369C1009.03 875.369 1015.7 879.408 1015.7 884.39Z" fill="white"/>
<path d="M739.516 867.824C739.516 872.806 732.84 876.844 724.604 876.844C716.369 876.844 709.692 872.806 709.692 867.824C709.692 862.842 716.369 858.803 724.604 858.803C732.84 858.803 739.516 862.842 739.516 867.824Z" fill="white"/>
<path d="M940.596 792.795C940.596 844.268 898.869 885.996 847.395 885.996C795.922 885.996 754.194 844.268 754.194 792.795C754.194 741.321 795.922 699.594 847.395 699.594C898.869 699.594 940.596 741.321 940.596 792.795Z" fill="white"/>
<path d="M832.808 760.161C832.808 783.782 813.66 802.93 790.04 802.93C766.419 802.93 747.271 783.782 747.271 760.161C747.271 736.541 766.419 717.393 790.04 717.393C813.66 717.393 832.808 736.541 832.808 760.161Z" fill="white"/>
</g>
<path d="M1086.7 296.319C1086.7 308.205 1087.37 323.78 1087.7 335.529V338.672C1087.7 338.808 1075.95 339.491 1073.96 339.628C1070.3 339.901 1067.64 340.311 1065.98 340.721L1063.65 340.857C1063.2 336.759 1062.98 334.71 1062.98 334.573C1062.87 311.347 1062.98 297.275 1063.09 292.63C1063.09 290.991 1064.42 261.754 1065.53 230.468C1065.75 224.866 1065.42 220.904 1070.08 220.904C1075.84 221.041 1081.38 221.314 1086.59 221.587C1088.92 221.724 1090.03 223.227 1089.92 226.233C1088.59 259.568 1088.92 257.109 1087.48 278.695C1086.93 286.346 1086.7 292.22 1086.7 296.319Z" fill="white"/>
<path d="M1044.95 282.141C1043.8 291.346 1042.93 303.486 1042.11 312.625L1041.8 315.059C1041.79 315.164 1030.51 314.293 1028.59 314.161C1025.07 313.936 1022.49 313.937 1020.87 314.056L1018.63 313.884C1018.61 310.657 1018.59 309.044 1018.61 308.938C1020.75 290.938 1022.21 280.054 1022.77 276.47C1022.93 275.2 1027.02 252.717 1031.11 228.62C1031.86 224.308 1031.93 221.2 1036.37 221.755C1041.86 222.548 1047.12 223.421 1052.07 224.253C1054.28 224.636 1055.19 225.932 1054.79 228.247C1050.3 253.904 1050.86 252.039 1047.39 268.585C1046.12 274.443 1045.34 278.967 1044.95 282.141Z" fill="white"/>
<path d="M985.85 313.04C984.677 313.04 983.504 311.334 982.865 310.801C976.041 313.467 970.176 314.746 965.165 314.533C957.488 314.107 950.877 312.614 945.439 309.948C939.575 307.069 936.056 302.058 934.883 295.021C933.604 287.77 933.711 280.307 935.097 272.63C936.056 266.872 939.148 261.86 944.373 257.595C950.024 252.797 956.635 250.452 964.099 250.665C970.07 250.771 974.655 252.477 977.747 255.783V254.397C977.533 251.838 977.747 250.345 978.386 249.705C979.453 248.532 984.891 247.893 988.196 247.893C992.781 247.893 997.579 248.426 1001.84 248.852C1004.94 249.065 1006 249.918 1006 253.33C1006 269.751 1006.43 274.655 1005.36 285.744C1004.83 291.396 1004.72 290.329 1004.72 294.808C1004.72 299.606 1003.87 303.231 1003.02 307.283C1002.27 310.481 1000.56 311.761 997.152 312.294C991.608 312.721 987.876 313.04 985.85 313.04ZM960.9 276.255C956.635 278.601 954.609 285.638 958.554 290.116C961.113 293.102 963.672 294.701 968.684 292.995C970.283 292.462 971.456 291.609 972.202 289.903C973.055 288.09 975.294 284.038 973.695 280.84C972.949 279.347 971.776 277.854 970.176 276.255C967.937 274.016 963.779 274.655 960.9 276.255Z" fill="white"/>
<path d="M1109.99 175.894C1116.73 174.551 1123.39 175.456 1130.05 178.727C1133.78 180.526 1135.34 183.321 1134.82 187.124C1132.7 203.515 1130.88 216.933 1129.37 227.273C1128.4 233.598 1126.91 234.256 1120.88 234.298C1119.37 234.308 1113.63 234.604 1111.91 234.585C1109.44 234.572 1107.09 230.486 1106.32 228.984C1104.59 225.09 1104.88 220.61 1105.41 215.087C1105.38 214.544 1105.44 214.122 1105.48 213.805C1105.92 209.775 1106.87 201.189 1108.33 188.044L1109.99 175.894ZM1111.82 141.817C1115.64 141.369 1120.93 140.473 1125.05 140.279C1131.7 140.43 1133.82 146.206 1132.87 153.179C1132.5 155.926 1131.89 157.996 1131.13 160.474C1130.74 161.713 1130.54 162.438 1130.51 162.65C1129.95 164.403 1128.44 165.167 1126 164.942C1120.16 164.364 1116.24 163.939 1114.02 163.637C1112.99 163.282 1111.94 162.279 1111.52 161.468C1109.35 156.009 1109.12 150.597 1111.03 145.261C1111.04 145.155 1111.31 144.007 1111.82 141.817Z" fill="white"/>
<path d="M1058.87 186.86C1058.66 188.246 1058.55 190.272 1058.34 193.044C1063.56 192.618 1066.34 192.404 1066.76 192.404C1070.17 191.765 1072.2 189.632 1072.84 185.9C1073.69 180.036 1073.69 174.385 1072.73 169.054C1061.86 171.506 1056.85 172.679 1055.78 173.105C1055.57 173.105 1055.46 173.105 1055.46 173.105C1053.11 173.105 1050.13 172.572 1048.1 172.359C1036.69 170.973 1030.4 163.829 1029.98 151.887C1029.76 146.449 1030.83 139.945 1032.96 132.481C1033.49 130.349 1035.52 127.79 1039.04 124.804C1043.84 120.433 1053.86 116.061 1064.74 115.954C1072.73 115.848 1076.14 116.701 1084.35 117.767C1087.23 118.087 1089.15 118.3 1090.01 118.513C1092.46 118.94 1092.88 120.113 1093.31 122.778C1094.27 129.069 1094.8 137.066 1094.91 144.21L1095.12 151.887C1095.12 155.299 1095.23 157.645 1095.23 158.924C1095.44 168.307 1095.44 175.344 1095.12 180.143C1094.7 187.393 1093.74 193.577 1092.46 198.695C1090.65 206.159 1082.44 212.343 1073.16 212.343C1069.21 212.343 1063.67 212.023 1056.42 211.49C1053.65 211.17 1051.3 209.678 1049.17 207.012C1046.4 203.493 1045.01 198.909 1044.9 193.364C1044.58 191.018 1045.44 189.739 1047.68 189.526C1048.85 189.419 1054.93 187.286 1055.89 186.86H1058.87ZM1062.82 153.486C1066.02 152.847 1067.72 152.527 1067.93 152.527C1070.71 151.887 1071.45 151.354 1071.13 148.155C1070.92 146.876 1070.28 141.758 1070.28 140.371C1070.17 138.985 1069.43 138.239 1068.04 138.026C1064.74 137.386 1061.64 138.132 1058.87 140.265C1057.7 141.438 1057.81 144.423 1057.49 146.556C1057.49 148.688 1058.02 151.354 1058.66 152.1C1059.3 152.74 1060.68 153.166 1062.82 153.486Z" fill="white"/>
<path d="M1029.94 199.826C1029.94 214.505 1022.26 225.948 1014.01 232.421C1010.96 234.849 1007.45 236.351 1003.27 236.814C1001.58 236.929 994.573 239.01 992.54 238.894C986.438 238.663 981.58 237.738 977.851 236.12C972.202 233.577 967.343 230.456 963.163 226.526C955.593 219.476 953.22 209.304 956.271 196.011C960.677 176.13 967.343 164.687 983.275 155.556C984.518 154.862 986.099 154.747 988.246 155.209C990.845 155.903 1000.11 158.445 1002.71 158.908C1014.46 161.913 1023.84 170.582 1027.57 181.91C1029.26 186.764 1030.05 192.659 1029.94 199.826Z" fill="white"/>
<path d="M968.74 166.355C968.74 179.896 961.489 190.452 953.706 196.423C950.827 198.662 947.521 200.048 943.576 200.475C941.977 200.581 935.366 202.5 933.447 202.394C927.689 202.181 923.104 201.328 919.586 199.835C914.254 197.489 909.669 194.61 905.724 190.985C898.58 184.481 896.341 175.098 899.22 162.836C903.379 144.496 909.669 133.941 924.704 125.517C925.876 124.877 927.369 124.771 929.395 125.197C931.847 125.837 940.591 128.183 943.043 128.609C954.132 131.382 962.982 139.378 966.501 149.828C968.1 154.306 968.846 159.744 968.74 166.355ZM936.112 163.796C932.487 163.156 928.755 168.487 932.061 171.473C933.02 172.326 934.087 172.645 935.473 172.645C937.392 172.539 938.458 171.046 938.671 168.274C938.778 165.502 937.925 164.009 936.112 163.796Z" fill="white"/>
<path d="M806.35 238.233C803.745 230.064 792.048 196.213 789.546 188.365C789.188 187.244 784.91 173.258 784.337 172.029C782.21 167.061 785.087 164.732 788.949 162.089C796.663 157.336 801.426 155.817 812.749 152.737C818.6 151.224 823.036 149.81 826.321 148.762C842.09 143.735 849.641 144.15 862.745 144.383C873.56 144.817 881.727 152.27 887.246 166.743C893.195 181.431 892.04 192.562 884.781 201.581C883.332 203.278 879.714 207.255 878.429 208.9C878.429 208.9 877.596 209.694 875.881 211.124C882.786 211.216 892.7 210.525 898.948 210.826C902.478 211.113 905.606 212.409 908.332 214.716C922.914 227.534 929.221 243.343 927.304 262.304C926.712 267.257 922.736 270.112 918.002 272.857C907.729 280.367 893.055 287.692 878.169 292.085C871.434 294.232 864.269 296.164 856.56 298.093C849.938 300.027 843.306 302.495 837.002 304.858L830.267 307.005C822.182 292.997 817.739 279.064 812.75 260.011C810.077 249.924 807.944 242.665 806.35 238.233ZM847.428 263.776C850.065 270.345 850.179 270.133 857.22 268.946C857.548 268.842 859.355 268.265 862.742 267.538C871.788 264.125 879.004 262.354 877.663 253.606C877.47 252.433 877.123 250.779 876.737 248.432L876.584 247.952C874.166 238.665 862.728 236.843 853.422 242.28C851.718 243.176 849.622 244.55 846.808 246.506C846.417 246.983 845.924 247.14 845.596 247.245C845.092 247.935 844.197 249.103 844.555 250.224C845.878 257.212 846.815 261.854 847.428 263.776ZM826.836 194.649C828.039 199.558 829.802 201.114 834.339 200.02C837.131 199.129 841.793 197.29 848.108 194.395C850.809 192.651 850.409 185.721 848.443 183.525C847.173 181.813 844.742 181 841.213 180.714C834.052 179.821 827.452 180.69 824.644 184.938C824.141 185.628 823.965 186.213 824.005 186.906C824.158 187.386 825.14 189.896 826.836 194.649Z" fill="white"/>
<path d="M1118.21 141.88C1120.54 138.888 1136.66 132.607 1144.42 129.84C1147.32 128.785 1148.16 132.754 1147.74 134.833C1147.33 136.912 1136.5 153.123 1133.17 153.536C1129.85 153.949 1115.3 145.62 1118.21 141.88Z" fill="#FF8800"/>
<path d="M1008.96 121.943L993.963 163.927" stroke="#744108" stroke-width="2" stroke-linecap="round"/>
<path d="M1016.45 127.939L1002.96 136.936" stroke="#744108" stroke-width="2" stroke-linecap="round"/>
<path d="M993.963 126.443C993.963 127.643 999.961 133.94 1002.96 136.939" stroke="#744108" stroke-width="2" stroke-linecap="round"/>
<path d="M778.158 264.536L822.579 268.306" stroke="#744108" stroke-width="2" stroke-linecap="round"/>
<path d="M780.506 273.846L794.289 265.298" stroke="#744108" stroke-width="2" stroke-linecap="round"/>
<path d="M788.47 252.758C789.562 253.255 792.804 261.325 794.289 265.297" stroke="#744108" stroke-width="2" stroke-linecap="round"/>
<path d="M977.939 192.141C978.281 193.068 978.543 193.978 978.98 194.874C979.573 196.084 980.703 196.964 981.846 197.617C983.915 198.798 985.803 196.226 984.784 194.385C983.95 192.879 983.256 191.305 982.425 189.802C981.149 190.612 979.872 191.416 978.596 192.225C979.53 193.811 980.802 195.148 982.159 196.378C982.906 197.056 984.042 197.153 984.894 196.614C985.672 196.119 986.257 194.932 985.842 194.023C985.027 192.233 982.911 189.915 980.706 190.438C979.593 190.701 978.758 192.194 979.221 193.276C979.428 193.758 979.549 193.968 979.92 194.349C980.783 195.236 982.329 195.066 983.121 194.195C983.991 193.238 983.826 191.883 982.967 190.999C982.948 190.982 982.936 190.965 982.918 190.949C983.132 191.282 983.343 191.613 983.558 191.946C983.554 191.937 983.551 191.929 983.548 191.92C983.054 192.867 982.56 193.814 982.063 194.758C982.072 194.755 982.078 194.754 982.084 194.754C981.699 194.773 981.315 194.791 980.937 194.809C980.192 194.589 980.516 194.661 980.735 194.787C981.221 195.067 980.308 194.461 980.855 194.869C981.037 195.005 981.205 195.158 981.372 195.31C981.566 195.513 981.59 195.529 981.445 195.359C981.585 195.596 981.611 195.604 981.519 195.381C982.75 194.597 983.975 193.813 985.205 193.028C984.126 192.05 983.168 191.065 982.425 189.802C981.799 188.74 980.313 188.459 979.297 189.099C978.207 189.789 977.998 191.145 978.593 192.223C979.427 193.729 980.121 195.303 980.952 196.806C981.932 195.728 982.91 194.653 983.89 193.575C983.596 193.409 983.393 193.241 983.148 193.002C983.31 193.16 982.717 192.222 982.867 192.564C982.618 191.988 982.483 191.366 982.265 190.779C981.255 188.047 976.931 189.399 977.939 192.141Z" fill="#002E6E"/>
<path d="M995.832 203.13C995.913 203.204 995.992 203.281 996.068 203.36C996.44 203.738 995.788 202.993 996.088 203.388C996.24 203.587 996.371 203.803 996.501 204.013C996.864 204.592 997.278 205.054 997.858 205.417C999.298 206.319 1001.05 205.437 1002.34 204.725C1003.54 204.065 1003.58 202.297 1002.63 201.431C1001.67 200.562 1000.71 199.693 999.75 198.821C998.971 199.953 998.19 201.082 997.411 202.214C998.494 202.946 999.577 203.678 1000.66 204.412C1001.42 204.922 1002.58 204.574 1003.14 203.956C1003.78 203.259 1003.84 202.239 1003.36 201.446C1002.91 200.695 1002.33 200.024 1001.64 199.488C1001.32 199.241 1000.98 199.022 1000.64 198.8C1000.53 198.725 1000.41 198.648 1000.3 198.573C1000.67 198.817 1000.16 198.441 1000.12 198.41C999.621 197.98 998.754 197.663 998.101 197.964C997.113 198.421 996.453 198.967 996.174 200.056C996.094 200.357 996.1 200.699 996.153 201.007C996.184 201.214 996.224 201.423 996.266 201.63C996.273 201.662 996.28 201.694 996.286 201.725C996.163 201.327 996.197 200.93 996.392 200.53C996.641 200.255 996.888 199.984 997.135 199.713C997.396 199.633 997.655 199.556 997.917 199.477C996.793 199.622 995.879 200.453 995.937 201.654C995.989 202.716 996.991 203.778 998.117 203.63C999.209 203.487 1000.07 202.907 1000.33 201.779C1000.44 201.314 1000.34 200.933 1000.26 200.477C1000.19 200.098 1000.33 200.998 1000.28 200.596C1000.35 201.211 999.859 201.698 999.351 201.931C998.677 201.784 998 201.635 997.328 201.485C997.828 201.913 998.394 202.263 998.942 202.627C998.677 202.453 999.312 202.957 999.377 203.016C999.576 203.202 999.679 203.392 999.845 203.67C1000.75 202.68 1001.64 201.692 1002.54 200.702C1001.46 199.97 1000.38 199.238 999.293 198.504C998.539 197.994 997.374 198.342 996.812 198.96C996.049 199.8 996.113 201.134 996.954 201.896C997.912 202.765 998.87 203.634 999.832 204.506C999.926 203.407 1000.02 202.308 1000.12 201.212C1000.05 201.25 999.249 201.644 999.603 201.491C999.414 201.575 999.216 201.635 999.015 201.688C999.333 201.608 999.391 201.605 999.885 201.787C999.698 201.689 999.779 201.752 1000.14 201.973C999.996 201.868 999.827 201.582 1000.25 202.136C999.71 201.429 999.298 200.679 998.633 200.055C996.679 198.212 993.883 201.292 995.832 203.13Z" fill="#002E6E"/>
<defs>
<linearGradient id="paint0_linear_1407_3060" x1="960" y1="0" x2="960" y2="1080" gradientUnits="userSpaceOnUse">
<stop stop-color="#DFECFF"/>
<stop offset="1" stop-color="#ADCEFF"/>
</linearGradient>
</defs>
</svg>
