<svg width="1920" height="762" viewBox="0 0 1920 762" fill="none" xmlns="http://www.w3.org/2000/svg">
<g clip-path="url(#clip0_1355_2924)">
<circle cx="941" cy="872" r="779" fill="url(#paint0_linear_1355_2924)"/>
<circle cx="941" cy="872" r="774" stroke="url(#paint1_linear_1355_2924)" stroke-opacity="0.5" stroke-width="10"/>
<path d="M1588.08 135.04C1588.08 142.242 1582.24 148.081 1575.04 148.081C1567.84 148.081 1562 142.242 1562 135.04C1562 127.838 1567.84 122 1575.04 122C1582.24 122 1588.08 127.838 1588.08 135.04Z" fill="white"/>
<path d="M212.743 422.97C212.743 430.172 206.905 436.01 199.703 436.01C192.501 436.01 186.662 430.172 186.662 422.97C186.662 415.768 192.501 409.93 199.703 409.93C206.905 409.93 212.743 415.768 212.743 422.97Z" fill="white"/>
<path d="M137.081 697.04C137.081 704.242 131.242 710.081 124.04 710.081C116.838 710.081 111 704.242 111 697.04C111 689.838 116.838 684 124.04 684C131.242 684 137.081 689.838 137.081 697.04Z" fill="white"/>
<path d="M725.081 237.04C725.081 244.242 719.242 250.081 712.04 250.081C704.838 250.081 699 244.242 699 237.04C699 229.838 704.838 224 712.04 224C719.242 224 725.081 229.838 725.081 237.04Z" fill="white"/>
<path d="M799.081 159.04C799.081 166.242 793.242 172.081 786.04 172.081C778.838 172.081 773 166.242 773 159.04C773 151.838 778.838 146 786.04 146C793.242 146 799.081 151.838 799.081 159.04Z" fill="white"/>
<path d="M1695.08 470.04C1695.08 477.242 1689.24 483.081 1682.04 483.081C1674.84 483.081 1669 477.242 1669 470.04C1669 462.838 1674.84 457 1682.04 457C1689.24 457 1695.08 462.838 1695.08 470.04Z" fill="white"/>
<path d="M1780.08 317.04C1780.08 324.242 1774.24 330.081 1767.04 330.081C1759.84 330.081 1754 324.242 1754 317.04C1754 309.838 1759.84 304 1767.04 304C1774.24 304 1780.08 309.838 1780.08 317.04Z" fill="white"/>
<path d="M480.851 147.56C480.851 154.762 475.012 160.6 467.81 160.6C460.608 160.6 454.77 154.762 454.77 147.56C454.77 140.358 460.608 134.52 467.81 134.52C475.012 134.52 480.851 140.358 480.851 147.56Z" fill="white"/>
<path d="M200.081 172.04C200.081 179.242 194.242 185.081 187.04 185.081C179.838 185.081 174 179.242 174 172.04C174 164.838 179.838 159 187.04 159C194.242 159 200.081 164.838 200.081 172.04Z" fill="white"/>
<path d="M1377.08 211.04C1377.08 218.242 1371.24 224.081 1364.04 224.081C1356.84 224.081 1351 218.242 1351 211.04C1351 203.838 1356.84 198 1364.04 198C1371.24 198 1377.08 203.838 1377.08 211.04Z" fill="white"/>
<path d="M1403.08 304.04C1403.08 311.242 1397.24 317.081 1390.04 317.081C1382.84 317.081 1377 311.242 1377 304.04C1377 296.838 1382.84 291 1390.04 291C1397.24 291 1403.08 296.838 1403.08 304.04Z" fill="white"/>
<path d="M1131.08 93.0403C1131.08 100.242 1125.24 106.081 1118.04 106.081C1110.84 106.081 1105 100.242 1105 93.0403C1105 85.8383 1110.84 80 1118.04 80C1125.24 80 1131.08 85.8383 1131.08 93.0403Z" fill="white"/>
<path d="M124.081 614.04C124.081 621.242 118.242 627.081 111.04 627.081C103.838 627.081 98 621.242 98 614.04C98 606.838 103.838 601 111.04 601C118.242 601 124.081 606.838 124.081 614.04Z" fill="white"/>
</g>
<defs>
<linearGradient id="paint0_linear_1355_2924" x1="941" y1="93" x2="941" y2="872" gradientUnits="userSpaceOnUse">
<stop stop-color="white" stop-opacity="0.5"/>
<stop offset="1" stop-color="white" stop-opacity="0"/>
</linearGradient>
<linearGradient id="paint1_linear_1355_2924" x1="941" y1="93" x2="941" y2="751" gradientUnits="userSpaceOnUse">
<stop stop-color="white"/>
<stop offset="1" stop-color="white" stop-opacity="0.5"/>
</linearGradient>
<clipPath id="clip0_1355_2924">
<rect width="1920" height="762" fill="white"/>
</clipPath>
</defs>
</svg>
