<svg width="295" height="348" viewBox="0 0 295 348" fill="none" xmlns="http://www.w3.org/2000/svg">
<g filter="url(#filter0_f_1355_4475)">
<path d="M253.084 84.8001C261.773 120.588 221.503 161.053 163.14 175.182C104.777 189.311 50.4203 171.753 41.7319 135.965C33.0434 100.178 73.3129 59.7123 131.676 45.5834C190.04 31.4546 244.396 49.0125 253.084 84.8001Z" fill="url(#paint0_radial_1355_4475)"/>
</g>
<path d="M51 252.699C51 204.927 89.7274 166.199 137.5 166.199C185.273 166.199 224 204.927 224 252.699C224 300.472 185.273 339.199 137.5 339.199C89.7274 339.199 51 300.472 51 252.699Z" fill="white"/>
<path d="M68.0328 157.462C68.0328 119.099 99.1321 87.9996 137.495 87.9996C175.858 87.9996 206.957 119.099 206.957 157.462C206.957 195.825 175.858 226.924 137.495 226.924C99.132 226.924 68.0328 195.825 68.0328 157.462Z" fill="white"/>
<path d="M114.989 145.112C114.989 155.186 106.823 163.353 96.7446 163.353C86.6701 163.353 78.5039 155.186 78.5039 145.112C78.5039 135.037 86.6701 126.871 96.7446 126.871C106.823 126.867 114.989 135.033 114.989 145.112Z" fill="#AEC5E7"/>
<path d="M96.7522 163.78C86.4561 163.78 78.084 155.404 78.084 145.112C78.084 134.816 86.46 126.443 96.7522 126.443C107.048 126.443 115.42 134.819 115.42 145.112C115.424 155.404 107.048 163.78 96.7522 163.78ZM96.7522 127.295C86.9303 127.295 78.9391 135.286 78.9391 145.108C78.9391 154.93 86.9303 162.921 96.7522 162.921C106.574 162.921 114.569 154.93 114.569 145.108C114.569 135.286 106.578 127.295 96.7522 127.295Z" fill="white"/>
<path d="M187.947 144.674C187.947 154.749 179.777 162.915 169.703 162.915C159.628 162.915 151.462 154.749 151.462 144.674C151.462 134.6 159.628 126.434 169.703 126.434C179.777 126.43 187.947 134.596 187.947 144.674Z" fill="#AEC5E7"/>
<path d="M169.71 163.342C159.418 163.342 151.042 154.966 151.042 144.674C151.042 134.378 159.418 126.006 169.71 126.006C180.006 126.006 188.382 134.382 188.382 144.674C188.382 154.966 180.006 163.342 169.71 163.342ZM169.71 126.857C159.888 126.857 151.897 134.848 151.897 144.67C151.897 154.492 159.888 162.483 169.71 162.483C179.532 162.483 187.527 154.492 187.527 144.67C187.527 134.848 179.536 126.857 169.71 126.857Z" fill="white"/>
<path d="M118.67 124.416C118.275 125.174 117.845 125.871 117.524 126.672C117.094 127.754 117.186 128.989 117.432 130.099C117.877 132.11 120.621 131.822 121.208 130.099C121.688 128.69 122.293 127.33 122.774 125.925C121.514 125.579 120.258 125.231 118.998 124.885C118.525 126.405 118.407 127.996 118.407 129.58C118.407 130.452 119.005 131.235 119.845 131.466C120.614 131.676 121.713 131.359 122.055 130.566C122.728 129.003 122.984 126.302 121.368 125.195C120.553 124.636 119.112 124.971 118.688 125.896C118.5 126.309 118.436 126.508 118.407 126.967C118.339 128.035 119.347 128.925 120.365 128.925C121.482 128.925 122.254 128.032 122.322 126.967C122.322 126.946 122.326 126.928 122.326 126.907C122.237 127.238 122.148 127.565 122.059 127.896C122.062 127.889 122.066 127.882 122.069 127.875C121.176 128.11 120.283 128.345 119.389 128.576C119.396 128.58 119.4 128.583 119.404 128.587C119.169 128.352 118.934 128.117 118.702 127.886C118.411 127.281 118.553 127.53 118.599 127.743C118.702 128.217 118.56 127.281 118.617 127.868C118.635 128.064 118.635 128.259 118.635 128.455C118.617 128.697 118.621 128.722 118.646 128.53C118.574 128.758 118.585 128.779 118.674 128.59C119.891 128.921 121.105 129.249 122.322 129.58C122.322 128.32 122.397 127.135 122.774 125.925C123.091 124.907 122.407 123.793 121.407 123.515C120.332 123.22 119.343 123.875 118.998 124.882C118.517 126.291 117.912 127.651 117.432 129.057C118.692 129.057 119.948 129.057 121.208 129.057C121.144 128.772 121.133 128.544 121.144 128.249C121.137 128.444 121.393 127.519 121.261 127.814C121.486 127.32 121.806 126.871 122.055 126.391C123.219 124.156 119.841 122.177 118.67 124.416Z" fill="#002E6E"/>
<path d="M138.751 124.36C138.751 124.464 138.748 124.567 138.74 124.67C138.712 125.168 138.819 124.243 138.733 124.702C138.691 124.933 138.623 125.161 138.559 125.385C138.385 126.005 138.324 126.585 138.438 127.218C138.719 128.791 140.442 129.453 141.755 129.902C142.972 130.318 144.232 129.229 144.232 128.016C144.232 126.798 144.232 125.581 144.232 124.36C142.951 124.535 141.67 124.706 140.388 124.88C140.563 126.097 140.737 127.314 140.911 128.535C141.032 129.382 142.011 129.973 142.798 129.973C143.684 129.973 144.435 129.371 144.684 128.535C144.922 127.745 145.026 126.919 144.962 126.097C144.933 125.72 144.869 125.343 144.812 124.969C144.791 124.841 144.773 124.713 144.752 124.585C144.816 124.997 144.755 124.403 144.755 124.36C144.737 123.738 144.41 122.933 143.787 122.67C142.844 122.271 142.047 122.157 141.111 122.652C140.851 122.787 140.616 123.008 140.435 123.239C140.31 123.392 140.189 123.553 140.072 123.713C140.054 123.738 140.036 123.763 140.018 123.787C140.217 123.449 140.516 123.222 140.919 123.104C141.267 123.104 141.613 123.104 141.958 123.104C142.178 123.236 142.396 123.367 142.616 123.499C141.805 122.809 140.648 122.698 139.847 123.499C139.139 124.207 139.032 125.578 139.847 126.268C140.637 126.937 141.588 127.172 142.538 126.638C142.929 126.418 143.132 126.108 143.399 125.763C143.62 125.474 143.079 126.14 143.332 125.855C142.947 126.293 142.296 126.257 141.812 126.051C141.488 125.489 141.164 124.923 140.844 124.36C140.862 124.98 140.976 125.595 141.068 126.208C141.022 125.912 141.072 126.674 141.072 126.756C141.068 127.012 141 127.204 140.911 127.496C142.171 127.496 143.428 127.496 144.688 127.496C144.513 126.279 144.339 125.062 144.164 123.841C144.043 122.994 143.065 122.403 142.278 122.403C141.21 122.403 140.321 123.293 140.321 124.36C140.321 125.578 140.321 126.795 140.321 128.016C141.146 127.386 141.972 126.756 142.798 126.129C142.727 126.104 141.947 125.798 142.278 125.948C142.1 125.869 141.933 125.77 141.769 125.663C142.025 125.834 142.065 125.873 142.25 126.332C142.2 126.14 142.207 126.236 142.278 126.624C142.264 126.46 142.356 126.161 142.239 126.809C142.388 125.983 142.652 125.222 142.666 124.364C142.716 121.837 138.801 121.841 138.751 124.36Z" fill="#002E6E"/>
<path d="M133.099 129.726L133.627 133.246C133.805 134.432 132.895 135.502 131.695 135.517L130.309 135.535C129.017 135.551 128.057 134.345 128.362 133.09L129.22 129.553C129.732 127.443 132.777 127.579 133.099 129.726Z" fill="#FF8800"/>
<defs>
<filter id="filter0_f_1355_4475" x="0.552734" y="0.697266" width="293.711" height="219.371" filterUnits="userSpaceOnUse" color-interpolation-filters="sRGB">
<feFlood flood-opacity="0" result="BackgroundImageFix"/>
<feBlend mode="normal" in="SourceGraphic" in2="BackgroundImageFix" result="shape"/>
<feGaussianBlur stdDeviation="20" result="effect1_foregroundBlur_1355_4475"/>
</filter>
<radialGradient id="paint0_radial_1355_4475" cx="0" cy="0" r="1" gradientUnits="userSpaceOnUse" gradientTransform="translate(147.408 110.383) rotate(-13.6086) scale(108.729 66.6816)">
<stop stop-color="#AEC5E7" stop-opacity="0.6"/>
<stop offset="1" stop-color="#AEC5E7" stop-opacity="0"/>
</radialGradient>
</defs>
</svg>
