<svg width="44" height="44" viewBox="0 0 44 44" fill="none" xmlns="http://www.w3.org/2000/svg">
<path d="M33.443 33.7961C33.7621 33.7712 34.0082 33.5045 33.9994 33.187C33.8539 27.9764 33.1875 22.8334 31.4561 17.9114C31.367 17.658 31.1156 17.498 30.8459 17.5195C24.3539 18.0375 17.8542 18.5555 11.3621 19.0735C11.0214 19.1007 10.7723 19.404 10.8129 19.7407C11.45 25.0173 11.8873 30.5983 12.5258 35.8728C12.5639 36.1879 12.8453 36.4173 13.1641 36.3921C20.1795 35.8379 26.4357 34.3425 33.443 33.7961Z" fill="#9CBAE3"/>
<path d="M10.0532 22.6164C10.071 22.9714 10.3941 23.2309 10.7441 23.1734C18.0342 21.9765 25.413 20.8538 32.6954 19.657C33.0519 19.5984 33.2749 19.2382 33.1611 18.8947C32.8406 17.9268 32.4979 17.0378 32.1805 16.054C32.0935 15.7843 31.8333 15.6079 31.5517 15.6333C24.6047 16.2589 17.6577 16.8769 10.7106 17.5025C10.4305 17.5277 10.2053 17.7462 10.1738 18.0264C9.97384 19.805 9.96537 20.8729 10.0532 22.6164Z" fill="#356DBC"/>
<path d="M23.4295 15.9004C23.7132 15.8969 23.9503 16.1093 23.9942 16.3911C24.9323 22.4088 25.7739 28.4565 26.7112 34.4822C26.7601 34.7967 26.5545 35.0947 26.2436 35.1547C24.9901 35.3969 23.7097 35.6037 22.4601 35.8445C22.122 35.9097 21.7973 35.6761 21.7538 35.3328C20.9857 29.2753 20.2103 23.225 19.4423 17.1674C19.4074 16.8926 19.5655 16.6286 19.8269 16.541C21.001 16.1472 22.1946 15.916 23.4295 15.9004Z" fill="#002E6E"/>
<path d="M11.0941 27.9865C11.1072 27.7468 11.2667 27.5428 11.4907 27.4678C18.4657 25.1318 25.7606 23.7798 33.1021 23.4518C33.3818 23.4393 33.6315 23.6291 33.6917 23.9073C33.7981 24.3989 33.8855 24.8905 33.9864 25.3821C34.0537 25.7104 33.8551 26.0382 33.5341 26.1143C26.3797 27.8103 19.2554 29.5601 12.1007 31.2556C11.8232 31.3213 11.5359 31.1777 11.4422 30.9039C11.1189 29.9588 11.0392 28.9905 11.0941 27.9865Z" fill="#356DBC"/>
<path d="M15.425 18.8166C14.4258 18.6935 13.5151 18.333 12.7812 17.7615C11.0658 16.4339 10.5618 13.9986 11.6582 12.3193C12.3125 11.3171 13.5062 10.6401 14.8325 10.5258C15.8317 10.4379 16.9105 10.6401 18.0334 11.1412C19.9345 11.9853 21.1635 13.3304 22.4722 14.869L22.8031 15.2603C22.99 15.4813 22.99 15.8041 22.8031 16.0251L22.4722 16.4164C21.3227 17.7879 18.7143 18.4825 17.945 18.6583C17.0696 18.8693 16.2208 18.9133 15.425 18.8166ZM15.6725 12.9524C15.4515 12.926 15.2393 12.9172 15.0359 12.9348C14.4523 12.9875 13.9395 13.2601 13.6831 13.6381C13.2852 14.2536 13.5593 15.3086 14.2578 15.8537C15.0005 16.4252 16.1589 16.601 17.3614 16.3197C17.9506 16.1849 18.5358 15.9956 19.0464 15.7879C19.4086 15.6407 19.4937 15.1836 19.2172 14.9083C18.5582 14.2524 17.8824 13.7309 17.0254 13.3568C16.5479 13.137 16.097 13.0051 15.6725 12.9524Z" fill="#002E6E"/>
<path d="M23.444 16.665C23.1995 16.6298 22.9725 16.5859 22.7542 16.5156L22.2703 16.3548C21.9995 16.2648 21.8314 15.9928 21.871 15.7085L21.9422 15.1979C22.2129 13.2037 22.536 11.4116 23.6885 9.69855C24.3695 8.6795 25.1641 7.94156 26.046 7.49353C27.216 6.89615 28.5693 6.83465 29.652 7.34417C31.4507 8.18752 32.315 10.5155 31.5816 12.5449C31.0053 14.1174 29.6083 15.3912 27.7486 16.0325C27.0762 16.2521 25.0593 16.8758 23.444 16.665ZM25.6705 11.0514C25.1543 11.82 24.8606 12.6214 24.6524 13.5243C24.5652 13.9024 24.8758 14.2445 25.2558 14.1777C25.7922 14.0833 26.3804 13.933 26.9453 13.7396C28.1066 13.3443 28.9797 12.58 29.3027 11.7103C29.6083 10.8757 29.2765 9.83911 28.6217 9.53163C28.2113 9.33837 27.635 9.38227 27.1199 9.64582C26.6048 9.90936 26.1158 10.3838 25.6705 11.0514Z" fill="#002E6E"/>
</svg>
