<svg width="28" height="37" viewBox="0 0 28 37" fill="none" xmlns="http://www.w3.org/2000/svg">
<g id="Group 679">
<g id="Group 620">
<path id="Rectangle 34624657" d="M11.1641 28.6026C11.1641 27.6905 11.9034 26.9512 12.8154 26.9512H15.1274C16.0394 26.9512 16.7788 27.6905 16.7788 28.6026V34.6136C16.7788 35.5256 16.0394 36.265 15.1274 36.265H12.8154C11.9034 36.265 11.1641 35.5256 11.1641 34.6136V28.6026Z" fill="#744108"/>
<path id="Union" fill-rule="evenodd" clip-rule="evenodd" d="M12.5591 0.592772C13.3571 -0.197591 14.6429 -0.19759 15.4409 0.592773L21.8186 6.909C23.1182 8.1961 22.2068 10.4117 20.3777 10.4117H18.2674L23.7814 15.8956C25.0769 17.1839 24.1645 19.3952 22.3375 19.3952H21.3749L27.3935 25.3924C28.6871 26.6814 27.7743 28.8907 25.9482 28.8907H2.05182C0.225741 28.8907 -0.687082 26.6814 0.606453 25.3924L6.62509 19.3952H5.66252C3.83549 19.3952 2.92311 17.1839 4.21855 15.8956L9.7326 10.4117H7.62233C5.79322 10.4117 4.88178 8.1961 6.1814 6.909L12.5591 0.592772Z" fill="#509D38"/>
</g>
<g id="Group 630">
<path id="Vector 52 (Stroke)" fill-rule="evenodd" clip-rule="evenodd" d="M19.1768 4.22095C19.198 4.25061 19.1912 4.29187 19.1615 4.31312C18.0107 5.1375 15.9177 6.26473 13.4712 7.13971C11.0802 7.99483 8.34541 8.61125 5.81807 8.46514C7.61087 10.2521 10.6473 12.8056 13.9986 14.6632C17.4318 16.5661 21.177 17.7283 24.2529 16.6157L24.4573 16.5418L24.3286 16.717C21.2711 20.8783 12.0315 28.6723 0.0538594 26.4199C0.0180064 26.4132 -0.00559246 26.3786 0.0011498 26.3428C0.00789207 26.3069 0.0424224 26.2833 0.0782754 26.2901C11.8239 28.4989 20.9294 20.9878 24.0943 16.81C21.0014 17.8217 17.2998 16.644 13.9346 14.7787C10.4916 12.8704 7.38208 10.2322 5.60083 8.43438L5.47694 8.30933L5.65251 8.322C8.20272 8.50604 10.9893 7.88703 13.4267 7.01531C15.8638 6.14368 17.9455 5.02172 19.0846 4.20572C19.1143 4.18448 19.1555 4.1913 19.1768 4.22095Z" fill="white"/>
<g id="Group 629">
<path id="Ellipse 571" d="M18.2327 5.15149C18.2327 5.44334 17.9961 5.67993 17.7042 5.67993C17.4124 5.67993 17.1758 5.44334 17.1758 5.15149C17.1758 4.85964 17.4124 4.62305 17.7042 4.62305C17.9961 4.62305 18.2327 4.85964 18.2327 5.15149Z" fill="#FFAE00"/>
<path id="Ellipse 572" d="M9.77954 8.15717C9.77954 8.46727 9.54295 8.71865 9.2511 8.71865C8.95925 8.71865 8.72266 8.46727 8.72266 8.15717C8.72266 7.84708 8.95925 7.5957 9.2511 7.5957C9.54295 7.5957 9.77954 7.84708 9.77954 8.15717Z" fill="#FFAE00"/>
<path id="Ellipse 576" d="M14.0061 7.06751C14.0061 7.35936 13.7695 7.59595 13.4777 7.59595C13.1858 7.59595 12.9492 7.35936 12.9492 7.06751C12.9492 6.77565 13.1858 6.53906 13.4777 6.53906C13.7695 6.53906 14.0061 6.77565 14.0061 7.06751Z" fill="#E76E23"/>
<path id="Ellipse 577" d="M11.1643 12.6163C11.1643 12.9082 10.9277 13.1448 10.6359 13.1448C10.344 13.1448 10.1074 12.9082 10.1074 12.6163C10.1074 12.3245 10.344 12.0879 10.6359 12.0879C10.9277 12.0879 11.1643 12.3245 11.1643 12.6163Z" fill="#E76E23"/>
<path id="Ellipse 578" d="M21.9319 17.1066C21.9319 17.3984 21.6953 17.635 21.4034 17.635C21.1116 17.635 20.875 17.3984 20.875 17.1066C20.875 16.8147 21.1116 16.5781 21.4034 16.5781C21.6953 16.5781 21.9319 16.8147 21.9319 17.1066Z" fill="#E76E23"/>
<path id="Ellipse 579" d="M14.9319 24.4406C14.9319 24.7324 14.6953 24.969 14.4034 24.969C14.1116 24.969 13.875 24.7324 13.875 24.4406C13.875 24.1487 14.1116 23.9121 14.4034 23.9121C14.6953 23.9121 14.9319 24.1487 14.9319 24.4406Z" fill="#E76E23"/>
<path id="Ellipse 573" d="M16.2522 15.7199C16.2522 16.0117 16.0156 16.2483 15.7238 16.2483C15.4319 16.2483 15.1953 16.0117 15.1953 15.7199C15.1953 15.428 15.4319 15.1914 15.7238 15.1914C16.0156 15.1914 16.2522 15.428 16.2522 15.7199Z" fill="#FFAE00"/>
<path id="Ellipse 574" d="M19.4885 21.8644C19.4885 22.1562 19.2519 22.3928 18.9601 22.3928C18.6682 22.3928 18.4316 22.1562 18.4316 21.8644C18.4316 21.5725 18.6682 21.3359 18.9601 21.3359C19.2519 21.3359 19.4885 21.5725 19.4885 21.8644Z" fill="#FFAE00"/>
<path id="Ellipse 580" d="M9.844 26.2238C9.844 26.5156 9.6074 26.7522 9.31555 26.7522C9.0237 26.7522 8.78711 26.5156 8.78711 26.2238C8.78711 25.9319 9.0237 25.6953 9.31555 25.6953C9.6074 25.6953 9.844 25.9319 9.844 26.2238Z" fill="#FFAE00"/>
<path id="Ellipse 575" d="M4.36158 26.7511C4.36158 27.043 4.12498 27.2795 3.83313 27.2795C3.54128 27.2795 3.30469 27.043 3.30469 26.7511C3.30469 26.4592 3.54128 26.2227 3.83313 26.2227C4.12498 26.2227 4.36158 26.4592 4.36158 26.7511Z" fill="#E76E23"/>
</g>
</g>
</g>
</svg>
