<svg width="44" height="44" viewBox="0 0 44 44" fill="none" xmlns="http://www.w3.org/2000/svg">
<path d="M19.3164 32.1267C19.3164 31.1873 20.0779 30.4258 21.0173 30.4258H22.927C23.8664 30.4258 24.6279 31.1873 24.6279 32.1267V37.5357C24.6279 38.4751 23.8664 39.2366 22.927 39.2366H21.0173C20.0779 39.2366 19.3164 38.4751 19.3164 37.5357V32.1267Z" fill="#744108"/>
<path fill-rule="evenodd" clip-rule="evenodd" d="M20.5159 5.61055C21.3379 4.79649 22.6622 4.79648 23.4842 5.61054L29.0993 11.1716C30.4379 12.4973 29.4991 14.7793 27.6152 14.7793H26.0369L30.9576 19.6732C32.2919 21.0001 31.3522 23.2777 29.4703 23.2777H28.9767L34.3754 28.6572C35.7077 29.9848 34.7675 32.2604 32.8867 32.2604H11.1133C9.23251 32.2604 8.29232 29.9848 9.62464 28.6572L15.0233 23.2777H14.5296C12.6478 23.2777 11.708 21.0001 13.0423 19.6732L17.963 14.7793H16.3849C14.5009 14.7793 13.5621 12.4973 14.9007 11.1716L20.5159 5.61055Z" fill="#509D38"/>
<path d="M26.3153 7.97423C25.9959 8.55206 24.9562 8.58888 23.9932 8.05648C23.0302 7.52408 22.5084 6.62407 22.8279 6.04624C23.1473 5.46842 24.1869 5.4316 25.15 5.964C26.113 6.4964 26.6348 7.39641 26.3153 7.97423Z" fill="white"/>
<path d="M27.5371 9.39394C27.3632 9.70853 26.8006 9.7305 26.2806 9.443C25.7605 9.15551 25.4799 8.66742 25.6538 8.35282C25.8278 8.03823 26.3903 8.01626 26.9104 8.30376C27.4304 8.59126 27.711 9.07935 27.5371 9.39394Z" fill="white"/>
<path d="M17.4001 16.0849C17.5904 16.4954 17.19 17.0853 16.5059 17.4024C15.8218 17.7196 15.113 17.6439 14.9227 17.2335C14.7324 16.823 15.1327 16.2331 15.8168 15.916C16.5009 15.5988 17.2098 15.6745 17.4001 16.0849Z" fill="white"/>
<path d="M14.7582 18.277C14.8475 18.4697 14.7182 18.7195 14.4694 18.8348C14.2206 18.9502 13.9465 18.8874 13.8571 18.6947C13.7677 18.502 13.897 18.2522 14.1458 18.1368C14.3947 18.0215 14.6688 18.0842 14.7582 18.277Z" fill="white"/>
</svg>
