<svg width="44" height="44" viewBox="0 0 44 44" fill="none" xmlns="http://www.w3.org/2000/svg">
<path d="M10.9062 30.9393C10.9062 30.0484 11.6285 29.3262 12.5194 29.3262H14.7779C15.6688 29.3262 16.391 30.0484 16.391 30.9393V36.8113C16.391 37.7022 15.6688 38.4245 14.7779 38.4245H12.5194C11.6285 38.4245 10.9062 37.7022 10.9062 36.8113V30.9393Z" fill="#744108"/>
<path fill-rule="evenodd" clip-rule="evenodd" d="M12.2684 3.57905C13.048 2.80698 14.304 2.80698 15.0836 3.57906L21.3137 9.74912C22.5832 11.0064 21.6929 13.1707 19.9061 13.1707H17.8447L23.2311 18.5277C24.4966 19.7863 23.6053 21.9464 21.8206 21.9464H20.8803L26.7596 27.8048C28.0232 29.0639 27.1315 31.2221 25.3477 31.2221H2.00434C0.220517 31.2221 -0.671182 29.0639 0.59242 27.8048L6.47178 21.9464H5.53149C3.74674 21.9464 2.85546 19.7863 4.12093 18.5277L9.50738 13.1707H7.44594C5.65916 13.1707 4.76882 11.0064 6.03836 9.74912L12.2684 3.57905Z" fill="#448E2D"/>
<path d="M27.5547 31.5214C27.5547 30.6304 28.2769 29.9082 29.1679 29.9082H31.4263C32.3172 29.9082 33.0395 30.6304 33.0395 31.5214V37.3933C33.0395 38.2843 32.3172 39.0065 31.4263 39.0065H29.1679C28.2769 39.0065 27.5547 38.2843 27.5547 37.3933V31.5214Z" fill="#744108"/>
<path fill-rule="evenodd" clip-rule="evenodd" d="M28.9169 4.16109C29.6965 3.38901 30.9525 3.38901 31.732 4.16109L37.9621 10.3312C39.2317 11.5885 38.3413 13.7528 36.5545 13.7528H34.4931L39.8796 19.1098C41.145 20.3683 40.2537 22.5284 38.469 22.5284H37.5287L43.4081 28.3869C44.6717 29.646 43.78 31.8042 41.9961 31.8042H18.6528C16.869 31.8042 15.9773 29.646 17.2409 28.3869L23.1202 22.5284H22.1799C20.3952 22.5284 19.5039 20.3683 20.7694 19.1098L26.1558 13.7528H24.0944C22.3076 13.7528 21.4173 11.5885 22.6868 10.3312L28.9169 4.16109Z" fill="#509D38"/>
<path d="M18.7773 33.8436C18.7773 32.9527 19.4996 32.2305 20.3905 32.2305H22.649C23.5399 32.2305 24.2621 32.9527 24.2621 33.8436V39.7156C24.2621 40.6065 23.5399 41.3288 22.649 41.3288H20.3905C19.4996 41.3288 18.7773 40.6065 18.7773 39.7156V33.8436Z" fill="#86643C"/>
<path fill-rule="evenodd" clip-rule="evenodd" d="M20.0106 6.48335C20.7902 5.71128 22.0462 5.71128 22.8258 6.48335L29.0559 12.6534C30.3254 13.9107 29.4351 16.075 27.6483 16.075H25.5869L30.9733 21.432C32.2388 22.6906 31.3475 24.8507 29.5627 24.8507H28.6225L34.5018 30.7091C35.7654 31.9682 34.8737 34.1264 33.0899 34.1264H9.74653C7.9627 34.1264 7.07101 31.9682 8.33461 30.7091L14.214 24.8507H13.2737C11.4889 24.8507 10.5976 22.6906 11.8631 21.432L17.2496 16.075H15.1881C13.4013 16.075 12.511 13.9107 13.7805 12.6534L20.0106 6.48335Z" fill="#6CB257"/>
<path d="M30.4069 39.6113C30.4069 40.4796 29.2337 41.1836 27.7864 41.1836C26.3392 41.1836 25.166 40.4796 25.166 39.6113C25.166 38.743 26.3392 38.0391 27.7864 38.0391C29.2337 38.0391 30.4069 38.743 30.4069 39.6113Z" fill="white"/>
<path d="M32.7148 40.4673C32.7148 40.9401 32.0813 41.3233 31.2998 41.3233C30.5183 41.3233 29.8848 40.9401 29.8848 40.4673C29.8848 39.9946 30.5183 39.6113 31.2998 39.6113C32.0813 39.6113 32.7148 39.9946 32.7148 40.4673Z" fill="white"/>
<path d="M16.832 40.4673C16.832 40.9401 16.1985 41.3233 15.417 41.3233C14.6355 41.3233 14.002 40.9401 14.002 40.4673C14.002 39.9946 14.6355 39.6113 15.417 39.6113C16.1985 39.6113 16.832 39.9946 16.832 40.4673Z" fill="white"/>
<path d="M31.6826 30.9409C31.6826 31.6537 31.1048 32.2315 30.3921 32.2315C29.6794 32.2315 29.1016 31.6537 29.1016 30.9409C29.1016 30.2282 29.6794 29.6504 30.3921 29.6504C31.1048 29.6504 31.6826 30.2282 31.6826 30.9409Z" fill="#FF8800"/>
<path d="M27.2295 20.0347C27.2295 20.7474 26.6517 21.3252 25.939 21.3252C25.2262 21.3252 24.6484 20.7474 24.6484 20.0347C24.6484 19.3219 25.2262 18.7441 25.939 18.7441C26.6517 18.7441 27.2295 19.3219 27.2295 20.0347Z" fill="#FF8800"/>
<path d="M26.4561 13.7124C26.4561 14.4252 25.8783 15.003 25.1655 15.003C24.4528 15.003 23.875 14.4252 23.875 13.7124C23.875 12.9997 24.4528 12.4219 25.1655 12.4219C25.8783 12.4219 26.4561 12.9997 26.4561 13.7124Z" fill="#FFAE00"/>
<path d="M19.292 20.7456C19.292 21.4584 18.7142 22.0362 18.0015 22.0362C17.2887 22.0362 16.7109 21.4584 16.7109 20.7456C16.7109 20.0329 17.2887 19.4551 18.0015 19.4551C18.7142 19.4551 19.292 20.0329 19.292 20.7456Z" fill="#FFAE00"/>
<path d="M15.292 30.23C15.292 30.9427 14.7142 31.5205 14.0015 31.5205C13.2887 31.5205 12.7109 30.9427 12.7109 30.23C12.7109 29.5172 13.2887 28.9395 14.0015 28.9395C14.7142 28.9395 15.292 29.5172 15.292 30.23Z" fill="#FFAE00"/>
<path d="M24.6475 27.6499C24.6475 28.3627 24.0697 28.9405 23.3569 28.9405C22.6442 28.9405 22.0664 28.3627 22.0664 27.6499C22.0664 26.9372 22.6442 26.3594 23.3569 26.3594C24.0697 26.3594 24.6475 26.9372 24.6475 27.6499Z" fill="#E76E23"/>
<path d="M20.583 10.7437C20.583 11.4564 20.0052 12.0342 19.2925 12.0342C18.5797 12.0342 18.002 11.4564 18.002 10.7437C18.002 10.0309 18.5797 9.45312 19.2925 9.45312C20.0052 9.45312 20.583 10.0309 20.583 10.7437Z" fill="#E76E23"/>
</svg>
