<svg width="24" height="30" viewBox="0 0 24 30" fill="none" xmlns="http://www.w3.org/2000/svg">
<g id="Group 4486884">
<path id="Vector" d="M23.443 26.7961C23.7621 26.7712 24.0082 26.5045 23.9994 26.187C23.8539 20.9764 23.1875 15.8334 21.4561 10.9114C21.367 10.658 21.1156 10.498 20.8459 10.5195C14.3539 11.0375 7.85422 11.5555 1.36206 12.0735C1.0214 12.1007 0.772288 12.404 0.812943 12.7407C1.45002 18.0173 1.88731 23.5983 2.52579 28.8728C2.56392 29.1879 2.84532 29.4173 3.16408 29.3921C10.1795 28.8379 16.4357 27.3425 23.443 26.7961Z" fill="#9CBAE3"/>
<path id="Vector_2" d="M0.0531532 15.6164C0.0710268 15.9714 0.394111 16.2309 0.744109 16.1734C8.03424 14.9765 15.413 13.8538 22.6954 12.657C23.0519 12.5984 23.2749 12.2382 23.1611 11.8947C22.8406 10.9268 22.4979 10.0378 22.1805 9.05399C22.0935 8.78435 21.8333 8.60791 21.5517 8.63328C14.6047 9.25893 7.65766 9.87686 0.710643 10.5025C0.430454 10.5277 0.205318 10.7462 0.173818 11.0264C-0.0261589 12.805 -0.03463 13.8729 0.0531532 15.6164Z" fill="#356DBC"/>
<path id="Vector_3" d="M13.4295 8.90044C13.7132 8.89686 13.9503 9.10927 13.9942 9.39113C14.9323 15.4088 15.7739 21.4565 16.7112 27.4822C16.7601 27.7967 16.5545 28.0947 16.2436 28.1547C14.9901 28.3969 13.7097 28.6037 12.4601 28.8445C12.122 28.9097 11.7973 28.6761 11.7538 28.3328C10.9857 22.2753 10.2103 16.225 9.44229 10.1674C9.40745 9.89258 9.56551 9.62864 9.82691 9.54098C11.001 9.14722 12.1946 8.916 13.4295 8.90044Z" fill="#002E6E"/>
<path id="Vector_4" d="M1.09408 20.9865C1.10718 20.7468 1.2667 20.5428 1.49074 20.4678C8.46566 18.1318 15.7606 16.7798 23.1021 16.4518C23.3818 16.4393 23.6315 16.6291 23.6917 16.9073C23.7981 17.3989 23.8855 17.8905 23.9864 18.3821C24.0537 18.7104 23.8551 19.0382 23.5341 19.1143C16.3797 20.8103 9.25544 22.5601 2.10069 24.2556C1.82316 24.3213 1.53589 24.1777 1.4422 23.9039C1.11889 22.9588 1.03921 21.9905 1.09408 20.9865Z" fill="#356DBC"/>
<path id="Vector_5" d="M5.42496 11.8166C4.4258 11.6935 3.51506 11.333 2.78116 10.7615C1.06577 9.43395 0.561752 6.99859 1.65818 5.31934C2.3125 4.31706 3.5062 3.64011 4.83252 3.52581C5.83169 3.43789 6.91046 3.64009 8.03342 4.14123C9.93449 4.98525 11.1635 6.33043 12.4722 7.86901L12.8031 8.26027C12.99 8.48134 12.99 8.80406 12.8031 9.02513L12.4722 9.41637C11.3227 10.7879 8.71426 11.4825 7.94499 11.6583C7.06961 11.8693 6.22076 11.9133 5.42496 11.8166ZM5.67254 5.95236C5.45149 5.92598 5.23927 5.9172 5.0359 5.93478C4.45232 5.98753 3.93947 6.26007 3.68305 6.63812C3.28515 7.25356 3.55926 8.3086 4.25779 8.8537C5.00053 9.42517 6.15887 9.60101 7.3614 9.31967C7.95055 9.18494 8.53577 8.99556 9.04644 8.78794C9.4086 8.64071 9.49372 8.18357 9.2172 7.90834C8.55818 7.25238 7.88237 6.7309 7.0254 6.3568C6.54792 6.13701 6.09697 6.00511 5.67254 5.95236Z" fill="#002E6E"/>
<g id="Group">
<path id="Vector_6" d="M13.444 9.66498C13.1995 9.62984 12.9725 9.58591 12.7542 9.51563L12.2703 9.35483C11.9995 9.26482 11.8314 8.99275 11.871 8.70853L11.9422 8.19789C12.2129 6.20371 12.536 4.41161 13.6885 2.69855C14.3695 1.6795 15.1641 0.941558 16.046 0.493527C17.216 -0.103847 18.5693 -0.165354 19.652 0.344172C21.4507 1.18752 22.315 3.51554 21.5816 5.54486C21.0053 7.11736 19.6083 8.39117 17.7486 9.03247C17.0762 9.25209 15.0593 9.87582 13.444 9.66498ZM15.6705 4.05141C15.1543 4.82001 14.8606 5.62136 14.6524 6.52429C14.5652 6.90243 14.8758 7.24453 15.2558 7.17768C15.7922 7.08333 16.3804 6.93295 16.9453 6.73959C18.1066 6.34427 18.9797 5.57998 19.3027 4.71028C19.6083 3.87571 19.2765 2.83911 18.6217 2.53163C18.2113 2.33837 17.635 2.38227 17.1199 2.64582C16.6048 2.90936 16.1158 3.38375 15.6705 4.05141Z" fill="#002E6E"/>
</g>
</g>
</svg>
