<svg width="44" height="44" viewBox="0 0 44 44" fill="none" xmlns="http://www.w3.org/2000/svg">
<path d="M19.1641 32.6026C19.1641 31.6905 19.9034 30.9512 20.8154 30.9512H23.1274C24.0394 30.9512 24.7788 31.6905 24.7788 32.6026V38.6136C24.7788 39.5256 24.0394 40.265 23.1274 40.265H20.8154C19.9034 40.265 19.1641 39.5256 19.1641 38.6136V32.6026Z" fill="#744108"/>
<path fill-rule="evenodd" clip-rule="evenodd" d="M20.5591 4.59277C21.3571 3.80241 22.6429 3.80241 23.4409 4.59277L29.8186 10.909C31.1182 12.1961 30.2068 14.4117 28.3777 14.4117H26.2674L31.7814 19.8956C33.0769 21.1839 32.1645 23.3952 30.3375 23.3952H29.3749L35.3935 29.3924C36.6871 30.6814 35.7743 32.8907 33.9482 32.8907H10.0518C8.22574 32.8907 7.31292 30.6814 8.60645 29.3924L14.6251 23.3952H13.6625C11.8355 23.3952 10.9231 21.1839 12.2185 19.8956L17.7326 14.4117H15.6223C13.7932 14.4117 12.8818 12.1961 14.1814 10.909L20.5591 4.59277Z" fill="#509D38"/>
<path fill-rule="evenodd" clip-rule="evenodd" d="M27.1768 8.22095C27.198 8.25061 27.1912 8.29187 27.1615 8.31312C26.0107 9.1375 23.9177 10.2647 21.4712 11.1397C19.0802 11.9948 16.3454 12.6113 13.8181 12.4651C15.6109 14.2521 18.6473 16.8056 21.9986 18.6632C25.4318 20.5661 29.177 21.7283 32.2529 20.6157L32.4573 20.5418L32.3286 20.717C29.2711 24.8783 20.0315 32.6723 8.05386 30.4199C8.01801 30.4132 7.99441 30.3786 8.00115 30.3428C8.00789 30.3069 8.04242 30.2833 8.07828 30.2901C19.8239 32.4989 28.9294 24.9878 32.0943 20.81C29.0014 21.8217 25.2998 20.644 21.9346 18.7787C18.4916 16.8704 15.3821 14.2322 13.6008 12.4344L13.4769 12.3093L13.6525 12.322C16.2027 12.506 18.9893 11.887 21.4267 11.0153C23.8638 10.1437 25.9455 9.02172 27.0846 8.20572C27.1143 8.18448 27.1555 8.1913 27.1768 8.22095Z" fill="white"/>
<path d="M26.2327 9.15149C26.2327 9.44334 25.9961 9.67993 25.7042 9.67993C25.4124 9.67993 25.1758 9.44334 25.1758 9.15149C25.1758 8.85964 25.4124 8.62305 25.7042 8.62305C25.9961 8.62305 26.2327 8.85964 26.2327 9.15149Z" fill="#FFAE00"/>
<path d="M17.7795 12.1572C17.7795 12.4673 17.543 12.7186 17.2511 12.7186C16.9592 12.7186 16.7227 12.4673 16.7227 12.1572C16.7227 11.8471 16.9592 11.5957 17.2511 11.5957C17.543 11.5957 17.7795 11.8471 17.7795 12.1572Z" fill="#FFAE00"/>
<path d="M22.0061 11.0675C22.0061 11.3594 21.7695 11.596 21.4777 11.596C21.1858 11.596 20.9492 11.3594 20.9492 11.0675C20.9492 10.7757 21.1858 10.5391 21.4777 10.5391C21.7695 10.5391 22.0061 10.7757 22.0061 11.0675Z" fill="#E76E23"/>
<path d="M19.1643 16.6163C19.1643 16.9082 18.9277 17.1448 18.6359 17.1448C18.344 17.1448 18.1074 16.9082 18.1074 16.6163C18.1074 16.3245 18.344 16.0879 18.6359 16.0879C18.9277 16.0879 19.1643 16.3245 19.1643 16.6163Z" fill="#E76E23"/>
<path d="M29.9319 21.1066C29.9319 21.3984 29.6953 21.635 29.4034 21.635C29.1116 21.635 28.875 21.3984 28.875 21.1066C28.875 20.8147 29.1116 20.5781 29.4034 20.5781C29.6953 20.5781 29.9319 20.8147 29.9319 21.1066Z" fill="#E76E23"/>
<path d="M22.9319 28.4406C22.9319 28.7324 22.6953 28.969 22.4034 28.969C22.1116 28.969 21.875 28.7324 21.875 28.4406C21.875 28.1487 22.1116 27.9121 22.4034 27.9121C22.6953 27.9121 22.9319 28.1487 22.9319 28.4406Z" fill="#E76E23"/>
<path d="M24.2522 19.7199C24.2522 20.0117 24.0156 20.2483 23.7238 20.2483C23.4319 20.2483 23.1953 20.0117 23.1953 19.7199C23.1953 19.428 23.4319 19.1914 23.7238 19.1914C24.0156 19.1914 24.2522 19.428 24.2522 19.7199Z" fill="#FFAE00"/>
<path d="M27.4885 25.8644C27.4885 26.1562 27.2519 26.3928 26.9601 26.3928C26.6682 26.3928 26.4316 26.1562 26.4316 25.8644C26.4316 25.5725 26.6682 25.3359 26.9601 25.3359C27.2519 25.3359 27.4885 25.5725 27.4885 25.8644Z" fill="#FFAE00"/>
<path d="M17.844 30.2238C17.844 30.5156 17.6074 30.7522 17.3156 30.7522C17.0237 30.7522 16.7871 30.5156 16.7871 30.2238C16.7871 29.9319 17.0237 29.6953 17.3156 29.6953C17.6074 29.6953 17.844 29.9319 17.844 30.2238Z" fill="#FFAE00"/>
<path d="M12.3616 30.7511C12.3616 31.043 12.125 31.2795 11.8331 31.2795C11.5413 31.2795 11.3047 31.043 11.3047 30.7511C11.3047 30.4592 11.5413 30.2227 11.8331 30.2227C12.125 30.2227 12.3616 30.4592 12.3616 30.7511Z" fill="#E76E23"/>
</svg>
