<svg width="44" height="44" viewBox="0 0 44 44" fill="none" xmlns="http://www.w3.org/2000/svg">
<path d="M9.00067 28.5384C9.00067 21.1308 15.0058 15.1257 22.4134 15.1257C29.8211 15.1257 35.8262 21.1308 35.8262 28.5384C35.8262 35.9461 29.8211 41.9512 22.4134 41.9512C15.0058 41.9512 9.00067 35.9461 9.00067 28.5384Z" fill="#F2F4F6"/>
<path d="M11.6419 13.7702C11.6419 7.82159 16.4642 2.99932 22.4127 2.99932C28.3613 2.99932 33.1836 7.82159 33.1836 13.7702C33.1836 19.7187 28.3613 24.541 22.4127 24.541C16.4642 24.541 11.6419 19.7187 11.6419 13.7702Z" fill="#F2F4F6"/>
<path d="M18.925 11.8558C18.925 13.4179 17.6588 14.6842 16.096 14.6842C14.5338 14.6842 13.2676 13.4179 13.2676 11.8558C13.2676 10.2936 14.5338 9.02734 16.096 9.02734C17.6588 9.02674 18.925 10.293 18.925 11.8558Z" fill="#AEC5E7"/>
<path d="M16.0959 14.7504C14.4994 14.7504 13.2012 13.4516 13.2012 11.8556C13.2012 10.2591 14.5 8.96094 16.0959 8.96094C17.6924 8.96094 18.9906 10.2597 18.9906 11.8556C18.9912 13.4516 17.6924 14.7504 16.0959 14.7504ZM16.0959 9.09293C14.5729 9.09293 13.3338 10.3321 13.3338 11.855C13.3338 13.378 14.5729 14.6172 16.0959 14.6172C17.6189 14.6172 18.8586 13.378 18.8586 11.855C18.8586 10.3321 17.6195 9.09293 16.0959 9.09293Z" fill="white"/>
<path d="M23.2591 25.1588C23.2591 25.5065 22.9773 25.7883 22.6295 25.7883C22.2818 25.7883 22 25.5065 22 25.1588C22 24.8111 22.2818 24.5293 22.6295 24.5293C22.9773 24.5292 23.2591 24.811 23.2591 25.1588Z" fill="#002E6E"/>
<path d="M22.6306 25.8022C22.2753 25.8022 21.9863 25.5131 21.9863 25.1579C21.9863 24.8026 22.2754 24.5137 22.6306 24.5137C22.9859 24.5137 23.2748 24.8027 23.2748 25.1579C23.275 25.5131 22.9859 25.8022 22.6306 25.8022ZM22.6306 24.543C22.2916 24.543 22.0158 24.8188 22.0158 25.1578C22.0158 25.4968 22.2916 25.7725 22.6306 25.7725C22.9695 25.7725 23.2455 25.4968 23.2455 25.1578C23.2455 24.8188 22.9697 24.543 22.6306 24.543Z" fill="white"/>
<path d="M23.2591 28.2291C23.2591 28.5768 22.9773 28.8586 22.6295 28.8586C22.2818 28.8586 22 28.5768 22 28.2291C22 27.8814 22.2818 27.5996 22.6295 27.5996C22.9773 27.5995 23.2591 27.8813 23.2591 28.2291Z" fill="#002E6E"/>
<path d="M22.6306 28.8745C22.2753 28.8745 21.9863 28.5854 21.9863 28.2302C21.9863 27.8749 22.2754 27.5859 22.6306 27.5859C22.9859 27.5859 23.2748 27.875 23.2748 28.2302C23.275 28.5854 22.9859 28.8745 22.6306 28.8745ZM22.6306 27.6153C22.2916 27.6153 22.0158 27.8911 22.0158 28.2301C22.0158 28.569 22.2916 28.8448 22.6306 28.8448C22.9695 28.8448 23.2455 28.569 23.2455 28.2301C23.2455 27.8911 22.9697 27.6153 22.6306 27.6153Z" fill="white"/>
<path d="M23.2591 31.3014C23.2591 31.6491 22.9773 31.9309 22.6295 31.9309C22.2818 31.9309 22 31.6491 22 31.3014C22 30.9537 22.2818 30.6719 22.6295 30.6719C22.9773 30.6717 23.2591 30.9536 23.2591 31.3014Z" fill="#002E6E"/>
<path d="M22.6306 31.9448C22.2753 31.9448 21.9863 31.6557 21.9863 31.3005C21.9863 30.9452 22.2754 30.6562 22.6306 30.6562C22.9859 30.6562 23.2748 30.9453 23.2748 31.3005C23.275 31.6557 22.9859 31.9448 22.6306 31.9448ZM22.6306 30.6856C22.2916 30.6856 22.0158 30.9614 22.0158 31.3004C22.0158 31.6393 22.2916 31.9151 22.6306 31.9151C22.9695 31.9151 23.2455 31.6393 23.2455 31.3004C23.2455 30.9614 22.9697 30.6856 22.6306 30.6856Z" fill="white"/>
<path d="M30.2375 11.7894C30.2375 13.3515 28.9707 14.6178 27.4085 14.6178C25.8463 14.6178 24.5801 13.3515 24.5801 11.7894C24.5801 10.2272 25.8463 8.96094 27.4085 8.96094C28.9707 8.96034 30.2375 10.2266 30.2375 11.7894Z" fill="#AEC5E7"/>
<path d="M27.4084 14.684C25.8125 14.684 24.5137 13.3852 24.5137 11.7892C24.5137 10.1927 25.8125 8.89453 27.4084 8.89453C29.0049 8.89453 30.3037 10.1933 30.3037 11.7892C30.3037 13.3852 29.0049 14.684 27.4084 14.684ZM27.4084 9.02652C25.8854 9.02652 24.6463 10.2656 24.6463 11.7886C24.6463 13.3116 25.8854 14.5508 27.4084 14.5508C28.9314 14.5508 30.1711 13.3116 30.1711 11.7886C30.1711 10.2656 28.932 9.02652 27.4084 9.02652Z" fill="white"/>
<path d="M19.4918 8.64673C19.4305 8.76427 19.3637 8.87244 19.3141 8.9966C19.2473 9.16437 19.2616 9.35586 19.2997 9.52804C19.3687 9.83984 19.7942 9.79514 19.8852 9.52804C19.9597 9.30951 20.0536 9.0987 20.1281 8.88071C19.9327 8.82718 19.7379 8.7731 19.5425 8.71957C19.4691 8.95521 19.4509 9.2019 19.4509 9.44747C19.4509 9.58268 19.5436 9.70409 19.6739 9.73996C19.7931 9.77252 19.9636 9.7234 20.0166 9.60034C20.1209 9.35807 20.1606 8.93921 19.9101 8.76758C19.7837 8.68094 19.5602 8.73282 19.4945 8.8763C19.4653 8.94031 19.4553 8.97122 19.4509 9.04241C19.4404 9.20797 19.5966 9.34593 19.7545 9.34593C19.9277 9.34593 20.0475 9.20741 20.058 9.04241C20.058 9.0391 20.0585 9.03634 20.0585 9.03303C20.0447 9.08435 20.0309 9.13512 20.0171 9.18644C20.0177 9.18534 20.0182 9.18424 20.0188 9.18313C19.8803 9.21955 19.7418 9.25598 19.6032 9.29185C19.6043 9.2924 19.6049 9.29295 19.6055 9.2935C19.569 9.25708 19.5326 9.22066 19.4967 9.18479C19.4515 9.09097 19.4736 9.1296 19.4807 9.16271C19.4967 9.23611 19.4747 9.09097 19.4835 9.18203C19.4863 9.21238 19.4863 9.24273 19.4863 9.27308C19.4835 9.31061 19.484 9.31447 19.4879 9.28467C19.4769 9.31999 19.4785 9.3233 19.4923 9.29406C19.6811 9.34538 19.8692 9.39615 20.058 9.44747C20.058 9.25211 20.0696 9.06835 20.1281 8.88071C20.1772 8.72288 20.0712 8.55015 19.9161 8.50711C19.7495 8.4613 19.5961 8.56284 19.5425 8.71902C19.468 8.93756 19.3742 9.14836 19.2997 9.36635C19.4951 9.36635 19.6899 9.36635 19.8852 9.36635C19.8753 9.3222 19.8737 9.28688 19.8753 9.24108C19.8742 9.27143 19.9139 9.12795 19.8935 9.17375C19.9283 9.09704 19.978 9.02751 20.0166 8.95301C20.197 8.60644 19.6733 8.29961 19.4918 8.64673Z" fill="#002E6E"/>
<path d="M22.6084 8.638C22.6084 8.65401 22.6078 8.67001 22.6067 8.68601C22.6023 8.76327 22.6188 8.61979 22.6056 8.69098C22.599 8.72685 22.5885 8.76217 22.5786 8.79694C22.5515 8.89296 22.5421 8.98291 22.5598 9.08114C22.6034 9.32506 22.8705 9.42771 23.0741 9.49724C23.2629 9.56181 23.4582 9.39294 23.4582 9.20476C23.4582 9.01602 23.4582 8.82729 23.4582 8.638C23.2595 8.66504 23.0609 8.69153 22.8622 8.71857C22.8892 8.90731 22.9163 9.09604 22.9433 9.28533C22.9621 9.41667 23.1139 9.50828 23.2358 9.50828C23.3732 9.50828 23.4897 9.41502 23.5283 9.28533C23.5653 9.16282 23.5813 9.03479 23.5713 8.90731C23.5669 8.84881 23.557 8.79031 23.5482 8.73237C23.5449 8.7125 23.5421 8.69264 23.5388 8.67277C23.5487 8.73678 23.5393 8.64462 23.5393 8.638C23.5366 8.54143 23.4858 8.41671 23.3892 8.37587C23.243 8.31406 23.1194 8.2964 22.9742 8.37311C22.9339 8.39408 22.8975 8.42829 22.8694 8.46417C22.8501 8.4879 22.8313 8.51273 22.8131 8.53756C22.8103 8.54143 22.8076 8.54529 22.8048 8.54915C22.8357 8.49673 22.8821 8.46141 22.9444 8.4432C22.9985 8.4432 23.052 8.4432 23.1056 8.4432C23.1398 8.46361 23.1735 8.48403 23.2077 8.50445C23.0818 8.39739 22.9025 8.38028 22.7783 8.50445C22.6685 8.61427 22.6519 8.82674 22.7783 8.9338C22.9008 9.03755 23.0482 9.07397 23.1955 8.99119C23.2562 8.95698 23.2877 8.90896 23.3291 8.85543C23.3633 8.81073 23.2794 8.91393 23.3186 8.86978C23.259 8.93766 23.158 8.93214 23.083 8.90013C23.0327 8.81294 22.9825 8.72519 22.9328 8.638C22.9356 8.73402 22.9533 8.8295 22.9676 8.92442C22.9604 8.87861 22.9682 8.99671 22.9682 9.0094C22.9676 9.04914 22.9571 9.07894 22.9433 9.12419C23.1387 9.12419 23.3335 9.12419 23.5289 9.12419C23.5018 8.93545 23.4748 8.74672 23.4477 8.55743C23.429 8.42609 23.2772 8.33448 23.1552 8.33448C22.9897 8.33448 22.8517 8.47244 22.8517 8.638C22.8517 8.82674 22.8517 9.01547 22.8517 9.20476C22.9798 9.10708 23.1078 9.0094 23.2358 8.91227C23.2248 8.90841 23.1039 8.86095 23.1552 8.88413C23.1277 8.87199 23.1017 8.85654 23.0763 8.83998C23.1161 8.86647 23.1221 8.87254 23.1508 8.94373C23.1431 8.91393 23.1442 8.92883 23.1552 8.98898C23.153 8.9636 23.1674 8.91724 23.1492 9.01768C23.1724 8.88965 23.2132 8.77155 23.2154 8.63855C23.2231 8.24673 22.6161 8.24729 22.6084 8.638Z" fill="#002E6E"/>
<path d="M32.2486 17.5257C26.2977 19.424 16.8257 18.1599 13.0764 17.4556C12.3183 17.3132 11.5059 17.9487 11.5059 18.7201V19.712C11.5059 19.9527 11.5818 20.1896 11.7473 20.3643C15.2051 24.0138 26.8438 22.2289 33.0566 20.6847C33.5337 20.5661 33.8604 20.1361 33.8604 19.6445V18.6244C33.8604 17.8226 33.0125 17.282 32.2486 17.5257Z" fill="#002E6E"/>
<path d="M25.2766 32.0548C26.0272 29.1442 26.6041 23.6182 26.3861 20.5077C26.3609 20.1482 26.5788 19.8138 26.9232 19.7076L29.9882 18.7617C30.3299 18.6562 30.6978 18.8068 30.8065 19.1474C31.6085 21.6604 31.6817 28.1447 31.6 31.8568C31.5912 32.2594 31.2618 32.583 30.8617 32.6297C29.6809 32.7676 27.866 33.1569 26.4767 33.4666C25.802 33.617 25.104 32.7242 25.2766 32.0548Z" fill="#002E6E"/>
<path d="M21.7321 9.47068L21.8139 10.0165C21.8415 10.2004 21.7004 10.3664 21.5144 10.3687L21.2994 10.3714C21.0992 10.3739 20.9503 10.187 20.9975 9.99236L21.1306 9.44386C21.21 9.1167 21.6821 9.13776 21.7321 9.47068Z" fill="#FF8800"/>
</svg>
