<svg width="44" height="44" viewBox="0 0 44 44" fill="none" xmlns="http://www.w3.org/2000/svg">
<path d="M18.2653 36.6739C14.87 39.058 11.8913 30.789 14.244 27.9456C14.244 27.9456 32.0922 26.9658 18.2653 36.6739Z" fill="#AEC5E7"/>
<path d="M18.0159 36.2468C15.6192 37.8446 14.2274 33.5685 13.9711 31.9251C13.872 31.2897 13.8625 30.6119 13.9506 29.975C13.9899 29.6872 14.0638 29.4057 14.1519 29.1289C14.1944 28.9952 14.2526 28.8678 14.3139 28.742C14.4491 28.4637 14.6756 28.4149 14.2463 28.4385C14.5262 28.4228 14.8077 28.4181 15.0876 28.4134C16.5439 28.3913 18.0144 28.4511 19.4518 28.687C20.5086 28.86 22.4634 29.1619 22.9336 30.3273C23.2482 31.1026 22.6852 31.9424 22.2417 32.54C21.1392 34.0309 19.5115 35.19 18.0159 36.2468C17.5001 36.6116 17.9923 37.4703 18.5145 37.1007C19.8827 36.1335 21.2336 35.1113 22.3864 33.8893C23.039 33.1974 23.6555 32.3938 23.9197 31.4659C24.3254 30.0316 23.3331 28.9465 22.0986 28.4024C19.7349 27.3597 16.8128 27.3266 14.2667 27.4509C13.3719 27.4949 13.0338 29.3255 12.9583 29.9939C12.8026 31.3794 13.0353 32.7964 13.504 34.1017C14.2274 36.1115 16.1806 38.6577 18.5145 37.1007C19.0429 36.7484 18.5475 35.8914 18.0159 36.2468Z" fill="#002E6E"/>
<path d="M17.186 39.0319C16.6136 39.9676 13.1647 39.9142 13.2638 38.4437C13.2638 37.7565 15.7156 36.6792 16.2063 36.0895C16.2047 36.0895 19.3437 35.5013 17.186 39.0319Z" fill="white"/>
<path d="M16.7574 38.7836C16.2715 39.4614 14.595 39.1972 14.0021 38.8622C13.5036 38.5791 13.9109 38.2788 14.2097 38.0554C14.7318 37.6638 15.309 37.3493 15.8547 36.9939C16.0466 36.8681 16.229 36.7313 16.4067 36.5866C16.5986 36.4309 16.3281 36.5693 16.3029 36.5724C16.5074 36.5457 16.7275 36.5347 16.932 36.5661C18.047 36.7407 17.0594 38.2756 16.7574 38.7836C16.4303 39.334 17.2858 39.831 17.6114 39.2821C18.2656 38.1812 19.1007 36.2815 17.4211 35.6666C17.0767 35.5407 16.6646 35.5392 16.3029 35.5816C15.7478 35.6461 15.2382 36.2186 14.768 36.5111C14.1154 36.9168 13.2708 37.3383 12.8745 38.0303C12.5144 38.6625 12.9862 39.367 13.502 39.7162C14.5651 40.4364 16.8172 40.3908 17.6098 39.2837C17.9841 38.7631 17.1254 38.2709 16.7574 38.7836Z" fill="#002E6E"/>
<path d="M28.0703 35.9926C28.8551 37.7571 29.3457 40.8961 26.9915 41.6809C24.1481 42.5631 22.7752 38.8375 22.382 36.8764C22.0879 38.6409 21.9904 42.9563 19.1455 41.9765C17.3794 41.2893 17.0853 37.7602 17.3794 36.0916C17.3794 36.0916 22.8711 39.9163 27.284 36.0916C28.7403 34.8304 30.2264 33.9339 30.2264 32.4635C30.2264 30.4033 29.4417 29.326 28.4603 27.6575C28.4603 27.6575 20.0262 23.2446 16.7896 28.5397C15.6919 30.3357 14.4354 35.2078 17.2803 36.1891" fill="white"/>
<path d="M27.6406 36.2415C28.3782 37.951 28.8154 41.2914 26.0947 41.3181C24.0707 41.337 23.1774 38.2907 22.8566 36.7432C22.7607 36.2809 21.9806 36.2589 21.9036 36.7432C21.7605 37.6381 21.6818 38.5408 21.4915 39.4293C21.3248 40.2046 21.0449 41.3354 20.1784 41.5933C18.9737 41.9519 18.3148 40.5318 18.0553 39.6353C17.7455 38.5596 17.6747 37.3283 17.8556 36.2211C17.6134 36.3202 17.3712 36.4177 17.129 36.5168C18.9973 37.8048 21.5419 38.5298 23.7939 38.2105C25.8903 37.9133 27.3371 36.6898 28.9113 35.3782C29.5483 34.8466 30.245 34.216 30.5375 33.4139C30.863 32.5222 30.7136 31.5125 30.484 30.6114C30.2717 29.7763 29.8329 29.0042 29.4004 28.2666C29.1756 27.8829 28.9963 27.3686 28.5795 27.1626C27.8671 26.8119 27.1232 26.5178 26.3731 26.2599C23.937 25.4232 21.111 24.9907 18.7001 26.1199C16.6713 27.0714 15.6853 29.2354 15.2449 31.3144C14.8235 33.3085 14.9587 35.8327 17.1494 36.6646C17.747 36.8911 18.0018 35.9349 17.4121 35.7116C15.9794 35.1674 15.9322 33.3903 16.1068 32.1023C16.2876 30.7703 16.7374 29.3407 17.574 28.2713C19.4109 25.9249 22.7449 26.2379 25.2942 26.9597C26.1828 27.2113 27.054 27.5369 27.8907 27.9285C28.221 28.0826 28.1172 28.0527 28.2933 28.3484C28.8186 29.2291 29.3281 30.094 29.5845 31.0958C29.8722 32.2234 29.7527 33.1513 28.9491 34.0052C28.1596 34.8435 27.1468 35.6549 26.1938 36.2934C24.596 37.3644 22.6317 37.4824 20.8059 37.0467C19.6956 36.7825 18.5695 36.3123 17.6259 35.6628C17.3806 35.493 16.9497 35.6534 16.8994 35.9585C16.5298 38.231 16.8648 42.4944 19.9157 42.6124C22.5028 42.7115 22.5798 38.7263 22.855 37.0074C22.5374 37.0074 22.2197 37.0074 21.902 37.0074C22.3596 39.2186 23.7373 42.6879 26.5697 42.2758C29.7999 41.8056 29.4649 37.9966 28.493 35.7446C28.243 35.158 27.3906 35.6628 27.6406 36.2415Z" fill="#002E6E"/>
<path d="M19.9304 27.4905C23.0695 27.36 26.273 27.0989 29.2799 25.7905C35.2293 23.1107 35.948 13.6291 33.0071 8.53054C32.2224 7.1576 31.3071 5.65414 30.0002 4.6728C28.7578 3.69147 27.0577 3.36592 25.6848 2.58116C23.5932 1.40481 20.8788 1.20824 18.5905 1.86246C15.7786 1.73193 12.2165 5.13202 10.9741 7.42024C9.34015 10.5593 8.55539 14.2204 8.94699 17.751C9.2741 20.4309 10.386 23.5038 12.6081 25.0733C14.3082 26.3157 17.5117 27.5581 19.6694 27.4921" fill="#002E6E"/>
<path d="M19.9323 27.9858C23.8294 27.8176 28.4781 27.5644 31.5716 24.883C33.8629 22.8967 34.8616 19.7671 35.1289 16.8388C35.4026 13.8319 34.8254 10.6992 33.3172 8.0744C32.328 6.35234 31.18 4.69632 29.4123 3.70397C28.5253 3.20544 27.533 2.90978 26.6067 2.49617C25.6332 2.06212 24.7651 1.55887 23.7208 1.28837C22.859 1.06505 21.9547 0.992707 21.0678 1.00057C20.1006 1.00843 19.1806 1.34027 18.2291 1.37015C16.6329 1.42048 15.1546 2.37036 13.9342 3.31396C10.9304 5.6352 9.32943 9.03687 8.64689 12.7122C7.97222 16.3513 8.37797 20.4481 10.4853 23.5761C11.4651 25.0308 12.8994 25.9713 14.4657 26.6963C16.0761 27.4417 17.88 28.011 19.6697 27.989C20.3082 27.9811 20.3082 26.9903 19.6697 26.9982C17.674 27.0218 15.6499 26.2575 13.92 25.317C12.1303 24.3451 10.9634 22.8291 10.2321 20.9482C8.59657 16.746 9.3247 11.8739 11.2779 7.91556C12.08 6.28943 13.4545 4.89291 14.8966 3.81878C15.6091 3.28722 16.3938 2.84216 17.2368 2.56066C17.6173 2.43327 18.0105 2.37036 18.41 2.35778C18.9242 2.34205 19.4275 2.16434 19.9386 2.08256C21.0159 1.908 22.145 1.97562 23.2097 2.19107C24.3483 2.42068 25.2935 2.99313 26.3377 3.45864C27.2688 3.87382 28.2375 4.18521 29.1292 4.68531C30.1389 5.25304 30.9095 6.17777 31.5574 7.11665C34.168 10.8989 34.9056 15.6468 33.4855 20.0408C32.8234 22.0884 31.5511 23.9394 29.6749 25.0403C26.8379 26.7041 23.1279 26.863 19.9307 27.0014C19.2954 27.0234 19.2922 28.0142 19.9323 27.9858Z" fill="#002E6E"/>
<path d="M18.4706 3.58475C16.5079 3.4039 14.3675 5.57889 13.3327 6.95969C11.4565 9.39416 10.1009 11.6273 9.7313 14.6374C9.36172 17.517 9.90428 20.0631 11.6232 22.3372C13.4082 24.8078 16.1572 25.2434 18.9722 25.7451C23.2279 26.4968 27.397 24.5027 30.7106 21.9912C34.8058 18.8867 33.3149 12.3602 30.8018 8.71792C29.215 6.37623 26.9786 4.69505 24.2894 3.73416C23.0439 3.28595 19.768 2.46188 18.6656 3.58161" fill="white"/>
<path d="M18.4725 3.08997C16.7127 2.99719 15.192 4.21128 14.0235 5.39549C12.6836 6.75269 11.5434 8.43701 10.6517 10.115C8.75507 13.6834 8.5176 18.1922 10.6077 21.7229C11.5953 23.3899 12.9871 24.5521 14.7815 25.2582C16.5523 25.9564 18.6675 26.3307 20.5642 26.3984C22.6778 26.4739 24.76 25.87 26.6724 25.0207C28.4841 24.2171 30.42 23.0926 31.8181 21.6678C35.3346 18.0837 33.5968 11.8874 31.0947 8.27031C29.4654 5.91447 27.0954 4.23644 24.4251 3.25825C22.7344 2.63862 19.8282 1.857 18.32 3.23308C17.8466 3.66399 18.5496 4.36383 19.0198 3.93449C20.0672 2.97831 22.313 3.66399 23.494 3.99897C25.3168 4.51637 27.0136 5.48356 28.429 6.73697C31.0538 9.06136 32.6831 12.6612 32.7696 16.1572C32.8105 17.8384 32.3638 19.5321 31.2535 20.8233C30.6213 21.5577 29.7658 22.0956 28.9637 22.624C28.0013 23.2578 26.9853 23.8066 25.9332 24.2737C23.8038 25.2189 21.4197 25.6466 19.1079 25.2692C17.2003 24.9578 15.2187 24.6071 13.5674 23.544C11.8296 22.4243 10.7602 20.3027 10.3214 18.3432C9.85908 16.2814 10.1642 14.0294 10.864 12.0588C11.5387 10.1606 12.7685 8.42758 14.0282 6.87537C15.0803 5.57792 16.6718 3.98639 18.4741 4.08075C19.111 4.11535 19.1079 3.12457 18.4725 3.08997Z" fill="#002E6E"/>
<path d="M18.1971 8.02112C17.5256 9.23521 18.5007 10.5767 19.6 11.1161C20.1174 11.3693 20.7417 11.4495 21.2481 11.1303C21.9464 10.6868 21.9542 9.7133 21.8662 8.99145C21.5579 9.0748 21.2512 9.15815 20.943 9.2415C21.6192 10.259 22.912 10.9651 23.8005 9.74003C24.4013 8.91282 24.3808 7.43924 23.1369 7.27097C22.5125 7.18604 22.2436 8.14064 22.8742 8.22556C23.3429 8.28847 23.2517 8.70994 23.0708 9.05278C22.6871 9.77778 22.1099 9.20691 21.7985 8.73983C21.5532 8.37182 20.8125 8.4599 20.8754 8.98988C20.9634 9.71488 20.954 10.6789 20.0041 10.2134C19.4568 9.94448 18.6894 9.1786 19.0527 8.52122C19.3625 7.96136 18.507 7.46282 18.1971 8.02112Z" fill="#002E6E"/>
<path d="M18.7153 13.8884C18.7153 13.9136 18.7137 13.9387 18.7121 13.9655C18.7232 13.8287 18.7153 13.9262 18.709 13.9592C18.6933 14.0378 18.6823 14.1164 18.6744 14.1967C18.6555 14.3822 18.7452 14.5804 18.849 14.7282C18.9528 14.8745 19.0896 14.9735 19.2767 14.9735C19.5174 14.9735 19.6699 14.8179 19.7548 14.6103C19.7344 14.6559 19.7359 14.6543 19.7564 14.6071C19.7705 14.5757 19.7847 14.5442 19.7988 14.5143C19.835 14.4357 19.8712 14.3555 19.8964 14.2721C19.953 14.0819 19.9215 13.8837 19.8854 13.6934C19.8083 13.2908 19.1509 13.187 18.9795 13.5755C18.8773 13.8051 18.8474 14.0331 18.8458 14.2832C18.8458 14.5033 18.9968 14.7031 19.2091 14.7612C19.4356 14.8242 19.6416 14.7188 19.769 14.5332C19.9687 14.2438 19.9703 13.8979 19.7517 13.6226C19.5111 13.3207 18.9339 13.4245 18.8631 13.8239C18.8159 14.0897 18.9307 14.3571 19.2091 14.4326C19.4513 14.4986 19.7705 14.3524 19.8177 14.0866C19.8177 14.0834 19.8193 14.0803 19.8193 14.0771C19.7768 14.1495 19.7344 14.2234 19.6919 14.2957C19.6935 14.2942 19.6951 14.2926 19.6966 14.291C19.6243 14.3335 19.5504 14.3759 19.478 14.4184C19.239 14.5049 18.937 14.3178 18.9323 14.0756C18.9292 14.0315 18.9402 13.9906 18.9622 13.9545C18.948 13.9812 18.9307 14.0079 18.9119 14.0331C19.2201 14.1165 19.5268 14.1998 19.835 14.2832C19.835 14.2203 19.8366 14.1573 19.8397 14.0944C19.8445 14.0362 19.8445 14.0394 19.8366 14.1039C19.8413 14.0787 19.8838 13.9592 19.8319 14.074C19.5299 14.0347 19.228 13.9954 18.926 13.956C18.9323 13.9844 18.937 14.0127 18.9418 14.041C18.9323 13.9702 18.9307 13.9592 18.9339 14.0111C18.9339 14.03 18.9339 14.0473 18.9323 14.0661C18.9386 13.923 18.9449 13.9843 18.9307 14.0315C18.9134 14.0787 18.9213 14.063 18.9512 13.9859C18.9386 14.0158 18.9245 14.0441 18.9119 14.0724C18.871 14.1621 18.8317 14.2548 18.7939 14.3461C19.0959 14.3067 19.3978 14.2674 19.6998 14.2281C19.6762 14.1951 19.607 14.041 19.6542 14.1731C19.6416 14.1196 19.6432 14.1353 19.6589 14.2218C19.662 14.1684 19.6573 14.1872 19.6479 14.2753C19.6683 14.1463 19.6982 14.0205 19.7013 13.8884C19.7076 13.6179 19.4702 13.393 19.206 13.393C18.9355 13.393 18.7232 13.6195 18.7153 13.8884Z" fill="#002E6E"/>
<path d="M22.593 13.4336C22.4892 13.8708 22.5458 14.3363 22.9169 14.6351C23.2126 14.8726 23.6152 14.7924 23.7442 14.4165C23.8196 14.1979 23.8857 13.9966 23.892 13.7623C23.903 13.41 23.4532 13.1144 23.1465 13.3345C23.1198 13.3534 23.0946 13.3707 23.0663 13.388C22.9861 13.4336 23.1937 13.3503 23.0994 13.3691C23.3887 13.3094 22.9814 13.4006 22.9342 13.4289C22.7329 13.5547 22.692 13.745 22.6574 13.9573C22.8163 13.8362 22.9767 13.7151 23.1355 13.594C23.1324 13.594 23.1292 13.594 23.1277 13.594C22.8572 13.594 22.6323 13.8189 22.6323 14.0894C22.6323 14.3599 22.8572 14.5848 23.1277 14.5848C23.1984 14.5848 23.2692 14.5848 23.34 14.5848C23.6105 14.5848 23.8354 14.3599 23.8354 14.0894C23.8354 13.8189 23.6105 13.594 23.34 13.594C23.3368 13.594 23.3337 13.594 23.3321 13.594C23.4752 13.8425 23.6168 14.091 23.7599 14.3395C23.8841 14.0564 23.9219 13.7544 23.752 13.4777C23.6451 13.3031 23.4847 13.2056 23.2802 13.1899C23.0648 13.1741 22.832 13.3534 22.788 13.5657C22.7345 13.8299 22.8603 14.1004 23.134 14.1743C23.3809 14.242 23.6891 14.0926 23.7426 13.8284C23.7426 13.8252 23.7442 13.8221 23.7442 13.8205C23.7017 13.8928 23.6592 13.9668 23.6168 14.0391C23.6183 14.0375 23.6199 14.0359 23.6215 14.0344C23.5051 14.0831 23.3887 14.1319 23.2708 14.1791C23.2739 14.1791 23.2755 14.1791 23.2786 14.1791C23.1953 14.157 23.1119 14.1335 23.0286 14.1114C22.972 14.0784 22.9279 14.0328 22.8949 13.9762C22.9185 14.0186 22.9138 14.0014 22.8792 13.9274C22.8918 13.9778 22.8918 13.9652 22.8792 13.8897C22.8871 13.9746 22.8886 13.8677 22.9028 13.8378C22.8289 14.0045 22.8053 14.1712 22.9028 14.3379C22.9909 14.4889 23.156 14.5832 23.3305 14.5832C23.3337 14.5832 23.3368 14.5832 23.3384 14.5832C23.6089 14.5832 23.8338 14.3583 23.8338 14.0878C23.8338 13.8174 23.6089 13.5925 23.3384 13.5925C23.2676 13.5925 23.1969 13.5925 23.1261 13.5925C22.8556 13.5925 22.6307 13.8174 22.6307 14.0878C22.6307 14.3583 22.8556 14.5832 23.1261 14.5832C23.1292 14.5832 23.1324 14.5832 23.134 14.5832C23.3368 14.5832 23.5759 14.4338 23.6121 14.2199C23.6215 14.1649 23.6294 14.1099 23.6388 14.0548C23.6419 14.0391 23.6451 14.0234 23.6498 14.0092C23.5664 14.3033 23.373 14.3269 23.2189 14.3442C23.3762 14.3269 23.5145 14.2844 23.6451 14.1901C23.3966 14.047 23.1481 13.9054 22.8996 13.7623C22.8949 13.8252 22.8965 13.8315 22.9044 13.7796C22.8981 13.8252 22.8839 13.8708 22.8698 13.9149C22.8462 13.9951 22.8131 14.0737 22.7864 14.1539C23.0616 14.0816 23.3384 14.0076 23.6136 13.9353C23.59 13.9164 23.4784 13.7875 23.5413 13.8771C23.5145 13.8268 23.5145 13.8315 23.5413 13.8913C23.5334 13.8677 23.5271 13.8441 23.5224 13.8189C23.5523 13.9463 23.5287 13.8016 23.5303 13.7623C23.5224 13.8944 23.5397 13.7293 23.546 13.6994C23.6089 13.4368 23.4674 13.1631 23.2 13.0908C22.9484 13.0169 22.6543 13.171 22.593 13.4336Z" fill="#002E6E"/>
<path d="M19.638 28.8301C19.638 27.2605 22.0898 26.2808 23.4627 26.4758C25.9145 26.8674 26.9934 28.8301 27.679 31.0853C28.2672 33.3404 28.5613 36.0863 26.012 37.1652C24.1484 38.0474 21.8932 37.8524 19.9321 37.2627C14.832 35.4981 18.4617 30.5946 20.2262 27.5531" fill="#002E6E"/>
<path d="M20.1334 28.828C20.2057 27.5164 22.0772 26.9518 23.1529 26.9455C24.6469 26.9361 25.8028 28.1344 26.4633 29.3438C27.1317 30.5705 27.4966 32.0315 27.5799 33.4233C27.6806 35.1013 26.976 36.2682 25.4065 36.8847C23.708 37.5515 21.7642 37.2779 20.0626 36.784C18.8768 36.4412 17.8845 35.5652 17.8153 34.2914C17.7524 33.1496 18.2949 31.9969 18.7966 31.0061C19.3549 29.9052 20.0312 28.8688 20.6539 27.8042C20.9763 27.2506 20.1208 26.7536 19.7984 27.304C18.4884 29.5451 16.3716 32.2438 16.9157 35.0085C17.1988 36.4491 18.5245 37.2763 19.8015 37.7402C21.6935 38.4291 24.0351 38.4841 25.9098 37.7465C29.3334 36.4003 28.8711 32.4183 27.6743 29.6048C27.0232 28.0731 26.0356 26.8291 24.4519 26.2158C23.0632 25.6779 21.3695 26.0349 20.2089 26.9376C19.5892 27.4204 19.1866 28.0338 19.1426 28.8295C19.1064 29.4649 20.0972 29.4617 20.1334 28.828Z" fill="#002E6E"/>
<path d="M18.0679 16.1824C18.0679 17.483 17.0142 18.5367 15.7136 18.5367C14.4131 18.5367 13.3594 17.483 13.3594 16.1824C13.3594 14.8818 14.4131 13.8281 15.7136 13.8281C17.0142 13.8281 18.0679 14.8834 18.0679 16.1824Z" fill="#AEC5E7"/>
<path d="M29.6382 15.6902C29.6382 16.9908 28.5846 18.0445 27.284 18.0445C25.9834 18.0445 24.9297 16.9908 24.9297 15.6902C24.9297 14.3896 25.9834 13.3359 27.284 13.3359C28.5846 13.3375 29.6382 14.3912 29.6382 15.6902Z" fill="#AEC5E7"/>
<path d="M35.2125 1.90775C34.8825 2.44572 34.6857 3.03421 34.5544 3.64762C34.4976 3.91102 34.5943 4.18119 34.8712 4.27162C35.108 4.34894 35.4385 4.2182 35.4952 3.9548C35.6087 3.4245 35.7596 2.90873 36.0451 2.44277C36.3765 1.90057 35.5454 1.36132 35.2125 1.90775Z" fill="#002E6E"/>
<path d="M36.539 7.21561C37.3537 6.79492 38.1286 6.30626 38.9432 5.88557C39.509 5.59302 39.0626 4.71028 38.4954 5.00355C37.6807 5.42423 36.9059 5.9129 36.0912 6.33359C35.5254 6.62614 35.9732 7.50816 36.539 7.21561Z" fill="#002E6E"/>
<path d="M38.1053 10.6349C39.1723 10.6312 40.2394 10.6626 41.3063 10.6588C41.9421 10.657 42.0029 9.66846 41.3643 9.67169C40.2973 9.67545 39.2302 9.64405 38.1633 9.64781C37.5275 9.64962 37.4681 10.6375 38.1053 10.6349Z" fill="#002E6E"/>
<path d="M6.73931 2.18125C7.43759 2.95526 7.92748 3.89207 8.56153 4.71411C8.95053 5.21796 9.76529 4.65866 9.37554 4.15272C8.68691 3.25817 8.14088 2.27071 7.38041 1.42932C6.95487 0.95523 6.31888 1.71478 6.73931 2.18125Z" fill="#002E6E"/>
<path d="M3.47625 7.6068C4.31375 7.98405 5.2074 8.21566 6.04566 8.595C6.6263 8.85696 7.04784 7.96206 6.46577 7.69943C5.62752 7.3201 4.73387 7.08848 3.89637 6.71124C3.31573 6.44928 2.89419 7.34418 3.47625 7.6068Z" fill="#002E6E"/>
<path d="M2.56474 13.5516C3.8951 13.8039 5.26715 13.9229 6.59 13.5655C7.20636 13.3995 6.86583 12.4702 6.25364 12.6347C5.10476 12.9435 3.88316 12.7925 2.73096 12.5751C2.10538 12.4571 1.93773 13.4329 2.56474 13.5516Z" fill="#002E6E"/>
<path d="M19.9284 27.0637C17.2801 26.8671 15.5156 23.0424 14.1426 21.1788C13.4554 20.1974 12.8672 18.727 11.6909 20.0024C10.8086 20.8847 10.8086 22.8458 10.8086 24.0237C10.9061 27.4568 13.0638 28.7307 16.3003 29.1239C17.4767 29.3204 20.3216 29.3204 19.8309 27.4568" fill="#002E6E"/>
<path d="M19.9301 26.5652C18.4392 26.408 17.3682 25.0445 16.5567 23.9137C15.7028 22.7232 14.9133 21.4667 14.1207 20.2337C13.7904 19.721 13.4255 19.2429 12.8295 19.0416C12.2067 18.8309 11.5981 19.3656 11.2222 19.7823C10.2535 20.8565 10.3164 22.6729 10.3148 24.0191C10.3148 25.3464 10.7394 26.6533 11.6123 27.6582C12.4914 28.6726 13.8596 29.1601 15.1335 29.4306C16.7958 29.7829 20.924 30.1635 20.3091 27.3201C20.1738 26.6973 19.2208 26.9615 19.356 27.5827C19.7681 29.4872 15.2373 28.4729 14.4462 28.2354C13.4004 27.9209 12.4709 27.328 11.8969 26.3844C11.2584 25.3354 11.2757 24.0442 11.3245 22.8616C11.3528 22.1854 11.433 21.4824 11.7051 20.8565C11.8262 20.5765 12.018 20.3705 12.2335 20.1598C12.6376 19.7635 12.9396 20.2604 13.1535 20.5624C13.8046 21.4839 14.4053 22.4464 15.0171 23.3947C16.1761 25.1891 17.623 27.3107 19.9301 27.5529C20.5638 27.6221 20.5576 26.6313 19.9301 26.5652Z" fill="#002E6E"/>
<path d="M25.5195 27.3583C26.6959 25.004 27.7747 22.5522 28.9527 20.1995C30.7172 16.7664 33.268 17.3561 33.5621 21.2783C33.7587 23.7301 32.7774 26.9667 30.4231 28.0455C29.4417 28.4371 24.8339 29.0268 25.7161 26.6726C25.8136 26.5751 25.9127 26.3785 26.1077 26.281" fill="#002E6E"/>
<path d="M25.9459 27.606C26.7181 26.0554 27.4447 24.4843 28.1838 22.9179C28.8144 21.5796 29.3617 20.0243 30.4311 18.9643C31.12 18.2802 31.9377 18.2849 32.4756 19.1121C33.1597 20.1642 33.1566 21.6567 33.037 22.8582C32.8357 24.8712 31.7443 27.3135 29.5788 27.7554C28.8113 27.9127 28.0092 27.952 27.2308 27.8765C26.7071 27.8262 25.5008 27.3355 26.3564 26.7033C26.8628 26.329 26.3705 25.4688 25.8578 25.8494C25.0574 26.4407 24.79 27.6123 25.6298 28.3122C26.4271 28.9774 27.6931 28.9428 28.665 28.8705C29.7124 28.7918 30.6576 28.5968 31.51 27.9536C32.765 27.0084 33.4711 25.5034 33.8344 24.0109C34.2842 22.1631 34.3156 17.0771 31.2521 17.4687C29.7313 17.6637 28.8601 19.2662 28.2546 20.4913C27.1726 22.6836 26.1818 24.9168 25.092 27.1059C24.8089 27.6752 25.6613 28.1769 25.9459 27.606Z" fill="#002E6E"/>
<path d="M23.5367 26.7938C23.0507 26.2654 22.0002 26.1411 21.4105 26.5484C20.9622 26.8567 20.8868 27.7657 21.4498 27.9906C21.8854 28.1636 22.516 27.6351 22.8542 27.4323C23.0869 27.2923 23.3558 27.1114 23.6342 27.0973C23.9613 27.08 23.9063 27.7657 23.9031 27.9497C23.9629 27.871 24.0226 27.7924 24.0824 27.7138C23.3385 27.9167 22.8557 27.3898 22.8243 26.6758C22.8101 26.3613 22.3194 26.3597 22.3336 26.6758C22.3808 27.7138 23.1545 28.4749 24.2129 28.1872C24.3199 28.1573 24.3906 28.0598 24.3922 27.9513C24.4017 27.4637 24.3749 26.8378 23.8434 26.6381C23.4408 26.4855 22.9312 26.8189 22.6057 27.0124C22.4736 27.091 21.6668 27.6446 21.5819 27.5078C21.357 27.146 21.7722 26.8567 22.0804 26.8174C22.4453 26.7717 22.9328 26.863 23.1907 27.1445C23.403 27.3741 23.749 27.0265 23.5367 26.7938Z" fill="#002E6E"/>
<path d="M22.1531 25.8457C21.5587 25.6633 20.9988 25.3802 20.3886 25.2576C20.2612 25.2324 20.1197 25.2922 20.0867 25.429C19.8885 26.2531 20.0835 27.1746 20.9438 27.4955C21.7458 27.7958 22.2255 26.7076 22.6013 26.2562C22.7476 26.0816 24.0388 25.4589 23.6896 26.1052C23.3594 26.717 22.8954 26.327 22.691 25.8599C22.5951 25.6413 22.312 25.7482 22.2428 25.9181C21.9534 26.6336 21.5571 27.8304 21.8512 28.5979C21.9628 28.8904 22.4362 28.763 22.3246 28.4674C22.0635 27.7832 22.4567 26.6918 22.7162 26.0486C22.5667 26.0675 22.4173 26.0879 22.2679 26.1068C22.4975 26.6305 22.9882 27.1463 23.6 26.8397C23.9932 26.6431 24.3612 26.1461 24.2259 25.6869C24.0293 25.0232 23.0747 25.4258 22.6894 25.6035C22.2648 25.8001 22.0588 26.1666 21.8119 26.5424C21.5886 26.8853 21.219 27.2014 20.8069 26.8711C20.4374 26.5754 20.461 25.9621 20.5585 25.5564C20.4578 25.613 20.3572 25.6712 20.2565 25.7278C20.8683 25.8505 21.4281 26.1335 22.021 26.316C22.3261 26.4119 22.4551 25.9385 22.1531 25.8457Z" fill="#F1F2F2"/>
<path d="M22.4337 26.4756C22.4542 27.1487 22.7262 27.8249 23.1917 28.3156C23.4103 28.5452 23.7563 28.1976 23.5393 27.968C23.1634 27.5717 22.9417 27.0166 22.9244 26.474C22.915 26.1595 22.4243 26.1595 22.4337 26.4756Z" fill="#F1F2F2"/>
<path d="M15.6458 16.3652C16.5281 18.2886 20.0823 17.7539 21.3278 16.5304C21.1281 16.5555 20.9284 16.5823 20.7271 16.6074C22.251 17.7413 25.2768 17.1295 26.3729 15.645C26.7535 15.1307 25.8933 14.6369 25.5174 15.1449C24.7216 16.2206 22.2793 16.5351 21.2256 15.7519C21.0479 15.6198 20.7711 15.6859 20.6248 15.829C19.8086 16.631 17.0927 17.1563 16.4998 15.8636C16.2356 15.2848 15.3816 15.7881 15.6458 16.3652Z" fill="#002E6E"/>
<path d="M17.5741 17.2588C17.928 21.8541 24.9971 20.4277 25.6057 16.6061C25.7048 15.9818 24.7517 15.7144 24.6527 16.3435C24.401 17.9193 23.0611 18.8409 21.5702 19.1177C20.2036 19.3709 18.6813 18.7953 18.5633 17.2604C18.513 16.6266 17.5238 16.6219 17.5741 17.2588Z" fill="#002E6E"/>
<path d="M17.5985 25.571C18.41 26.5067 17.9351 28.2917 17.9194 29.4177C17.9146 29.6945 18.3314 29.7511 18.4006 29.4822C18.7592 28.0951 18.583 26.793 18.204 25.4295C18.0845 25.5223 17.9634 25.6135 17.8439 25.7063C18.2858 26.0381 18.3471 26.9156 18.4006 27.411C18.4336 27.7193 18.4399 28.0291 18.432 28.3373C18.4289 28.4804 18.3408 28.9003 18.3927 28.8862C18.0876 28.9664 18.2166 29.4398 18.5233 29.3595C19.0989 29.2086 18.9322 27.9725 18.9054 27.5746C18.8567 26.8181 18.745 25.7754 18.0908 25.2832C17.9115 25.148 17.6772 25.3697 17.7306 25.56C18.0845 26.8354 18.2622 28.0495 17.9272 29.3517C18.0876 29.3737 18.2481 29.3957 18.4085 29.4162C18.4273 28.1061 18.8928 26.318 17.9445 25.2219C17.7369 24.9844 17.3925 25.3335 17.5985 25.571Z" fill="#F1F2F2"/>
<path d="M26.3896 24.4918C25.5089 25.654 26.1191 27.8274 27.0155 28.8103C27.2136 29.0273 27.5156 28.7521 27.4008 28.5131C26.8268 27.3147 26.4981 25.9764 26.9353 24.6805C26.7749 24.6585 26.6145 24.6365 26.4541 24.616C26.4588 25.7703 26.3267 27.7723 27.3096 28.6137C27.5486 28.8182 27.8978 28.4722 27.6571 28.2662C26.7922 27.527 26.9479 25.643 26.9447 24.6145C26.9432 24.3298 26.55 24.2921 26.4635 24.55C25.9838 25.9717 26.3487 27.4468 26.9778 28.76C27.1067 28.6609 27.2341 28.5618 27.3631 28.4628C26.605 27.634 26.0703 25.72 26.8126 24.7387C27.0029 24.4871 26.5767 24.2433 26.3896 24.4918Z" fill="#F1F2F2"/>
<path d="M13.1138 30.8298C13.6752 31.2119 14.1627 31.69 14.6801 32.1256C15.1645 32.5329 15.8691 31.8378 15.38 31.4258C14.7965 30.9351 14.2445 30.4067 13.6123 29.9758C13.0839 29.6141 12.5901 30.4728 13.1138 30.8298Z" fill="#002E6E"/>
<path d="M19.5 30.9242C19.2909 31.4526 18.7247 33.9264 19.6715 34.0695C19.9813 34.1167 20.1134 33.6434 19.802 33.5962C19.6023 33.5663 19.6919 32.5677 19.7029 32.4151C19.7344 31.9591 19.8036 31.481 19.9734 31.0548C20.0882 30.7607 19.6148 30.6333 19.5 30.9242Z" fill="#F1F2F2"/>
<path d="M19.6719 32.7955C20.0085 32.8993 20.3686 32.9025 20.7177 32.9025C21.0338 32.9025 21.0338 32.4118 20.7177 32.4118C20.4095 32.4118 20.0997 32.4134 19.8024 32.3222C19.4989 32.2309 19.37 32.7043 19.6719 32.7955Z" fill="#F1F2F2"/>
<path d="M20.7663 30.8896C20.7585 31.7499 20.4345 33.0819 21.0337 33.8085C21.235 34.0522 21.5794 33.7031 21.3812 33.4609C21.1328 33.1605 21.2051 32.5771 21.2114 32.2154C21.2177 31.7719 21.2538 31.3315 21.257 30.888C21.2586 30.5735 20.7695 30.5735 20.7663 30.8896Z" fill="#F1F2F2"/>
<path d="M22.997 30.9715C21.9685 30.3472 21.6115 31.5361 21.915 32.3492C22.0314 32.6621 22.3459 32.7219 22.6322 32.8272C22.8067 32.8917 23.0002 32.9593 23.148 33.0773C23.2203 33.1355 23.1967 33.126 23.137 33.1889C22.8885 33.4484 22.5409 33.5176 22.261 33.2629C22.0283 33.0505 21.6807 33.3965 21.9134 33.6104C22.4073 34.0602 22.9089 34.0225 23.4169 33.5916C23.7047 33.3478 23.7818 33.0081 23.494 32.7297C23.2203 32.4671 22.7926 32.3696 22.4482 32.2359C22.3365 32.1935 22.4104 32.28 22.3554 32.1353C22.3098 32.0126 22.2909 31.8821 22.2815 31.7515C22.2547 31.3709 22.3805 31.1712 22.747 31.393C23.0206 31.5597 23.2675 31.1366 22.997 30.9715Z" fill="#F1F2F2"/>
<path d="M24.1099 31.0196C23.929 31.5999 23.841 32.3045 24.2215 32.8266C24.5125 33.226 25.0031 33.3927 25.4828 33.322C25.9294 33.2559 26.3399 32.9713 26.5255 32.5561C26.796 31.9522 26.5601 31.2901 26.2251 30.7648C26.0553 30.499 25.6306 30.7444 25.8021 31.0117C26.0505 31.4018 26.2581 31.8657 26.093 32.328C25.9876 32.6237 25.6825 32.7904 25.3916 32.8423C25.1101 32.8926 24.7908 32.7778 24.6226 32.5451C24.3316 32.144 24.4496 31.5826 24.5833 31.1486C24.676 30.8482 24.2027 30.7192 24.1099 31.0196Z" fill="#F1F2F2"/>
<path d="M14.6713 21.5208C14.5801 21.3117 14.8333 21.2016 14.9843 21.1182C14.7358 20.9767 14.4889 20.8336 14.2404 20.692C14.3002 21.167 14.1901 21.5255 13.9149 21.914C14.2215 21.9973 14.5298 22.0807 14.8364 22.164C14.783 21.6403 14.8459 20.7675 15.4545 20.5819C15.2453 20.4231 15.0377 20.2643 14.8286 20.1054C14.8868 20.8163 14.5266 21.4721 14.091 22.0115C14.3662 22.0838 14.6414 22.1562 14.9182 22.2301C14.7845 21.6686 15.0613 21.2047 15.3586 20.7486C15.0519 20.6653 14.7437 20.5819 14.437 20.4986C14.4354 20.7581 14.4275 20.9987 14.3568 21.2503C14.1838 21.8652 15.1384 22.1263 15.3098 21.5129C15.4042 21.1795 15.4246 20.8446 15.4262 20.4986C15.4278 19.989 14.7672 19.8475 14.5046 20.2485C14.0517 20.9437 13.7655 21.6592 13.9652 22.4927C14.0454 22.8308 14.5565 23.0023 14.7924 22.7113C15.3869 21.9769 15.8996 21.0836 15.8194 20.1054C15.7942 19.7972 15.5205 19.5283 15.1934 19.6289C14.1382 19.9529 13.7466 21.156 13.8504 22.1656C13.9007 22.6626 14.4779 22.8293 14.772 22.4156C15.1337 21.9045 15.3098 21.3211 15.2312 20.6952C15.1856 20.3287 14.8443 20.0708 14.4873 20.2674C13.7859 20.6543 13.4918 21.2708 13.8189 22.0225C14.0706 22.6028 14.9229 22.0996 14.6713 21.5208Z" fill="#002E6E"/>
<path d="M28.2672 20.8823C27.7026 20.8698 27.1852 20.56 27.3707 19.9387C27.1679 20.0536 26.965 20.1684 26.7621 20.2847C27.2119 20.4577 27.3786 21.2032 27.495 21.6058C27.7372 21.4202 27.9794 21.2331 28.2216 21.0475C27.907 20.8493 27.8347 20.6166 27.7623 20.2643C27.4871 20.4247 27.2119 20.5851 26.9351 20.7455C27.1694 20.9924 27.3078 21.2802 27.3959 21.6058C27.5626 22.2207 28.5172 21.9596 28.3489 21.3431C28.2168 20.854 27.9825 20.4153 27.6334 20.0457C27.2732 19.6651 26.7118 20.0661 26.8062 20.5269C26.9304 21.1324 27.1899 21.5664 27.7199 21.9014C28.0895 22.1342 28.566 21.752 28.4464 21.3431C28.209 20.5254 27.8756 19.6588 27.0232 19.3301C26.7668 19.2311 26.4869 19.4371 26.4146 19.6761C26.0387 20.9358 27.0688 21.8432 28.264 21.8716C28.9057 21.8857 28.9041 20.8965 28.2672 20.8823Z" fill="#002E6E"/>
</svg>
