<svg width="44" height="44" viewBox="0 0 44 44" fill="none" xmlns="http://www.w3.org/2000/svg">
<path d="M19.6133 31.3578C19.6133 30.4385 20.3585 29.6934 21.2777 29.6934H22.9069C23.8261 29.6934 24.5713 30.4385 24.5713 31.3578V36.2535C24.5713 37.1727 23.8261 37.9179 22.9069 37.9179H21.2777C20.3585 37.9179 19.6133 37.1727 19.6133 36.2535V31.3578Z" fill="#86643C"/>
<path fill-rule="evenodd" clip-rule="evenodd" d="M20.5477 6.59745C21.3521 5.80085 22.648 5.80085 23.4523 6.59745L28.4626 11.5595C29.7725 12.8567 28.8539 15.0898 27.0103 15.0898H25.7683L30.1981 19.4954C31.5037 20.7939 30.5841 23.0227 28.7427 23.0227H28.5124L33.3888 27.8817C34.6925 29.1808 33.7725 31.4076 31.932 31.4076H12.068C10.2275 31.4076 9.30749 29.1808 10.6112 27.8817L15.4876 23.0227H15.2572C13.4158 23.0227 12.4962 20.7939 13.8019 19.4954L18.2317 15.0898H16.9897C15.1462 15.0898 14.2276 12.8567 15.5374 11.5595L20.5477 6.59745Z" fill="#6CB257"/>
<path d="M31.2785 28.5279C31.2785 29.1722 30.7562 29.6945 30.1119 29.6945C29.4676 29.6945 28.9453 29.1722 28.9453 28.5279C28.9453 27.8836 29.4676 27.3613 30.1119 27.3613C30.7562 27.3613 31.2785 27.8836 31.2785 28.5279Z" fill="#FF8800"/>
<path d="M27.2531 18.6686C27.2531 19.3128 26.7308 19.8352 26.0865 19.8352C25.4422 19.8352 24.9199 19.3128 24.9199 18.6686C24.9199 18.0243 25.4422 17.502 26.0865 17.502C26.7308 17.502 27.2531 18.0243 27.2531 18.6686Z" fill="#FF8800"/>
<path d="M26.5539 12.9537C26.5539 13.598 26.0316 14.1203 25.3873 14.1203C24.743 14.1203 24.2207 13.598 24.2207 12.9537C24.2207 12.3094 24.743 11.7871 25.3873 11.7871C26.0316 11.7871 26.5539 12.3094 26.5539 12.9537Z" fill="#FFAE00"/>
<path d="M20.0793 19.3111C20.0793 19.9554 19.557 20.4777 18.9127 20.4777C18.2684 20.4777 17.7461 19.9554 17.7461 19.3111C17.7461 18.6668 18.2684 18.1445 18.9127 18.1445C19.557 18.1445 20.0793 18.6668 20.0793 19.3111Z" fill="#FFAE00"/>
<path d="M16.4621 27.8853C16.4621 28.5296 15.9398 29.0519 15.2955 29.0519C14.6512 29.0519 14.1289 28.5296 14.1289 27.8853C14.1289 27.2411 14.6512 26.7188 15.2955 26.7188C15.9398 26.7188 16.4621 27.2411 16.4621 27.8853Z" fill="#FFAE00"/>
<path d="M24.9191 25.5533C24.9191 26.1976 24.3968 26.7199 23.7525 26.7199C23.1082 26.7199 22.5859 26.1976 22.5859 25.5533C22.5859 24.909 23.1082 24.3867 23.7525 24.3867C24.3968 24.3867 24.9191 24.909 24.9191 25.5533Z" fill="#E76E23"/>
<path d="M21.2453 10.2701C21.2453 10.9144 20.723 11.4367 20.0787 11.4367C19.4344 11.4367 18.9121 10.9144 18.9121 10.2701C18.9121 9.62582 19.4344 9.10352 20.0787 9.10352C20.723 9.10352 21.2453 9.62582 21.2453 10.2701Z" fill="#E76E23"/>
<path d="M31.0069 24.6878C30.6943 25.2532 29.6769 25.2893 28.7345 24.7683C27.7921 24.2473 27.2816 23.3666 27.5942 22.8012C27.9068 22.2357 28.9241 22.1997 29.8665 22.7207C30.8089 23.2417 31.3194 24.1224 31.0069 24.6878Z" fill="white"/>
<path d="M32.2027 26.0762C32.0325 26.384 31.482 26.4055 30.9731 26.1242C30.4642 25.8429 30.1896 25.3653 30.3598 25.0574C30.53 24.7496 31.0805 24.7281 31.5894 25.0094C32.0983 25.2907 32.3729 25.7683 32.2027 26.0762Z" fill="white"/>
</svg>
