<svg width="40" height="42" viewBox="0 0 40 42" fill="none" xmlns="http://www.w3.org/2000/svg">
<g id="Group">
<g id="Group_2">
<g id="Group_3">
<path id="Vector" d="M16.2653 35.6739C12.87 38.058 9.89134 29.789 12.244 26.9456C12.244 26.9456 30.0922 25.9658 16.2653 35.6739Z" fill="#AEC5E7"/>
</g>
<g id="Group_4">
<g id="Group_5">
<path id="Vector_2" d="M16.0159 35.2468C13.6192 36.8446 12.2274 32.5685 11.9711 30.9251C11.872 30.2897 11.8625 29.6119 11.9506 28.975C11.9899 28.6872 12.0638 28.4057 12.1519 28.1289C12.1944 27.9952 12.2526 27.8678 12.3139 27.742C12.4491 27.4637 12.6756 27.4149 12.2463 27.4385C12.5262 27.4228 12.8077 27.4181 13.0876 27.4134C14.5439 27.3913 16.0144 27.4511 17.4518 27.687C18.5086 27.86 20.4634 28.1619 20.9336 29.3273C21.2482 30.1026 20.6852 30.9424 20.2417 31.54C19.1392 33.0309 17.5115 34.19 16.0159 35.2468C15.5001 35.6116 15.9923 36.4703 16.5145 36.1007C17.8827 35.1335 19.2336 34.1113 20.3864 32.8893C21.039 32.1974 21.6555 31.3938 21.9197 30.4659C22.3254 29.0316 21.3331 27.9465 20.0986 27.4024C17.7349 26.3597 14.8128 26.3266 12.2667 26.4509C11.3719 26.4949 11.0338 28.3255 10.9583 28.9939C10.8026 30.3794 11.0353 31.7964 11.504 33.1017C12.2274 35.1115 14.1806 37.6577 16.5145 36.1007C17.0429 35.7484 16.5475 34.8914 16.0159 35.2468Z" fill="#002E6E"/>
</g>
</g>
</g>
<g id="Group_6">
<g id="Group_7">
<path id="Vector_3" d="M15.186 38.0319C14.6136 38.9676 11.1647 38.9142 11.2638 37.4437C11.2638 36.7565 13.7156 35.6792 14.2063 35.0895C14.2047 35.0895 17.3437 34.5013 15.186 38.0319Z" fill="white"/>
</g>
<g id="Group_8">
<g id="Group_9">
<path id="Vector_4" d="M14.7574 37.7836C14.2715 38.4614 12.595 38.1972 12.0021 37.8622C11.5036 37.5791 11.9109 37.2788 12.2097 37.0554C12.7318 36.6638 13.309 36.3493 13.8547 35.9939C14.0466 35.8681 14.229 35.7313 14.4067 35.5866C14.5986 35.4309 14.3281 35.5693 14.3029 35.5724C14.5074 35.5457 14.7275 35.5347 14.932 35.5661C16.047 35.7407 15.0594 37.2756 14.7574 37.7836C14.4303 38.334 15.2858 38.831 15.6114 38.2821C16.2656 37.1812 17.1007 35.2815 15.4211 34.6666C15.0767 34.5407 14.6646 34.5392 14.3029 34.5816C13.7478 34.6461 13.2382 35.2186 12.768 35.5111C12.1154 35.9168 11.2708 36.3383 10.8745 37.0303C10.5144 37.6625 10.9862 38.367 11.502 38.7162C12.5651 39.4364 14.8172 39.3908 15.6098 38.2837C15.9841 37.7631 15.1254 37.2709 14.7574 37.7836Z" fill="#002E6E"/>
</g>
</g>
</g>
<g id="Group_10">
<g id="Group_11">
<path id="Vector_5" d="M26.0703 34.9926C26.8551 36.7571 27.3457 39.8961 24.9915 40.6809C22.1481 41.5631 20.7752 37.8375 20.382 35.8764C20.0879 37.6409 19.9904 41.9563 17.1455 40.9765C15.3794 40.2893 15.0853 36.7602 15.3794 35.0916C15.3794 35.0916 20.8711 38.9163 25.284 35.0916C26.7403 33.8304 28.2264 32.9339 28.2264 31.4635C28.2264 29.4033 27.4417 28.326 26.4603 26.6575C26.4603 26.6575 18.0262 22.2446 14.7896 27.5397C13.6919 29.3357 12.4354 34.2078 15.2803 35.1891" fill="white"/>
</g>
<g id="Group_12">
<g id="Group_13">
<path id="Vector_6" d="M25.6406 35.2415C26.3782 36.951 26.8154 40.2914 24.0947 40.3181C22.0707 40.337 21.1774 37.2907 20.8566 35.7432C20.7607 35.2809 19.9806 35.2589 19.9036 35.7432C19.7605 36.6381 19.6818 37.5408 19.4915 38.4293C19.3248 39.2046 19.0449 40.3354 18.1784 40.5933C16.9737 40.9519 16.3148 39.5318 16.0553 38.6353C15.7455 37.5596 15.6747 36.3283 15.8556 35.2211C15.6134 35.3202 15.3712 35.4177 15.129 35.5168C16.9973 36.8048 19.5419 37.5298 21.7939 37.2105C23.8903 36.9133 25.3371 35.6898 26.9113 34.3782C27.5483 33.8466 28.245 33.216 28.5375 32.4139C28.863 31.5222 28.7136 30.5125 28.484 29.6114C28.2717 28.7763 27.8329 28.0042 27.4004 27.2666C27.1756 26.8829 26.9963 26.3686 26.5795 26.1626C25.8671 25.8119 25.1232 25.5178 24.3731 25.2599C21.937 24.4232 19.111 23.9907 16.7001 25.1199C14.6713 26.0714 13.6853 28.2354 13.2449 30.3144C12.8235 32.3085 12.9587 34.8327 15.1494 35.6646C15.747 35.8911 16.0018 34.9349 15.4121 34.7116C13.9794 34.1674 13.9322 32.3903 14.1068 31.1023C14.2876 29.7703 14.7374 28.3407 15.574 27.2713C17.4109 24.9249 20.7449 25.2379 23.2942 25.9597C24.1828 26.2113 25.054 26.5369 25.8907 26.9285C26.221 27.0826 26.1172 27.0527 26.2933 27.3484C26.8186 28.2291 27.3281 29.094 27.5845 30.0958C27.8722 31.2234 27.7527 32.1513 26.9491 33.0052C26.1596 33.8435 25.1468 34.6549 24.1938 35.2934C22.596 36.3644 20.6317 36.4824 18.8059 36.0467C17.6956 35.7825 16.5695 35.3123 15.6259 34.6628C15.3806 34.493 14.9497 34.6534 14.8994 34.9585C14.5298 37.231 14.8648 41.4944 17.9157 41.6124C20.5028 41.7115 20.5798 37.7263 20.855 36.0074C20.5374 36.0074 20.2197 36.0074 19.902 36.0074C20.3596 38.2186 21.7373 41.6879 24.5697 41.2758C27.7999 40.8056 27.4649 36.9966 26.493 34.7446C26.243 34.158 25.3906 34.6628 25.6406 35.2415Z" fill="#002E6E"/>
</g>
</g>
</g>
<g id="Group_14">
<g id="Group_15">
<path id="Vector_7" d="M17.9304 26.4905C21.0695 26.36 24.273 26.0989 27.2799 24.7905C33.2293 22.1107 33.948 12.6291 31.0071 7.53054C30.2224 6.1576 29.3071 4.65414 28.0002 3.6728C26.7578 2.69147 25.0577 2.36592 23.6848 1.58116C21.5932 0.40481 18.8788 0.208236 16.5905 0.862463C13.7786 0.731932 10.2165 4.13202 8.97415 6.42024C7.34015 9.55927 6.55539 13.2204 6.94699 16.751C7.2741 19.4309 8.38598 22.5038 10.6081 24.0733C12.3082 25.3157 15.5117 26.5581 17.6694 26.4921" fill="#002E6E"/>
</g>
<g id="Group_16">
<g id="Group_17">
<path id="Vector_8" d="M17.9323 26.9858C21.8294 26.8176 26.4781 26.5644 29.5716 23.883C31.8629 21.8967 32.8616 18.7671 33.1289 15.8388C33.4026 12.8319 32.8254 9.69917 31.3172 7.0744C30.328 5.35234 29.18 3.69632 27.4123 2.70397C26.5253 2.20544 25.533 1.90978 24.6067 1.49617C23.6332 1.06212 22.7651 0.558867 21.7208 0.28837C20.859 0.0650519 19.9547 -0.00729321 19.0678 0.000570089C18.1006 0.00843339 17.1806 0.34027 16.2291 0.370151C14.6329 0.420476 13.1546 1.37036 11.9342 2.31396C8.93039 4.6352 7.32943 8.03687 6.64689 11.7122C5.97222 15.3513 6.37797 19.4481 8.48533 22.5761C9.4651 24.0308 10.8994 24.9713 12.4657 25.6963C14.0761 26.4417 15.88 27.011 17.6697 26.989C18.3082 26.9811 18.3082 25.9903 17.6697 25.9982C15.674 26.0218 13.6499 25.2575 11.92 24.317C10.1303 23.3451 8.96342 21.8291 8.23213 19.9482C6.59657 15.746 7.3247 10.8739 9.27795 6.91556C10.08 5.28943 11.4545 3.89291 12.8966 2.81878C13.6091 2.28722 14.3938 1.84216 15.2368 1.56066C15.6173 1.43327 16.0105 1.37036 16.41 1.35778C16.9242 1.34205 17.4275 1.16434 17.9386 1.08256C19.0159 0.907996 20.145 0.97562 21.2097 1.19107C22.3483 1.42068 23.2935 1.99313 24.3377 2.45864C25.2688 2.87382 26.2375 3.18521 27.1292 3.68531C28.1389 4.25304 28.9095 5.17777 29.5574 6.11665C32.168 9.89889 32.9056 14.6468 31.4855 19.0408C30.8234 21.0884 29.5511 22.9394 27.6749 24.0403C24.8379 25.7041 21.1279 25.863 17.9307 26.0014C17.2954 26.0234 17.2922 27.0142 17.9323 26.9858Z" fill="#002E6E"/>
</g>
</g>
</g>
<g id="Group_18">
<g id="Group_19">
<path id="Vector_9" d="M16.4706 2.58475C14.5079 2.4039 12.3675 4.57889 11.3327 5.95969C9.4565 8.39416 8.10087 10.6273 7.7313 13.6374C7.36172 16.517 7.90428 19.0631 9.6232 21.3372C11.4082 23.8078 14.1572 24.2434 16.9722 24.7451C21.2279 25.4968 25.397 23.5027 28.7106 20.9912C32.8058 17.8867 31.3149 11.3602 28.8018 7.71792C27.215 5.37623 24.9786 3.69505 22.2894 2.73416C21.0439 2.28595 17.768 1.46188 16.6656 2.58161" fill="white"/>
</g>
<g id="Group_20">
<g id="Group_21">
<path id="Vector_10" d="M16.4725 2.08997C14.7127 1.99719 13.192 3.21128 12.0235 4.39549C10.6836 5.75269 9.54339 7.43701 8.6517 9.11504C6.75507 12.6834 6.5176 17.1922 8.60767 20.7229C9.5953 22.3899 10.9871 23.5521 12.7815 24.2582C14.5523 24.9564 16.6675 25.3307 18.5642 25.3984C20.6778 25.4739 22.76 24.87 24.6724 24.0207C26.4841 23.2171 28.42 22.0926 29.8181 20.6678C33.3346 17.0837 31.5968 10.8874 29.0947 7.27031C27.4654 4.91447 25.0954 3.23644 22.4251 2.25825C20.7344 1.63862 17.8282 0.857004 16.32 2.23308C15.8466 2.66399 16.5496 3.36383 17.0198 2.93449C18.0672 1.97831 20.313 2.66399 21.494 2.99897C23.3168 3.51637 25.0136 4.48356 26.429 5.73697C29.0538 8.06136 30.6831 11.6612 30.7696 15.1572C30.8105 16.8384 30.3638 18.5321 29.2535 19.8233C28.6213 20.5577 27.7658 21.0956 26.9637 21.624C26.0013 22.2578 24.9853 22.8066 23.9332 23.2737C21.8038 24.2189 19.4197 24.6466 17.1079 24.2692C15.2003 23.9578 13.2187 23.6071 11.5674 22.544C9.82962 21.4243 8.76021 19.3027 8.32144 17.3432C7.85908 15.2814 8.16418 13.0294 8.86401 11.0588C9.53868 9.16065 10.7685 7.42758 12.0282 5.87537C13.0803 4.57792 14.6718 2.98639 16.4741 3.08075C17.111 3.11535 17.1079 2.12457 16.4725 2.08997Z" fill="#002E6E"/>
</g>
</g>
</g>
<g id="Group_22">
<g id="Group_23">
<path id="Vector_11" d="M16.1971 7.02112C15.5256 8.23521 16.5007 9.57669 17.6 10.1161C18.1174 10.3693 18.7417 10.4495 19.2481 10.1303C19.9464 9.68678 19.9542 8.7133 19.8662 7.99145C19.5579 8.0748 19.2512 8.15815 18.943 8.2415C19.6192 9.25902 20.912 9.96514 21.8005 8.74003C22.4013 7.91282 22.3808 6.43924 21.1369 6.27097C20.5125 6.18604 20.2436 7.14064 20.8742 7.22556C21.3429 7.28847 21.2517 7.70994 21.0708 8.05278C20.6871 8.77778 20.1099 8.20691 19.7985 7.73983C19.5532 7.37182 18.8125 7.4599 18.8754 7.98988C18.9634 8.71488 18.954 9.67891 18.0041 9.21341C17.4568 8.94448 16.6894 8.1786 17.0527 7.52122C17.3625 6.96136 16.507 6.46282 16.1971 7.02112Z" fill="#002E6E"/>
</g>
</g>
<g id="Group_24">
<g id="Group_25">
<path id="Vector_12" d="M16.7153 12.8884C16.7153 12.9136 16.7137 12.9387 16.7121 12.9655C16.7232 12.8287 16.7153 12.9262 16.709 12.9592C16.6933 13.0378 16.6823 13.1164 16.6744 13.1967C16.6555 13.3822 16.7452 13.5804 16.849 13.7282C16.9528 13.8745 17.0896 13.9735 17.2767 13.9735C17.5174 13.9735 17.6699 13.8179 17.7548 13.6103C17.7344 13.6559 17.7359 13.6543 17.7564 13.6071C17.7705 13.5757 17.7847 13.5442 17.7988 13.5143C17.835 13.4357 17.8712 13.3555 17.8964 13.2721C17.953 13.0819 17.9215 12.8837 17.8854 12.6934C17.8083 12.2908 17.1509 12.187 16.9795 12.5755C16.8773 12.8051 16.8474 13.0331 16.8458 13.2832C16.8458 13.5033 16.9968 13.7031 17.2091 13.7612C17.4356 13.8242 17.6416 13.7188 17.769 13.5332C17.9687 13.2438 17.9703 12.8979 17.7517 12.6226C17.5111 12.3207 16.9339 12.4245 16.8631 12.8239C16.8159 13.0897 16.9307 13.3571 17.2091 13.4326C17.4513 13.4986 17.7705 13.3524 17.8177 13.0866C17.8177 13.0834 17.8193 13.0803 17.8193 13.0771C17.7768 13.1495 17.7344 13.2234 17.6919 13.2957C17.6935 13.2942 17.6951 13.2926 17.6966 13.291C17.6243 13.3335 17.5504 13.3759 17.478 13.4184C17.239 13.5049 16.937 13.3178 16.9323 13.0756C16.9292 13.0315 16.9402 12.9906 16.9622 12.9545C16.948 12.9812 16.9307 13.0079 16.9119 13.0331C17.2201 13.1165 17.5268 13.1998 17.835 13.2832C17.835 13.2203 17.8366 13.1573 17.8397 13.0944C17.8445 13.0362 17.8445 13.0394 17.8366 13.1039C17.8413 13.0787 17.8838 12.9592 17.8319 13.074C17.5299 13.0347 17.228 12.9954 16.926 12.956C16.9323 12.9844 16.937 13.0127 16.9418 13.041C16.9323 12.9702 16.9307 12.9592 16.9339 13.0111C16.9339 13.03 16.9339 13.0473 16.9323 13.0661C16.9386 12.923 16.9449 12.9843 16.9307 13.0315C16.9134 13.0787 16.9213 13.063 16.9512 12.9859C16.9386 13.0158 16.9245 13.0441 16.9119 13.0724C16.871 13.1621 16.8317 13.2548 16.7939 13.3461C17.0959 13.3067 17.3978 13.2674 17.6998 13.2281C17.6762 13.1951 17.607 13.041 17.6542 13.1731C17.6416 13.1196 17.6432 13.1353 17.6589 13.2218C17.662 13.1684 17.6573 13.1872 17.6479 13.2753C17.6683 13.1463 17.6982 13.0205 17.7013 12.8884C17.7076 12.6179 17.4702 12.393 17.206 12.393C16.9355 12.393 16.7232 12.6195 16.7153 12.8884Z" fill="#002E6E"/>
</g>
</g>
<g id="Group_26">
<g id="Group_27">
<path id="Vector_13" d="M20.593 12.4336C20.4892 12.8708 20.5458 13.3363 20.9169 13.6351C21.2126 13.8726 21.6152 13.7924 21.7442 13.4165C21.8196 13.1979 21.8857 12.9966 21.892 12.7623C21.903 12.41 21.4532 12.1144 21.1465 12.3345C21.1198 12.3534 21.0946 12.3707 21.0663 12.388C20.9861 12.4336 21.1937 12.3503 21.0994 12.3691C21.3887 12.3094 20.9814 12.4006 20.9342 12.4289C20.7329 12.5547 20.692 12.745 20.6574 12.9573C20.8163 12.8362 20.9767 12.7151 21.1355 12.594C21.1324 12.594 21.1292 12.594 21.1277 12.594C20.8572 12.594 20.6323 12.8189 20.6323 13.0894C20.6323 13.3599 20.8572 13.5848 21.1277 13.5848C21.1984 13.5848 21.2692 13.5848 21.34 13.5848C21.6105 13.5848 21.8354 13.3599 21.8354 13.0894C21.8354 12.8189 21.6105 12.594 21.34 12.594C21.3368 12.594 21.3337 12.594 21.3321 12.594C21.4752 12.8425 21.6168 13.091 21.7599 13.3395C21.8841 13.0564 21.9219 12.7544 21.752 12.4777C21.6451 12.3031 21.4847 12.2056 21.2802 12.1899C21.0648 12.1741 20.832 12.3534 20.788 12.5657C20.7345 12.8299 20.8603 13.1004 21.134 13.1743C21.3809 13.242 21.6891 13.0926 21.7426 12.8284C21.7426 12.8252 21.7442 12.8221 21.7442 12.8205C21.7017 12.8928 21.6592 12.9668 21.6168 13.0391C21.6183 13.0375 21.6199 13.0359 21.6215 13.0344C21.5051 13.0831 21.3887 13.1319 21.2708 13.1791C21.2739 13.1791 21.2755 13.1791 21.2786 13.1791C21.1953 13.157 21.1119 13.1335 21.0286 13.1114C20.972 13.0784 20.9279 13.0328 20.8949 12.9762C20.9185 13.0186 20.9138 13.0014 20.8792 12.9274C20.8918 12.9778 20.8918 12.9652 20.8792 12.8897C20.8871 12.9746 20.8886 12.8677 20.9028 12.8378C20.8289 13.0045 20.8053 13.1712 20.9028 13.3379C20.9909 13.4889 21.156 13.5832 21.3305 13.5832C21.3337 13.5832 21.3368 13.5832 21.3384 13.5832C21.6089 13.5832 21.8338 13.3583 21.8338 13.0878C21.8338 12.8174 21.6089 12.5925 21.3384 12.5925C21.2676 12.5925 21.1969 12.5925 21.1261 12.5925C20.8556 12.5925 20.6307 12.8174 20.6307 13.0878C20.6307 13.3583 20.8556 13.5832 21.1261 13.5832C21.1292 13.5832 21.1324 13.5832 21.134 13.5832C21.3368 13.5832 21.5759 13.4338 21.6121 13.2199C21.6215 13.1649 21.6294 13.1099 21.6388 13.0548C21.6419 13.0391 21.6451 13.0234 21.6498 13.0092C21.5664 13.3033 21.373 13.3269 21.2189 13.3442C21.3762 13.3269 21.5145 13.2844 21.6451 13.1901C21.3966 13.047 21.1481 12.9054 20.8996 12.7623C20.8949 12.8252 20.8965 12.8315 20.9044 12.7796C20.8981 12.8252 20.8839 12.8708 20.8698 12.9149C20.8462 12.9951 20.8131 13.0737 20.7864 13.1539C21.0616 13.0816 21.3384 13.0076 21.6136 12.9353C21.59 12.9164 21.4784 12.7875 21.5413 12.8771C21.5145 12.8268 21.5145 12.8315 21.5413 12.8913C21.5334 12.8677 21.5271 12.8441 21.5224 12.8189C21.5523 12.9463 21.5287 12.8016 21.5303 12.7623C21.5224 12.8944 21.5397 12.7293 21.546 12.6994C21.6089 12.4368 21.4674 12.1631 21.2 12.0908C20.9484 12.0169 20.6543 12.171 20.593 12.4336Z" fill="#002E6E"/>
</g>
</g>
<g id="Group_28">
<g id="Group_29">
<path id="Vector_14" d="M17.638 27.8301C17.638 26.2605 20.0898 25.2808 21.4627 25.4758C23.9145 25.8674 24.9934 27.8301 25.679 30.0853C26.2672 32.3404 26.5613 35.0863 24.012 36.1652C22.1484 37.0474 19.8932 36.8524 17.9321 36.2627C12.832 34.4981 16.4617 29.5946 18.2262 26.5531" fill="#002E6E"/>
</g>
<g id="Group_30">
<g id="Group_31">
<path id="Vector_15" d="M18.1334 27.828C18.2057 26.5164 20.0772 25.9518 21.1529 25.9455C22.6469 25.9361 23.8028 27.1344 24.4633 28.3438C25.1317 29.5705 25.4966 31.0315 25.5799 32.4233C25.6806 34.1013 24.976 35.2682 23.4065 35.8847C21.708 36.5515 19.7642 36.2779 18.0626 35.784C16.8768 35.4412 15.8845 34.5652 15.8153 33.2914C15.7524 32.1496 16.2949 30.9969 16.7966 30.0061C17.3549 28.9052 18.0312 27.8688 18.6539 26.8042C18.9763 26.2506 18.1208 25.7536 17.7984 26.304C16.4884 28.5451 14.3716 31.2438 14.9157 34.0085C15.1988 35.4491 16.5245 36.2763 17.8015 36.7402C19.6935 37.4291 22.0351 37.4841 23.9098 36.7465C27.3334 35.4003 26.8711 31.4183 25.6743 28.6048C25.0232 27.0731 24.0356 25.8291 22.4519 25.2158C21.0632 24.6779 19.3695 25.0349 18.2089 25.9376C17.5892 26.4204 17.1866 27.0338 17.1426 27.8295C17.1064 28.4649 18.0972 28.4617 18.1334 27.828Z" fill="#002E6E"/>
</g>
</g>
</g>
<g id="Group_32">
<path id="Vector_16" d="M16.0679 15.1824C16.0679 16.483 15.0142 17.5367 13.7136 17.5367C12.4131 17.5367 11.3594 16.483 11.3594 15.1824C11.3594 13.8818 12.4131 12.8281 13.7136 12.8281C15.0142 12.8281 16.0679 13.8834 16.0679 15.1824Z" fill="#AEC5E7"/>
</g>
<g id="Group_33">
<path id="Vector_17" d="M27.6382 14.6902C27.6382 15.9908 26.5846 17.0445 25.284 17.0445C23.9834 17.0445 22.9297 15.9908 22.9297 14.6902C22.9297 13.3896 23.9834 12.3359 25.284 12.3359C26.5846 12.3375 27.6382 13.3912 27.6382 14.6902Z" fill="#AEC5E7"/>
</g>
<g id="Group_34">
<g id="Group_35">
<path id="Vector_18" d="M33.2125 0.907748C32.8825 1.44572 32.6857 2.03421 32.5544 2.64762C32.4976 2.91102 32.5943 3.18119 32.8712 3.27162C33.108 3.34894 33.4385 3.2182 33.4952 2.9548C33.6087 2.4245 33.7596 1.90873 34.0451 1.44277C34.3765 0.900575 33.5454 0.361321 33.2125 0.907748Z" fill="#002E6E"/>
</g>
</g>
<g id="Group_36">
<g id="Group_37">
<path id="Vector_19" d="M34.539 6.21561C35.3537 5.79492 36.1286 5.30626 36.9432 4.88557C37.509 4.59302 37.0626 3.71028 36.4954 4.00355C35.6807 4.42423 34.9059 4.9129 34.0912 5.33359C33.5254 5.62614 33.9732 6.50816 34.539 6.21561Z" fill="#002E6E"/>
</g>
</g>
<g id="Group_38">
<g id="Group_39">
<path id="Vector_20" d="M36.1053 9.63493C37.1723 9.63117 38.2394 9.66257 39.3063 9.65881C39.9421 9.657 40.0029 8.66846 39.3643 8.67169C38.2973 8.67545 37.2302 8.64405 36.1633 8.64781C35.5275 8.64962 35.4681 9.63745 36.1053 9.63493Z" fill="#002E6E"/>
</g>
</g>
<g id="Group_40">
<g id="Group_41">
<path id="Vector_21" d="M4.73931 1.18125C5.43759 1.95526 5.92748 2.89207 6.56153 3.71411C6.95053 4.21796 7.76529 3.65866 7.37554 3.15272C6.68691 2.25817 6.14088 1.27071 5.38041 0.429317C4.95487 -0.0447702 4.31888 0.714778 4.73931 1.18125Z" fill="#002E6E"/>
</g>
</g>
<g id="Group_42">
<g id="Group_43">
<path id="Vector_22" d="M1.47625 6.6068C2.31375 6.98405 3.2074 7.21566 4.04566 7.595C4.6263 7.85696 5.04784 6.96206 4.46577 6.69943C3.62752 6.3201 2.73387 6.08848 1.89637 5.71124C1.31573 5.44928 0.894186 6.34418 1.47625 6.6068Z" fill="#002E6E"/>
</g>
</g>
<g id="Group_44">
<g id="Group_45">
<path id="Vector_23" d="M0.564735 12.5516C1.8951 12.8039 3.26715 12.9229 4.59 12.5655C5.20636 12.3995 4.86583 11.4702 4.25364 11.6347C3.10476 11.9435 1.88316 11.7925 0.730957 11.5751C0.105376 11.4571 -0.0622703 12.4329 0.564735 12.5516Z" fill="#002E6E"/>
</g>
</g>
<g id="Group_46">
<g id="Group_47">
<path id="Vector_24" d="M17.9284 26.0637C15.2801 25.8671 13.5156 22.0424 12.1426 20.1788C11.4554 19.1974 10.8672 17.727 9.69085 19.0024C8.80859 19.8847 8.80859 21.8458 8.80859 23.0237C8.9061 26.4568 11.0638 27.7307 14.3003 28.1239C15.4767 28.3204 18.3216 28.3204 17.8309 26.4568" fill="#002E6E"/>
</g>
<g id="Group_48">
<g id="Group_49">
<path id="Vector_25" d="M17.9301 25.5652C16.4392 25.408 15.3682 24.0445 14.5567 22.9137C13.7028 21.7232 12.9133 20.4667 12.1207 19.2337C11.7904 18.721 11.4255 18.2429 10.8295 18.0416C10.2067 17.8309 9.59812 18.3656 9.22225 18.7823C8.25349 19.8565 8.31639 21.6729 8.31482 23.0191C8.31482 24.3464 8.73944 25.6533 9.61227 26.6582C10.4914 27.6726 11.8596 28.1601 13.1335 28.4306C14.7958 28.7829 18.924 29.1635 18.3091 26.3201C18.1738 25.6973 17.2208 25.9615 17.356 26.5827C17.7681 28.4872 13.2373 27.4729 12.4462 27.2354C11.4004 26.9209 10.4709 26.328 9.89692 25.3844C9.25842 24.3354 9.27571 23.0442 9.32447 21.8616C9.35277 21.1854 9.43299 20.4824 9.70506 19.8565C9.82615 19.5765 10.018 19.3705 10.2335 19.1598C10.6376 18.7635 10.9396 19.2604 11.1535 19.5624C11.8046 20.4839 12.4053 21.4464 13.0171 22.3947C14.1761 24.1891 15.623 26.3107 17.9301 26.5529C18.5638 26.6221 18.5576 25.6313 17.9301 25.5652Z" fill="#002E6E"/>
</g>
</g>
</g>
<g id="Group_50">
<g id="Group_51">
<path id="Vector_26" d="M23.5195 26.3583C24.6959 24.004 25.7747 21.5522 26.9527 19.1995C28.7172 15.7664 31.268 16.3561 31.5621 20.2783C31.7587 22.7301 30.7774 25.9667 28.4231 27.0455C27.4417 27.4371 22.8339 28.0268 23.7161 25.6726C23.8136 25.5751 23.9127 25.3785 24.1077 25.281" fill="#002E6E"/>
</g>
<g id="Group_52">
<g id="Group_53">
<path id="Vector_27" d="M23.9459 26.606C24.7181 25.0554 25.4447 23.4843 26.1838 21.9179C26.8144 20.5796 27.3617 19.0243 28.4311 17.9643C29.12 17.2802 29.9377 17.2849 30.4756 18.1121C31.1597 19.1642 31.1566 20.6567 31.037 21.8582C30.8357 23.8712 29.7443 26.3135 27.5788 26.7554C26.8113 26.9127 26.0092 26.952 25.2308 26.8765C24.7071 26.8262 23.5008 26.3355 24.3564 25.7033C24.8628 25.329 24.3705 24.4688 23.8578 24.8494C23.0574 25.4407 22.79 26.6123 23.6298 27.3122C24.4271 27.9774 25.6931 27.9428 26.665 27.8705C27.7124 27.7918 28.6576 27.5968 29.51 26.9536C30.765 26.0084 31.4711 24.5034 31.8344 23.0109C32.2842 21.1631 32.3156 16.0771 29.2521 16.4687C27.7313 16.6637 26.8601 18.2662 26.2546 19.4913C25.1726 21.6836 24.1818 23.9168 23.092 26.1059C22.8089 26.6752 23.6613 27.1769 23.9459 26.606Z" fill="#002E6E"/>
</g>
</g>
</g>
<g id="Group_54">
<g id="Group_55">
<path id="Vector_28" d="M21.5367 25.7938C21.0507 25.2654 20.0002 25.1411 19.4105 25.5484C18.9622 25.8567 18.8868 26.7657 19.4498 26.9906C19.8854 27.1636 20.516 26.6351 20.8542 26.4323C21.0869 26.2923 21.3558 26.1114 21.6342 26.0973C21.9613 26.08 21.9063 26.7657 21.9031 26.9497C21.9629 26.871 22.0226 26.7924 22.0824 26.7138C21.3385 26.9167 20.8557 26.3898 20.8243 25.6758C20.8101 25.3613 20.3194 25.3597 20.3336 25.6758C20.3808 26.7138 21.1545 27.4749 22.2129 27.1872C22.3199 27.1573 22.3906 27.0598 22.3922 26.9513C22.4017 26.4637 22.3749 25.8378 21.8434 25.6381C21.4408 25.4855 20.9312 25.8189 20.6057 26.0124C20.4736 26.091 19.6668 26.6446 19.5819 26.5078C19.357 26.146 19.7722 25.8567 20.0804 25.8174C20.4453 25.7717 20.9328 25.863 21.1907 26.1445C21.403 26.3741 21.749 26.0265 21.5367 25.7938Z" fill="#002E6E"/>
</g>
</g>
<g id="Group_56">
<g id="Group_57">
<path id="Vector_29" d="M20.1531 24.8457C19.5587 24.6633 18.9988 24.3802 18.3886 24.2576C18.2612 24.2324 18.1197 24.2922 18.0867 24.429C17.8885 25.2531 18.0835 26.1746 18.9438 26.4955C19.7458 26.7958 20.2255 25.7076 20.6013 25.2562C20.7476 25.0816 22.0388 24.4589 21.6896 25.1052C21.3594 25.717 20.8954 25.327 20.691 24.8599C20.5951 24.6413 20.312 24.7482 20.2428 24.9181C19.9534 25.6336 19.5571 26.8304 19.8512 27.5979C19.9628 27.8904 20.4362 27.763 20.3246 27.4674C20.0635 26.7832 20.4567 25.6918 20.7162 25.0486C20.5667 25.0675 20.4173 25.0879 20.2679 25.1068C20.4975 25.6305 20.9882 26.1463 21.6 25.8397C21.9932 25.6431 22.3612 25.1461 22.2259 24.6869C22.0293 24.0232 21.0747 24.4258 20.6894 24.6035C20.2648 24.8001 20.0588 25.1666 19.8119 25.5424C19.5886 25.8853 19.219 26.2014 18.8069 25.8711C18.4374 25.5754 18.461 24.9621 18.5585 24.5564C18.4578 24.613 18.3572 24.6712 18.2565 24.7278C18.8683 24.8505 19.4281 25.1335 20.021 25.316C20.3261 25.4119 20.4551 24.9385 20.1531 24.8457Z" fill="#F1F2F2"/>
</g>
</g>
<g id="Group_58">
<g id="Group_59">
<path id="Vector_30" d="M20.4337 25.4756C20.4542 26.1487 20.7262 26.8249 21.1917 27.3156C21.4103 27.5452 21.7563 27.1976 21.5393 26.968C21.1634 26.5717 20.9417 26.0166 20.9244 25.474C20.915 25.1595 20.4243 25.1595 20.4337 25.4756Z" fill="#F1F2F2"/>
</g>
</g>
<g id="Group_60">
<g id="Group_61">
<path id="Vector_31" d="M13.6458 15.3652C14.5281 17.2886 18.0823 16.7539 19.3278 15.5304C19.1281 15.5555 18.9284 15.5823 18.7271 15.6074C20.251 16.7413 23.2768 16.1295 24.3729 14.645C24.7535 14.1307 23.8933 13.6369 23.5174 14.1449C22.7216 15.2206 20.2793 15.5351 19.2256 14.7519C19.0479 14.6198 18.7711 14.6859 18.6248 14.829C17.8086 15.631 15.0927 16.1563 14.4998 14.8636C14.2356 14.2848 13.3816 14.7881 13.6458 15.3652Z" fill="#002E6E"/>
</g>
</g>
<g id="Group_62">
<g id="Group_63">
<path id="Vector_32" d="M15.5741 16.2588C15.928 20.8541 22.9971 19.4277 23.6057 15.6061C23.7048 14.9818 22.7517 14.7144 22.6527 15.3435C22.401 16.9193 21.0611 17.8409 19.5702 18.1177C18.2036 18.3709 16.6813 17.7953 16.5633 16.2604C16.513 15.6266 15.5238 15.6219 15.5741 16.2588Z" fill="#002E6E"/>
</g>
</g>
<g id="Group_64">
<g id="Group_65">
<path id="Vector_33" d="M15.5985 24.571C16.41 25.5067 15.9351 27.2917 15.9194 28.4177C15.9146 28.6945 16.3314 28.7511 16.4006 28.4822C16.7592 27.0951 16.583 25.793 16.204 24.4295C16.0845 24.5223 15.9634 24.6135 15.8439 24.7063C16.2858 25.0381 16.3471 25.9156 16.4006 26.411C16.4336 26.7193 16.4399 27.0291 16.432 27.3373C16.4289 27.4804 16.3408 27.9003 16.3927 27.8862C16.0876 27.9664 16.2166 28.4398 16.5233 28.3595C17.0989 28.2086 16.9322 26.9725 16.9054 26.5746C16.8567 25.8181 16.745 24.7754 16.0908 24.2832C15.9115 24.148 15.6772 24.3697 15.7306 24.56C16.0845 25.8354 16.2622 27.0495 15.9272 28.3517C16.0876 28.3737 16.2481 28.3957 16.4085 28.4162C16.4273 27.1061 16.8928 25.318 15.9445 24.2219C15.7369 23.9844 15.3925 24.3335 15.5985 24.571Z" fill="#F1F2F2"/>
</g>
</g>
<g id="Group_66">
<g id="Group_67">
<path id="Vector_34" d="M24.3896 23.4918C23.5089 24.654 24.1191 26.8274 25.0155 27.8103C25.2136 28.0273 25.5156 27.7521 25.4008 27.5131C24.8268 26.3147 24.4981 24.9764 24.9353 23.6805C24.7749 23.6585 24.6145 23.6365 24.4541 23.616C24.4588 24.7703 24.3267 26.7723 25.3096 27.6137C25.5486 27.8182 25.8978 27.4722 25.6571 27.2662C24.7922 26.527 24.9479 24.643 24.9447 23.6145C24.9432 23.3298 24.55 23.2921 24.4635 23.55C23.9838 24.9717 24.3487 26.4468 24.9778 27.76C25.1067 27.6609 25.2341 27.5618 25.3631 27.4628C24.605 26.634 24.0703 24.72 24.8126 23.7387C25.0029 23.4871 24.5767 23.2433 24.3896 23.4918Z" fill="#F1F2F2"/>
</g>
</g>
<g id="Group_68">
<g id="Group_69">
<path id="Vector_35" d="M11.1138 29.8298C11.6752 30.2119 12.1627 30.69 12.6801 31.1256C13.1645 31.5329 13.8691 30.8378 13.38 30.4258C12.7965 29.9351 12.2445 29.4067 11.6123 28.9758C11.0839 28.6141 10.5901 29.4728 11.1138 29.8298Z" fill="#002E6E"/>
</g>
</g>
<g id="Group_70">
<g id="Group_71">
<path id="Vector_36" d="M17.5 29.9242C17.2909 30.4526 16.7247 32.9264 17.6715 33.0695C17.9813 33.1167 18.1134 32.6434 17.802 32.5962C17.6023 32.5663 17.6919 31.5677 17.7029 31.4151C17.7344 30.9591 17.8036 30.481 17.9734 30.0548C18.0882 29.7607 17.6148 29.6333 17.5 29.9242Z" fill="#F1F2F2"/>
</g>
</g>
<g id="Group_72">
<g id="Group_73">
<path id="Vector_37" d="M17.6719 31.7955C18.0085 31.8993 18.3686 31.9025 18.7177 31.9025C19.0338 31.9025 19.0338 31.4118 18.7177 31.4118C18.4095 31.4118 18.0997 31.4134 17.8024 31.3222C17.4989 31.2309 17.37 31.7043 17.6719 31.7955Z" fill="#F1F2F2"/>
</g>
</g>
<g id="Group_74">
<g id="Group_75">
<path id="Vector_38" d="M18.7663 29.8896C18.7585 30.7499 18.4345 32.0819 19.0337 32.8085C19.235 33.0522 19.5794 32.7031 19.3812 32.4609C19.1328 32.1605 19.2051 31.5771 19.2114 31.2154C19.2177 30.7719 19.2538 30.3315 19.257 29.888C19.2586 29.5735 18.7695 29.5735 18.7663 29.8896Z" fill="#F1F2F2"/>
</g>
</g>
<g id="Group_76">
<g id="Group_77">
<path id="Vector_39" d="M20.997 29.9715C19.9685 29.3472 19.6115 30.5361 19.915 31.3492C20.0314 31.6621 20.3459 31.7219 20.6322 31.8272C20.8067 31.8917 21.0002 31.9593 21.148 32.0773C21.2203 32.1355 21.1967 32.126 21.137 32.1889C20.8885 32.4484 20.5409 32.5176 20.261 32.2629C20.0283 32.0505 19.6807 32.3965 19.9134 32.6104C20.4073 33.0602 20.9089 33.0225 21.4169 32.5916C21.7047 32.3478 21.7818 32.0081 21.494 31.7297C21.2203 31.4671 20.7926 31.3696 20.4482 31.2359C20.3365 31.1935 20.4104 31.28 20.3554 31.1353C20.3098 31.0126 20.2909 30.8821 20.2815 30.7515C20.2547 30.3709 20.3805 30.1712 20.747 30.393C21.0206 30.5597 21.2675 30.1366 20.997 29.9715Z" fill="#F1F2F2"/>
</g>
</g>
<g id="Group_78">
<g id="Group_79">
<path id="Vector_40" d="M22.1099 30.0196C21.929 30.5999 21.841 31.3045 22.2215 31.8266C22.5125 32.226 23.0031 32.3927 23.4828 32.322C23.9294 32.2559 24.3399 31.9713 24.5255 31.5561C24.796 30.9522 24.5601 30.2901 24.2251 29.7648C24.0553 29.499 23.6306 29.7444 23.8021 30.0117C24.0505 30.4018 24.2581 30.8657 24.093 31.328C23.9876 31.6237 23.6825 31.7904 23.3916 31.8423C23.1101 31.8926 22.7908 31.7778 22.6226 31.5451C22.3316 31.144 22.4496 30.5826 22.5833 30.1486C22.676 29.8482 22.2027 29.7192 22.1099 30.0196Z" fill="#F1F2F2"/>
</g>
</g>
<g id="Group_80">
<g id="Group_81">
<path id="Vector_41" d="M12.6713 20.5208C12.5801 20.3117 12.8333 20.2016 12.9843 20.1182C12.7358 19.9767 12.4889 19.8336 12.2404 19.692C12.3002 20.167 12.1901 20.5255 11.9149 20.914C12.2215 20.9973 12.5298 21.0807 12.8364 21.164C12.783 20.6403 12.8459 19.7675 13.4545 19.5819C13.2453 19.4231 13.0377 19.2643 12.8286 19.1054C12.8868 19.8163 12.5266 20.4721 12.091 21.0115C12.3662 21.0838 12.6414 21.1562 12.9182 21.2301C12.7845 20.6686 13.0613 20.2047 13.3586 19.7486C13.0519 19.6653 12.7437 19.5819 12.437 19.4986C12.4354 19.7581 12.4275 19.9987 12.3568 20.2503C12.1838 20.8652 13.1384 21.1263 13.3098 20.5129C13.4042 20.1795 13.4246 19.8446 13.4262 19.4986C13.4278 18.989 12.7672 18.8475 12.5046 19.2485C12.0517 19.9437 11.7655 20.6592 11.9652 21.4927C12.0454 21.8308 12.5565 22.0023 12.7924 21.7113C13.3869 20.9769 13.8996 20.0836 13.8194 19.1054C13.7942 18.7972 13.5205 18.5283 13.1934 18.6289C12.1382 18.9529 11.7466 20.156 11.8504 21.1656C11.9007 21.6626 12.4779 21.8293 12.772 21.4156C13.1337 20.9045 13.3098 20.3211 13.2312 19.6952C13.1856 19.3287 12.8443 19.0708 12.4873 19.2674C11.7859 19.6543 11.4918 20.2708 11.8189 21.0225C12.0706 21.6028 12.9229 21.0996 12.6713 20.5208Z" fill="#002E6E"/>
</g>
</g>
<g id="Group_82">
<g id="Group_83">
<path id="Vector_42" d="M26.2672 19.8823C25.7026 19.8698 25.1852 19.56 25.3707 18.9387C25.1679 19.0536 24.965 19.1684 24.7621 19.2847C25.2119 19.4577 25.3786 20.2032 25.495 20.6058C25.7372 20.4202 25.9794 20.2331 26.2216 20.0475C25.907 19.8493 25.8347 19.6166 25.7623 19.2643C25.4871 19.4247 25.2119 19.5851 24.9351 19.7455C25.1694 19.9924 25.3078 20.2802 25.3959 20.6058C25.5626 21.2207 26.5172 20.9596 26.3489 20.3431C26.2168 19.854 25.9825 19.4153 25.6334 19.0457C25.2732 18.6651 24.7118 19.0661 24.8062 19.5269C24.9304 20.1324 25.1899 20.5664 25.7199 20.9014C26.0895 21.1342 26.566 20.752 26.4464 20.3431C26.209 19.5254 25.8756 18.6588 25.0232 18.3301C24.7668 18.2311 24.4869 18.4371 24.4146 18.6761C24.0387 19.9358 25.0688 20.8432 26.264 20.8716C26.9057 20.8857 26.9041 19.8965 26.2672 19.8823Z" fill="#002E6E"/>
</g>
</g>
</g>
</svg>
